SplineFontDB: 3.2
FontName: Umpush
FullName: Umpush
FamilyName: Umpush
Weight: Regular
Copyright: Copyright (c) 2003 NECTEC. All rights reserved.\nCopyright (c) 2007 Widhaya Trisarnwadhana. All rights reserved.\nModified under GNU General Public License by TLWG.
Version: 001.002
ItalicAngle: 0
UnderlinePosition: -170
UnderlineWidth: 20
Ascent: 1638
Descent: 410
InvalidEm: 0
LayerCount: 3
Layer: 0 0 "Back" 1
Layer: 1 0 "Fore" 0
Layer: 2 1 "Quad" 0
FSType: 0
OS2Version: 4
OS2_WeightWidthSlopeOnly: 0
OS2_UseTypoMetrics: 1
CreationTime: 1153662374
ModificationTime: 1587985844
PfmFamily: 33
TTFWeight: 400
TTFWidth: 5
LineGap: 0
VLineGap: 0
Panose: 2 11 5 4 2 2 2 2 2 4
OS2TypoAscent: 2741
OS2TypoAOffset: 0
OS2TypoDescent: -1312
OS2TypoDOffset: 0
OS2TypoLinegap: 0
OS2WinAscent: 0
OS2WinAOffset: 1
OS2WinDescent: 0
OS2WinDOffset: 1
HheadAscent: 0
HheadAOffset: 1
HheadDescent: 0
HheadDOffset: 1
OS2Vendor: 'PfEd'
Lookup: 4 0 1 "'liga' Standard Ligatures lookup 0" { "'liga' Standard Ligatures lookup 0"  } ['liga' ('latn' <'dflt' > ) ]
Lookup: 6 0 0 "'ccmp' Thai Tone Tilde Reordering" { "'ccmp' Thai Tone Tilde Reordering"  } ['ccmp' ('DFLT' <'dflt' > 'latn' <'dflt' > 'thai' <'KUY ' 'MLY ' 'PAL ' 'SAN ' 'THA ' 'dflt' > ) ]
Lookup: 6 0 0 "'ccmp' Thai Tone Macron Reordering" { "'ccmp' Thai Tone Macron Reordering"  } ['ccmp' ('DFLT' <'dflt' > 'latn' <'dflt' > 'thai' <'KUY ' 'MLY ' 'PAL ' 'SAN ' 'THA ' 'dflt' > ) ]
Lookup: 6 0 0 "'ccmp' Thai Below Vowel Macron Reordering" { "'ccmp' Thai Below Vowel Macron Reordering"  } ['ccmp' ('DFLT' <'dflt' > 'latn' <'dflt' > 'thai' <'KUY ' 'MLY ' 'PAL ' 'SAN ' 'THA ' 'dflt' > ) ]
Lookup: 4 0 0 "'ccmp' Patani Malay Ligatures" { "'ccmp' Patani Malay Ligatures"  } ['ccmp' ('DFLT' <'dflt' > 'thai' <'KUY ' 'MLY ' 'PAL ' 'SAN ' 'THA ' 'dflt' > ) ]
Lookup: 6 0 0 "'ccmp' Thai Conditional Descender Removal" { "'ccmp' Thai Conditional Descender Removal"  } ['ccmp' ('DFLT' <'dflt' > 'thai' <'KUY ' 'MLY ' 'THA ' 'dflt' > ) ]

StartChar: .notdef
Encoding: 65536 -1 0
Width: 1536
Flags: W
HStem: 0 32<288 1248> 1248 32<288 1248>
VStem: 256 32<32 1248> 1248 32<32 1248>
LayerCount: 3
Fore
SplineSet
256 0 m 1
 256 1280 l 1
 1280 1280 l 1
 1280 0 l 1
 256 0 l 1
288 32 m 1
 1248 32 l 1
 1248 1248 l 1
 288 1248 l 1
 288 32 l 1
EndSplineSet
Validated: 1
Layer: 2
SplineSet
256 0 m 1,0,-1
 256 1280 l 1,1,-1
 1280 1280 l 1,2,-1
 1280 0 l 1,3,-1
 256 0 l 1,0,-1
288 32 m 1,4,-1
 1248 32 l 1,5,-1
 1248 1248 l 1,6,-1
 288 1248 l 1,7,-1
 288 32 l 1,4,-1
EndSplineSet
EndChar

StartChar: uni0E4D.high
Encoding: 63262 63262 2
Width: 0
VWidth: 2558
Flags: W
HStem: 2056 72<-317.618 -186.931> 2284 74<-317.64 -184.467>
VStem: -400 69<2143.55 2269.61> -171 70<2144.38 2269.76>
AnchorPoint: "AboveMark" -249 2560 basemark 0
AnchorPoint: "AboveMark" -250 2070 mark 0
LayerCount: 3
Fore
SplineSet
-400 2205 m 0
 -400 2285 -337 2358 -249 2358 c 0
 -169 2358 -101 2293 -101 2205 c 0
 -101 2118 -174 2056 -249 2056 c 0
 -324 2056 -400 2115 -400 2205 c 0
-331 2205 m 0
 -331 2159 -289 2128 -251 2128 c 0
 -208 2128 -171 2168 -171 2205 c 0
 -171 2258 -215 2284 -250 2284 c 0
 -308 2284 -331 2237 -331 2205 c 0
EndSplineSet
Validated: 1
Layer: 2
SplineSet
-400 2205 m 0,0,1
 -400 2267 -400 2267 -356.5 2312.5 c 128,-1,2
 -313 2358 -313 2358 -249 2358 c 0,3,4
 -188 2358 -188 2358 -144.5 2314 c 128,-1,5
 -101 2270 -101 2270 -101 2205 c 0,6,7
 -101 2142 -101 2142 -146 2099 c 128,-1,8
 -191 2056 -191 2056 -249 2056 c 0,9,10
 -308 2056 -308 2056 -354 2098 c 128,-1,11
 -400 2140 -400 2140 -400 2205 c 0,0,1
-331 2205 m 0,12,13
 -331 2172 -331 2172 -306 2150 c 128,-1,14
 -281 2128 -281 2128 -251 2128 c 0,15,16
 -220 2128 -220 2128 -195.5 2152 c 128,-1,17
 -171 2176 -171 2176 -171 2205 c 0,18,19
 -171 2242 -171 2242 -195.5 2263 c 128,-1,20
 -220 2284 -220 2284 -250 2284 c 0,21,22
 -290 2284 -290 2284 -310.5 2259 c 128,-1,23
 -331 2234 -331 2234 -331 2205 c 0,12,13
EndSplineSet
EndChar

StartChar: exclam
Encoding: 33 33 5
Width: 569
Flags: W
HStem: 0 194<198 378> 1430 20G<198 378>
VStem: 198 180<0 194 792.431 1450>
LayerCount: 3
Fore
SplineSet
198 999 m 1
 198 1450 l 1
 378 1450 l 1
 378 999 l 1
 334 365 l 1
 242 365 l 1
 198 999 l 1
198 194 m 1
 378 194 l 1
 378 0 l 1
 198 0 l 1
 198 194 l 1
EndSplineSet
Validated: 1
Layer: 2
SplineSet
198 999 m 1,0,-1
 198 1450 l 1,1,-1
 378 1450 l 1,2,-1
 378 999 l 1,3,-1
 334 365 l 1,4,-1
 242 365 l 1,5,-1
 198 999 l 1,0,-1
198 194 m 1,6,-1
 378 194 l 1,7,-1
 378 0 l 1,8,-1
 198 0 l 1,9,-1
 198 194 l 1,6,-1
EndSplineSet
EndChar

StartChar: quotedbl
Encoding: 34 34 6
Width: 727
Flags: W
HStem: 947 503<156 241 487 572>
VStem: 106 180<1139.59 1450> 156 85<947 1024.41> 439 180<1136.36 1450> 487 85<947 1027.64>
LayerCount: 3
Fore
SplineSet
156 947 m 1xa0
 106 1217 l 1
 106 1450 l 1
 286 1450 l 1
 286 1217 l 1xc0
 241 947 l 1
 156 947 l 1xa0
487 947 m 1x88
 439 1217 l 1
 439 1450 l 1
 619 1450 l 1
 619 1217 l 1x90
 572 947 l 1
 487 947 l 1x88
EndSplineSet
Validated: 1
Layer: 2
SplineSet
156 947 m 1,0,-1
 106 1217 l 1,1,-1
 106 1450 l 1,2,-1
 286 1450 l 1,3,-1
 286 1217 l 1,4,-1
 241 947 l 1,5,-1
 156 947 l 1,0,-1
487 947 m 1,6,-1
 439 1217 l 1,7,-1
 439 1450 l 1,8,-1
 619 1450 l 1,9,-1
 619 1217 l 1,10,-1
 572 947 l 1,11,-1
 487 947 l 1,6,-1
EndSplineSet
EndChar

StartChar: numbersign
Encoding: 35 35 7
Width: 1139
Flags: W
HStem: -10 21G<87 271.15 546 730.15> 390 170<21 170 386 629 845 1113> 900 170<21 276 492 735 951 1113> 1450 20G<390.85 575 849.85 1034>
DStem2: 87 -10 267 -10 0.203743 0.979024<36.6737 408.52 618.963 929.42 1139.86 1511.71> 546 -10 726 -10 0.203743 0.979024<36.6737 408.52 618.963 929.42 1139.86 1511.71>
LayerCount: 3
Back
SplineSet
21 390 m 5
 21 560 l 5
 1113 560 l 5
 1113 390 l 5
 21 390 l 5
21 900 m 5
 21 1070 l 5
 1113 1070 l 5
 1113 900 l 5
 21 900 l 5
726 -10 m 5
 546 -10 l 5
 854 1470 l 5
 1034 1470 l 5
 726 -10 l 5
267 -10 m 5
 87 -10 l 5
 395 1470 l 5
 575 1470 l 5
 267 -10 l 5
EndSplineSet
Fore
SplineSet
267 -10 m 1
 87 -10 l 1
 170 390 l 1
 21 390 l 1
 21 560 l 1
 206 560 l 1
 276 900 l 1
 21 900 l 1
 21 1070 l 1
 312 1070 l 1
 395 1470 l 1
 575 1470 l 1
 492 1070 l 1
 771 1070 l 1
 854 1470 l 1
 1034 1470 l 1
 951 1070 l 1
 1113 1070 l 1
 1113 900 l 1
 915 900 l 1
 845 560 l 1
 1113 560 l 1
 1113 390 l 1
 809 390 l 1
 726 -10 l 1
 546 -10 l 1
 629 390 l 1
 350 390 l 1
 267 -10 l 1
735 900 m 1
 456 900 l 1
 386 560 l 1
 665 560 l 1
 735 900 l 1
EndSplineSet
Validated: 1
Layer: 2
SplineSet
267 -10 m 1,0,-1
 87 -10 l 1,1,-1
 170 390 l 1,2,-1
 21 390 l 1,3,-1
 21 560 l 1,4,-1
 206 560 l 1,5,-1
 276 900 l 1,6,-1
 21 900 l 1,7,-1
 21 1070 l 1,8,-1
 312 1070 l 1,9,-1
 395 1470 l 1,10,-1
 575 1470 l 1,11,-1
 492 1070 l 1,12,-1
 771 1070 l 1,13,-1
 854 1470 l 1,14,-1
 1034 1470 l 1,15,-1
 951 1070 l 1,16,-1
 1113 1070 l 1,17,-1
 1113 900 l 1,18,-1
 915 900 l 1,19,-1
 845 560 l 1,20,-1
 1113 560 l 1,21,-1
 1113 390 l 1,22,-1
 809 390 l 1,23,-1
 726 -10 l 1,24,-1
 546 -10 l 1,25,-1
 629 390 l 1,26,-1
 350 390 l 1,27,-1
 267 -10 l 1,0,-1
735 900 m 1,28,-1
 456 900 l 1,29,-1
 386 560 l 1,30,-1
 665 560 l 1,31,-1
 735 900 l 1,28,-1
EndSplineSet
EndChar

StartChar: dollar
Encoding: 36 36 8
Width: 1139
Flags: W
HStem: -5 175<380.981 473 653 751.94> 1062 21G<821.5 1008> 1249 174<374.187 473 653 737.766>
VStem: 76 180<307.329 429> 106 180<925.546 1169.88> 473 180<-106 1.41434 170 629 836 1246 1416.44 1500> 828 180<1062 1162.02> 862 180<269.148 530.847>
LayerCount: 3
Back
SplineSet
473 1500 m 5xe4
 653 1500 l 5
 653 -106 l 5
 473 -106 l 5
 473 1500 l 5xe4
562 -11 m 7
 291 -11 77 143 76 429 c 5
 256 429 l 5
 282 257 403 159 562 159 c 31
 712 159 862 246 862 398 c 7xf5
 862 578 706 625 562 648 c 4
 386 676 106 751 106 1043 c 7
 106 1302 329 1429 562 1429 c 31
 787 1429 996 1304 1008 1062 c 5
 828 1062 l 5xee
 811 1184 691 1259 562 1259 c 31
 428 1259 286 1194 286 1056 c 7
 286 887 432 837 562 816 c 4
 773 782 1042 710 1042 409 c 7xed
 1042 149 825 -11 562 -11 c 7
EndSplineSet
Fore
SplineSet
473 1500 m 1xec
 653 1500 l 1
 653 1422 l 1
 841 1393 998 1271 1008 1062 c 1
 828 1062 l 1xee
 815 1154 743 1220 653 1246 c 1
 653 799 l 1
 843 757 1042 668 1042 409 c 0
 1042 180 873 29 653 -4 c 1
 653 -106 l 1
 473 -106 l 1
 473 -5 l 1
 246 25 77 175 76 429 c 1
 256 429 l 1xf5
 277 291 359 200 473 170 c 1
 473 665 l 1
 305 705 106 797 106 1043 c 0
 106 1269 275 1394 473 1423 c 1
 473 1500 l 1xec
473 1249 m 1
 372 1226 286 1163 286 1056 c 0
 286 925 373 866 473 836 c 1
 473 1249 l 1
653 170 m 1
 767 198 862 277 862 398 c 0xe5
 862 540 765 599 653 629 c 1
 653 170 l 1
EndSplineSet
Validated: 1
Layer: 2
SplineSet
473 1500 m 1,0,-1
 653 1500 l 1,1,-1
 653 1422 l 1,2,3
 802 1399 802 1399 901.5 1305.5 c 128,-1,4
 1001 1212 1001 1212 1008 1062 c 1,5,-1
 828 1062 l 1,6,7
 819 1129 819 1129 771 1177.5 c 128,-1,8
 723 1226 723 1226 653 1246 c 1,9,-1
 653 799 l 1,10,11
 716 785 716 785 767 767.5 c 128,-1,12
 818 750 818 750 871.5 718.5 c 128,-1,13
 925 687 925 687 960.5 646.5 c 128,-1,14
 996 606 996 606 1019 545 c 128,-1,15
 1042 484 1042 484 1042 409 c 0,16,17
 1042 242 1042 242 933 132 c 128,-1,18
 824 22 824 22 653 -4 c 1,19,-1
 653 -106 l 1,20,-1
 473 -106 l 1,21,-1
 473 -5 l 1,22,23
 296 18 296 18 186.5 131.5 c 128,-1,24
 77 245 77 245 76 429 c 1,25,-1
 256 429 l 1,26,27
 272 327 272 327 329 260 c 128,-1,28
 386 193 386 193 473 170 c 1,29,-1
 473 665 l 1,30,31
 106 752 106 752 106 1043 c 0,32,33
 106 1204 106 1204 210 1302 c 128,-1,34
 314 1400 314 1400 473 1423 c 1,35,-1
 473 1500 l 1,0,-1
473 1249 m 1,36,37
 391 1230 391 1230 338.5 1181 c 128,-1,38
 286 1132 286 1132 286 1056 c 0,39,40
 286 892 286 892 473 836 c 1,41,-1
 473 1249 l 1,36,37
653 170 m 1,42,43
 744 192 744 192 803 251.5 c 128,-1,44
 862 311 862 311 862 398 c 0,45,46
 862 496 862 496 805.5 549.5 c 128,-1,47
 749 603 749 603 653 629 c 1,48,-1
 653 170 l 1,42,43
EndSplineSet
EndChar

StartChar: percent
Encoding: 37 37 9
Width: 1821
Flags: W
HStem: -50 170<1299.02 1461.85> -10 21G<458 648.113> 554 170<1297.06 1468.14> 717 170<351.016 513.855> 1321 170<349.057 520.144>
VStem: 119 180<941.855 1273.81> 565 180<940.136 1273.81> 1067 180<174.239 506.222> 1513 180<172.531 506.222>
DStem2: 458 -10 638 -10 0.451252 0.892397<81.2253 1681.99>
LayerCount: 3
Fore
SplineSet
1067 336 m 3xaf80
 1067 553 1176 724 1380 724 c 3
 1584 724 1693 553 1693 336 c 3
 1693 119 1584 -50 1380 -50 c 3
 1176 -50 1067 119 1067 336 c 3xaf80
1380 554 m 3
 1287 554 1247 444 1247 336 c 3
 1247 228 1296 120 1380 120 c 3
 1468 120 1513 228 1513 336 c 3
 1513 444 1478 554 1380 554 c 3
119 1104 m 3
 119 1321 228 1491 432 1491 c 3
 636 1491 745 1321 745 1104 c 3
 745 887 636 717 432 717 c 3x1f80
 228 717 119 887 119 1104 c 3
432 1321 m 3
 339 1321 299 1212 299 1104 c 3
 299 996 348 887 432 887 c 3
 520 887 565 996 565 1104 c 3
 565 1212 530 1321 432 1321 c 3
1217 1491 m 1
 1397 1491 l 1
 638 -10 l 1
 458 -10 l 1x4f80
 1217 1491 l 1
EndSplineSet
Validated: 1
Layer: 2
SplineSet
1067 336 m 131,-1,1
 1067 505 1067 505 1149.5 614.5 c 128,-1,2
 1232 724 1232 724 1380 724 c 128,-1,3
 1528 724 1528 724 1610.5 614.5 c 128,-1,4
 1693 505 1693 505 1693 336 c 128,-1,5
 1693 167 1693 167 1610.5 58.5 c 128,-1,6
 1528 -50 1528 -50 1380 -50 c 128,-1,7
 1232 -50 1232 -50 1149.5 58.5 c 128,-1,0
 1067 167 1067 167 1067 336 c 131,-1,1
1380 554 m 3,8,9
 1315 554 1315 554 1281 490 c 128,-1,10
 1247 426 1247 426 1247 336 c 0,11,12
 1247 250 1247 250 1283.5 185 c 128,-1,13
 1320 120 1320 120 1380 120 c 0,14,15
 1442 120 1442 120 1477.5 184 c 128,-1,16
 1513 248 1513 248 1513 336 c 0,17,18
 1513 427 1513 427 1480.5 490.5 c 128,-1,19
 1448 554 1448 554 1380 554 c 3,8,9
119 1104 m 131,-1,21
 119 1273 119 1273 201.5 1382 c 128,-1,22
 284 1491 284 1491 432 1491 c 128,-1,23
 580 1491 580 1491 662.5 1382 c 128,-1,24
 745 1273 745 1273 745 1104 c 128,-1,25
 745 935 745 935 662.5 826 c 128,-1,26
 580 717 580 717 432 717 c 128,-1,27
 284 717 284 717 201.5 826 c 128,-1,20
 119 935 119 935 119 1104 c 131,-1,21
432 1321 m 3,28,29
 367 1321 367 1321 333 1257 c 128,-1,30
 299 1193 299 1193 299 1104 c 0,31,32
 299 1018 299 1018 335.5 952.5 c 128,-1,33
 372 887 372 887 432 887 c 0,34,35
 494 887 494 887 529.5 951.5 c 128,-1,36
 565 1016 565 1016 565 1104 c 0,37,38
 565 1195 565 1195 532.5 1258 c 128,-1,39
 500 1321 500 1321 432 1321 c 3,28,29
1217 1491 m 1,40,-1
 1397 1491 l 1,41,-1
 638 -10 l 1,42,-1
 458 -10 l 1,43,-1
 1217 1491 l 1,40,-1
EndSplineSet
EndChar

StartChar: ampersand
Encoding: 38 38 10
Width: 1366
Flags: W
HStem: -11 170<398.647 716.842> 1312 170<509.924 741.595>
VStem: 88 180<285.593 552.697> 272 180<1069.07 1257.44> 797 180<1040.29 1256.47> 1032 189<544.402 652.11>
DStem2: 700 821 530 725 0.631938 -0.775019<-418.68 -183.107 0 421.181>
LayerCount: 3
Fore
SplineSet
973 179 m 1
 856 55 720 -11 553 -11 c 3
 284 -11 88 178 88 410 c 3
 88 586 204 733 436 842 c 1
 359 941 272 1032 272 1159 c 3
 272 1344 440 1482 637 1482 c 3
 832 1482 977 1340 977 1174 c 3
 977 1039 885 920 700 821 c 1
 963 492 l 1
 993 549 1016 611 1032 690 c 1
 1221 649 l 1
 1188 522 1144 424 1090 341 c 1
 1157 261 1233 186 1319 123 c 1
 1198 -21 l 1
 1126 27 1051 96 973 179 c 1
606 938 m 1
 726 1012 797 1048 797 1154 c 3
 797 1238 716 1312 627 1312 c 3
 531 1312 452 1238 452 1162 c 3
 452 1100 555 998 606 938 c 1
530 725 m 1
 370 633 268 548 268 423 c 3
 268 314 365 159 555 159 c 3
 688 159 797 246 860 322 c 1
 530 725 l 1
EndSplineSet
Validated: 1
Layer: 2
SplineSet
973 179 m 1,0,1
 794 -11 794 -11 553 -11 c 0,2,3
 353 -11 353 -11 220.5 111.5 c 128,-1,4
 88 234 88 234 88 410 c 0,5,6
 88 678 88 678 436 842 c 1,7,8
 430 850 430 850 398.5 889.5 c 128,-1,9
 367 929 367 929 358 941.5 c 128,-1,10
 349 954 349 954 326.5 988.5 c 128,-1,11
 304 1023 304 1023 296 1044 c 128,-1,12
 288 1065 288 1065 280 1096.5 c 128,-1,13
 272 1128 272 1128 272 1159 c 0,14,15
 272 1296 272 1296 379.5 1389 c 128,-1,16
 487 1482 487 1482 637 1482 c 0,17,18
 781 1482 781 1482 879 1391 c 128,-1,19
 977 1300 977 1300 977 1174 c 0,20,21
 977 969 977 969 700 821 c 1,22,-1
 963 492 l 1,23,24
 1010 581 1010 581 1032 690 c 1,25,-1
 1221 649 l 1,26,27
 1175 471 1175 471 1090 341 c 1,28,29
 1199 211 1199 211 1319 123 c 1,30,-1
 1198 -21 l 1,31,32
 1099 45 1099 45 973 179 c 1,0,1
606 938 m 1,33,34
 711.136379134 1002.83410047 711.136379134 1002.83410047 737.019158347 1025.34216392 c 0,35,36
 797 1077.50242766 797 1077.50242766 797 1154 c 0,37,38
 797 1217 797 1217 745.5 1264.5 c 128,-1,39
 694 1312 694 1312 627 1312 c 0,40,41
 556 1312 556 1312 504 1266 c 128,-1,42
 452 1220 452 1220 452 1162 c 0,43,44
 452 1144 452 1144 462 1121.5 c 128,-1,45
 472 1099 472 1099 492 1072.5 c 128,-1,46
 512 1046 512 1046 528.5 1026 c 128,-1,47
 545 1006 545 1006 571 977 c 128,-1,48
 597 948 597 948 606 938 c 1,33,34
530 725 m 1,49,50
 398 649 398 649 333 580 c 128,-1,51
 268 511 268 511 268 423 c 0,52,53
 268 381 268 381 286.5 335.5 c 128,-1,54
 305 290 305 290 339.5 250 c 128,-1,55
 374 210 374 210 430.5 184.5 c 128,-1,56
 487 159 487 159 555 159 c 0,57,58
 646 159 646 159 725 206.5 c 128,-1,59
 804 254 804 254 860 322 c 1,60,-1
 530 725 l 1,49,50
EndSplineSet
EndChar

StartChar: quotesingle
Encoding: 39 39 11
Width: 391
Flags: W
HStem: 947 519<136 247>
VStem: 90 205<1139.17 1466> 136 111<947 1028.83>
LayerCount: 3
Fore
SplineSet
136 947 m 1xa0
 90 1221 l 1
 90 1466 l 1
 295 1466 l 1
 295 1221 l 1xc0
 247 947 l 1
 136 947 l 1xa0
EndSplineSet
Validated: 1
Layer: 2
SplineSet
136 947 m 1,0,-1
 90 1221 l 1,1,-1
 90 1466 l 1,2,-1
 295 1466 l 1,3,-1
 295 1221 l 1,4,-1
 247 947 l 1,5,-1
 136 947 l 1,0,-1
EndSplineSet
EndChar

StartChar: parenleft
Encoding: 40 40 12
Width: 682
Flags: W
VStem: 124 180<190.178 888.505>
LayerCount: 3
Fore
SplineSet
479 -431 m 1
 279 -172 124 160 124 531 c 3
 124 945 281 1239 479 1491 c 1
 608 1491 l 1
 412 1155 304 960 304 530 c 3
 304 210 409 -111 608 -431 c 1
 479 -431 l 1
EndSplineSet
Validated: 1
Layer: 2
SplineSet
479 -431 m 1,0,1
 317 -221 317 -221 220.5 23.5 c 128,-1,2
 124 268 124 268 124 531 c 0,3,4
 124 681 124 681 150.5 818 c 128,-1,5
 177 955 177 955 228 1074 c 128,-1,6
 279 1193 279 1193 339 1291 c 128,-1,7
 399 1389 399 1389 479 1491 c 1,8,-1
 608 1491 l 1,9,10
 548 1389 548 1389 516 1331.5 c 128,-1,11
 484 1274 484 1274 443 1190.5 c 128,-1,12
 402 1107 402 1107 381.5 1044 c 128,-1,13
 361 981 361 981 340.5 897.5 c 128,-1,14
 320 814 320 814 312 725 c 128,-1,15
 304 636 304 636 304 530 c 0,16,17
 304 58 304 58 608 -431 c 1,18,-1
 479 -431 l 1,0,1
EndSplineSet
EndChar

StartChar: parenright
Encoding: 41 41 13
Width: 682
Flags: W
VStem: 378 180<190.178 888.505>
LayerCount: 3
Fore
SplineSet
203 -431 m 1
 74 -431 l 1
 273 -111 378 210 378 530 c 3
 378 960 270 1155 74 1491 c 1
 203 1491 l 1
 401 1239 558 945 558 531 c 3
 558 160 403 -172 203 -431 c 1
EndSplineSet
Validated: 1
Layer: 2
SplineSet
203 -431 m 1,0,-1
 74 -431 l 1,1,2
 378 58 378 58 378 530 c 0,3,4
 378 636 378 636 370 725 c 128,-1,5
 362 814 362 814 341.5 897.5 c 128,-1,6
 321 981 321 981 300.5 1044 c 128,-1,7
 280 1107 280 1107 239 1190.5 c 128,-1,8
 198 1274 198 1274 166 1331.5 c 128,-1,9
 134 1389 134 1389 74 1491 c 1,10,-1
 203 1491 l 1,11,12
 283 1389 283 1389 343 1291 c 128,-1,13
 403 1193 403 1193 454 1074 c 128,-1,14
 505 955 505 955 531.5 818 c 128,-1,15
 558 681 558 681 558 531 c 0,16,17
 558 268 558 268 461.5 23.5 c 128,-1,18
 365 -221 365 -221 203 -431 c 1,0,-1
EndSplineSet
EndChar

StartChar: asterisk
Encoding: 42 42 14
Width: 797
Flags: W
HStem: 867 624
VStem: 321 145<1247.64 1491>
LayerCount: 3
Fore
SplineSet
64 1197 m 1
 110 1339 l 1
 216 1302 293 1269 341 1242 c 1
 328 1363 322 1446 321 1491 c 1
 466 1491 l 1
 464 1425 456 1342 443 1243 c 1
 512 1278 590 1310 679 1339 c 1
 725 1197 l 1
 640 1169 557 1150 476 1141 c 1
 517 1106 574 1043 648 952 c 1
 528 867 l 1
 489 920 444 991 391 1082 c 1
 342 988 298 916 261 867 c 1
 143 952 l 1
 220 1047 276 1110 309 1141 c 1
 223 1158 141 1176 64 1197 c 1
EndSplineSet
Validated: 1
Layer: 2
SplineSet
64 1197 m 1,0,-1
 110 1339 l 1,1,2
 264 1285 264 1285 341 1242 c 1,3,4
 323 1412 323 1412 321 1491 c 1,5,-1
 466 1491 l 1,6,7
 463 1396 463 1396 443 1243 c 1,8,9
 548 1296 548 1296 679 1339 c 1,10,-1
 725 1197 l 1,11,12
 595 1154 595 1154 476 1141 c 1,13,14
 536 1090 536 1090 648 952 c 1,15,-1
 528 867 l 1,16,17
 472 944 472 944 391 1082 c 1,18,19
 319 944 319 944 261 867 c 1,20,-1
 143 952 l 1,21,22
 255 1091 255 1091 309 1141 c 1,23,24
 165 1169 165 1169 64 1197 c 1,0,-1
EndSplineSet
EndChar

StartChar: plus
Encoding: 43 43 15
Width: 1196
Flags: W
HStem: 638 170<114 508 688 1082>
VStem: 508 180<237 638 808 1206>
LayerCount: 3
Fore
SplineSet
508 237 m 1
 508 638 l 1
 114 638 l 1
 114 808 l 1
 508 808 l 1
 508 1206 l 1
 688 1206 l 1
 688 808 l 1
 1082 808 l 1
 1082 638 l 1
 688 638 l 1
 688 237 l 1
 508 237 l 1
EndSplineSet
Validated: 1
Layer: 2
SplineSet
508 237 m 1,0,-1
 508 638 l 1,1,-1
 114 638 l 1,2,-1
 114 808 l 1,3,-1
 508 808 l 1,4,-1
 508 1206 l 1,5,-1
 688 1206 l 1,6,-1
 688 808 l 1,7,-1
 1082 808 l 1,8,-1
 1082 638 l 1,9,-1
 688 638 l 1,10,-1
 688 237 l 1,11,-1
 508 237 l 1,0,-1
EndSplineSet
EndChar

StartChar: comma
Encoding: 44 44 16
Width: 569
Flags: W
HStem: 0 205<182 284>
VStem: 182 205<0 205> 284 103<-157.748 0>
LayerCount: 3
Fore
SplineSet
182 0 m 1xc0
 182 205 l 1
 387 205 l 1
 387 0 l 1xc0
 386 -157 332 -241 220 -290 c 1
 170 -213 l 1
 251 -176 280 -117 284 0 c 1xa0
 182 0 l 1xc0
EndSplineSet
Validated: 1
Layer: 2
SplineSet
182 0 m 1,0,-1
 182 205 l 1,1,-1
 387 205 l 1,2,-1
 387 0 l 2,3,4
 386 -116 386 -116 345.5 -184.5 c 128,-1,5
 305 -253 305 -253 220 -290 c 1,6,-1
 170 -213 l 1,7,8
 230 -186 230 -186 255.5 -137.5 c 128,-1,9
 281 -89 281 -89 284 0 c 1,10,-1
 182 0 l 1,0,-1
EndSplineSet
EndChar

StartChar: hyphen
Encoding: 45 45 17
Width: 682
Flags: W
HStem: 446 170<65 618>
VStem: 65 553<446 616>
LayerCount: 3
Fore
SplineSet
65 446 m 1
 65 616 l 1
 618 616 l 1
 618 446 l 1
 65 446 l 1
EndSplineSet
Validated: 1
Layer: 2
SplineSet
65 446 m 1,0,-1
 65 616 l 1,1,-1
 618 616 l 1,2,-1
 618 446 l 1,3,-1
 65 446 l 1,0,-1
EndSplineSet
EndChar

StartChar: period
Encoding: 46 46 18
Width: 569
Flags: W
HStem: 0 205<186 391>
VStem: 186 205<0 205>
LayerCount: 3
Fore
SplineSet
186 0 m 1
 186 205 l 1
 391 205 l 1
 391 0 l 1
 186 0 l 1
EndSplineSet
Validated: 1
Layer: 2
SplineSet
186 0 m 1,0,-1
 186 205 l 1,1,-1
 391 205 l 1,2,-1
 391 0 l 1,3,-1
 186 0 l 1,0,-1
EndSplineSet
EndChar

StartChar: slash
Encoding: 47 47 19
Width: 595
Flags: W
HStem: -10 21G<-81 109.919> 1450 20G<498.068 688>
DStem2: -81 -10 102 -10 0.368682 0.929556<67.4688 1592.16>
LayerCount: 3
Fore
SplineSet
-81 -10 m 1
 506 1470 l 1
 688 1470 l 1
 102 -10 l 1
 -81 -10 l 1
EndSplineSet
Validated: 1
Layer: 2
SplineSet
-81 -10 m 1,0,-1
 506 1470 l 1,1,-1
 688 1470 l 1,2,-1
 102 -10 l 1,3,-1
 -81 -10 l 1,0,-1
EndSplineSet
EndChar

StartChar: zero
Encoding: 48 48 20
Width: 1139
Flags: W
HStem: -10 170<425.476 699.206> 1289 170<435.88 699.081>
VStem: 86 180<384.139 1040.68> 860 180<388.262 1063.23>
LayerCount: 3
Fore
SplineSet
86 723 m 3
 86 1160 196 1459 563 1459 c 3
 881 1459 1040 1214 1040 723 c 3
 1040 288 920 -10 563 -10 c 3
 208 -10 86 300 86 723 c 3
266 723 m 3
 266 414 344 160 563 160 c 3
 758 160 860 358 860 723 c 3
 860 1092 758 1289 561 1289 c 3
 316 1289 266 910 266 723 c 3
EndSplineSet
Validated: 1
Layer: 2
SplineSet
86 723 m 3,0,1
 86 895 86 895 109.5 1024 c 128,-1,2
 133 1153 133 1153 186.5 1253.5 c 128,-1,3
 240 1354 240 1354 334.5 1406.5 c 128,-1,4
 429 1459 429 1459 563 1459 c 0,5,6
 1040 1459 1040 1459 1040 723 c 0,7,8
 1040 554 1040 554 1015 424 c 128,-1,9
 990 294 990 294 935.5 194.5 c 128,-1,10
 881 95 881 95 787.5 42.5 c 128,-1,11
 694 -10 694 -10 563 -10 c 0,12,13
 86 -10 86 -10 86 723 c 3,0,1
266 723 m 3,14,15
 266 602 266 602 282 503.5 c 128,-1,16
 298 405 298 405 332 326 c 128,-1,17
 366 247 366 247 424.5 203.5 c 128,-1,18
 483 160 483 160 563 160 c 0,19,20
 709 160 709 160 784.5 304 c 128,-1,21
 860 448 860 448 860 723 c 0,22,23
 860 1000 860 1000 784 1144.5 c 128,-1,24
 708 1289 708 1289 561 1289 c 0,25,26
 491 1289 491 1289 436.5 1247.5 c 128,-1,27
 382 1206 382 1206 351 1144.5 c 128,-1,28
 320 1083 320 1083 300 1002.5 c 128,-1,29
 280 922 280 922 273 854.5 c 128,-1,30
 266 787 266 787 266 723 c 3,14,15
EndSplineSet
EndChar

StartChar: one
Encoding: 49 49 21
Width: 1139
Flags: W
HStem: 0 21G<583 763> 1452 20G<557 763>
VStem: 583 180<0 1135 1376.16 1472>
LayerCount: 3
Fore
SplineSet
763 0 m 1
 583 0 l 1
 583 1135 l 1
 520 1033 368 937 223 907 c 1
 223 1104 l 1
 377 1175 531 1308 583 1472 c 1
 763 1472 l 1
 763 0 l 1
EndSplineSet
Validated: 1
Layer: 2
SplineSet
763 0 m 1,0,-1
 583 0 l 1,1,-1
 583 1135 l 1,2,3
 536 1059 536 1059 434 994.5 c 128,-1,4
 332 930 332 930 223 907 c 1,5,-1
 223 1104 l 1,6,7
 347 1161 347 1161 446.5 1258 c 128,-1,8
 546 1355 546 1355 583 1472 c 1,9,-1
 763 1472 l 1,10,-1
 763 0 l 1,0,-1
EndSplineSet
EndChar

StartChar: two
Encoding: 50 50 22
Width: 1139
Flags: W
HStem: 0 170<309 1031> 1312 170<393.032 741.849>
VStem: 96 180<1039 1199.46> 849 180<911.279 1209.67>
LayerCount: 3
Fore
SplineSet
1031 170 m 1
 1031 0 l 1
 62 0 l 1
 62 174 225 365 437 542 c 0
 655 724 849 855 849 1079 c 3
 849 1228 723 1312 568 1312 c 3
 395 1312 278 1220 276 1039 c 1
 96 1039 l 1
 96 1304 295 1482 572 1482 c 3
 831 1482 1029 1326 1029 1075 c 3
 1029 785 800 630 596 455 c 0
 493 366 381 295 309 170 c 1
 1031 170 l 1
EndSplineSet
Validated: 1
Layer: 2
SplineSet
1031 170 m 1,0,-1
 1031 0 l 1,1,-1
 62 0 l 1,2,3
 62 229 62 229 437 542 c 0,4,5
 460 561 460 561 516 607 c 128,-1,6
 572 653 572 653 594.5 672 c 128,-1,7
 617 691 617 691 661.5 731.5 c 128,-1,8
 706 772 706 772 726 795.5 c 128,-1,9
 746 819 746 819 775 857.5 c 128,-1,10
 804 896 804 896 816.5 927 c 128,-1,11
 829 958 829 958 839 998 c 128,-1,12
 849 1038 849 1038 849 1079 c 0,13,14
 849 1187 849 1187 769 1249.5 c 128,-1,15
 689 1312 689 1312 568 1312 c 0,16,17
 435 1312 435 1312 356 1242 c 128,-1,18
 277 1172 277 1172 276 1039 c 1,19,-1
 96 1039 l 1,20,21
 96 1236 96 1236 229.5 1359 c 128,-1,22
 363 1482 363 1482 572 1482 c 0,23,24
 770 1482 770 1482 899.5 1371 c 128,-1,25
 1029 1260 1029 1260 1029 1075 c 0,26,27
 1029 1022 1029 1022 1017.5 971.5 c 128,-1,28
 1006 921 1006 921 991 881.5 c 128,-1,29
 976 842 976 842 944.5 796.5 c 128,-1,30
 913 751 913 751 890 722.5 c 128,-1,31
 867 694 867 694 821.5 650.5 c 128,-1,32
 776 607 776 607 751 585.5 c 128,-1,33
 726 564 726 564 672 519 c 128,-1,34
 618 474 618 474 596 455 c 0,35,36
 573 435 573 435 520 392 c 128,-1,37
 467 349 467 349 438.5 324 c 128,-1,38
 410 299 410 299 372 256.5 c 128,-1,39
 334 214 334 214 309 170 c 1,40,-1
 1031 170 l 1,0,-1
EndSplineSet
EndChar

StartChar: three
Encoding: 51 51 23
Width: 1139
Flags: W
HStem: -11 170<388.554 722.802> 707 149<443.202 661.398> 1070 21G<104 295.5> 1312 170<391.573 710.566>
VStem: 86 180<280.678 427> 104 180<1070 1193.8> 794 180<974.064 1231.07> 866 180<296.456 596.991>
LayerCount: 3
Fore
SplineSet
86 427 m 1xf9
 266 427 l 1
 267 263 392 159 553 159 c 3
 724 159 866 274 866 445 c 3xf9
 866 612 744 707 576 707 c 3
 533 707 488 701 441 688 c 1
 441 858 l 1
 455 857 469 856 483 856 c 3
 651 856 794 953 794 1105 c 3
 794 1237 690 1312 549 1312 c 3
 396 1312 307 1228 284 1070 c 1
 104 1070 l 1
 110 1301 300 1482 545 1482 c 3
 776 1482 974 1328 974 1101 c 3xf6
 974 964 883 844 772 794 c 1
 949 749 1046 640 1046 449 c 3
 1046 181 832 -11 552 -11 c 3
 292 -11 89 170 86 427 c 1xf9
EndSplineSet
Validated: 1
Layer: 2
SplineSet
86 427 m 1,0,-1
 266 427 l 1,1,2
 267 306 267 306 348.5 232.5 c 128,-1,3
 430 159 430 159 553 159 c 0,4,5
 684 159 684 159 775 239 c 128,-1,6
 866 319 866 319 866 445 c 0,7,8
 866 568 866 568 785.5 637.5 c 128,-1,9
 705 707 705 707 576 707 c 0,10,11
 510 707 510 707 441 688 c 1,12,-1
 441 858 l 1,13,14
 469 856 469 856 483 856 c 0,15,16
 613 856 613 856 703.5 925 c 128,-1,17
 794 994 794 994 794 1105 c 0,18,19
 794 1202 794 1202 726 1257 c 128,-1,20
 658 1312 658 1312 549 1312 c 0,21,22
 319 1312 319 1312 284 1070 c 1,23,-1
 104 1070 l 1,24,25
 109 1244 109 1244 235.5 1363 c 128,-1,26
 362 1482 362 1482 545 1482 c 0,27,28
 661 1482 661 1482 758.5 1435 c 128,-1,29
 856 1388 856 1388 915 1299.5 c 128,-1,30
 974 1211 974 1211 974 1101 c 0,31,32
 974 1001 974 1001 916 917 c 128,-1,33
 858 833 858 833 772 794 c 1,34,35
 1046 724 1046 724 1046 449 c 0,36,37
 1046 249 1046 249 904.5 119 c 128,-1,38
 763 -11 763 -11 552 -11 c 0,39,40
 355 -11 355 -11 221.5 112.5 c 128,-1,41
 88 236 88 236 86 427 c 1,0,-1
EndSplineSet
EndChar

StartChar: four
Encoding: 52 52 24
Width: 1139
Flags: W
HStem: 0 21G<662 842> 352 170<251 662 842 1040> 1452 20G<648.611 842>
VStem: 662 180<0 352 522 1117>
DStem2: 26 522 251 522 0.556314 0.830972<125.171 848.244>
LayerCount: 3
Fore
SplineSet
662 0 m 1
 662 352 l 1
 26 352 l 1
 26 522 l 1
 662 1472 l 1
 842 1472 l 1
 842 522 l 1
 1040 522 l 1
 1040 352 l 1
 842 352 l 1
 842 0 l 1
 662 0 l 1
662 522 m 1
 662 1117 l 1
 251 522 l 1
 662 522 l 1
EndSplineSet
Validated: 1
Layer: 2
SplineSet
662 0 m 1,0,-1
 662 352 l 1,1,-1
 26 352 l 1,2,-1
 26 522 l 1,3,-1
 662 1472 l 1,4,-1
 842 1472 l 1,5,-1
 842 522 l 1,6,-1
 1040 522 l 1,7,-1
 1040 352 l 1,8,-1
 842 352 l 1,9,-1
 842 0 l 1,10,-1
 662 0 l 1,0,-1
662 522 m 1,11,-1
 662 1117 l 1,12,-1
 251 522 l 1,13,-1
 662 522 l 1,11,-1
EndSplineSet
EndChar

StartChar: five
Encoding: 53 53 25
Width: 1139
Flags: W
HStem: -11 170<390.461 723.732> 816 170<397.312 731.012> 1280 170<419 988>
VStem: 85 189<289.773 414> 877 180<317.039 671.634>
DStem2: 117 707 344 919 0.181331 0.983422<12.6362 74.708 249.648 618.263>
LayerCount: 3
Fore
SplineSet
85 414 m 1
 274 414 l 1
 303 248 388 159 556 159 c 3
 745 159 877 295 877 495 c 3
 877 695 752 816 553 816 c 3
 454 816 372 772 306 685 c 1
 117 707 l 1
 254 1450 l 1
 988 1450 l 1
 988 1280 l 1
 419 1280 l 1
 344 919 l 1
 397 963 484 986 591 986 c 3
 868 986 1057 795 1057 511 c 3
 1057 223 858 -11 556 -11 c 3
 280 -11 109 157 85 414 c 1
EndSplineSet
Validated: 1
Layer: 2
SplineSet
85 414 m 1,0,-1
 274 414 l 1,1,2
 296 287 296 287 364 223 c 128,-1,3
 432 159 432 159 556 159 c 0,4,5
 698 159 698 159 787.5 252 c 128,-1,6
 877 345 877 345 877 495 c 0,7,8
 877 644 877 644 790 730 c 128,-1,9
 703 816 703 816 553 816 c 0,10,11
 405 816 405 816 306 685 c 1,12,-1
 117 707 l 1,13,-1
 254 1450 l 1,14,-1
 988 1450 l 1,15,-1
 988 1280 l 1,16,-1
 419 1280 l 1,17,-1
 344 919 l 1,18,19
 425 986 425 986 591 986 c 0,20,21
 799 986 799 986 928 855 c 128,-1,22
 1057 724 1057 724 1057 511 c 0,23,24
 1057 367 1057 367 995.5 248.5 c 128,-1,25
 934 130 934 130 818.5 59.5 c 128,-1,26
 703 -11 703 -11 556 -11 c 0,27,28
 352 -11 352 -11 227.5 103.5 c 128,-1,29
 103 218 103 218 85 414 c 1,0,-1
EndSplineSet
EndChar

StartChar: six
Encoding: 54 54 26
Width: 1139
Flags: W
HStem: -11 170<438.181 734.024> 807 170<428.303 731.805> 1312 170<436.085 742.63>
VStem: 77 194<842 1087.93> 839 180<1103 1209.97> 865 180<294.771 663.193>
LayerCount: 3
Fore
SplineSet
1019 1103 m 1xf8
 839 1103 l 1xf8
 807 1235 736 1312 592 1312 c 3
 383 1312 276 1151 271 842 c 1
 346 934 443 977 594 977 c 3
 852 977 1045 766 1045 491 c 3xf4
 1045 216 865 -11 586 -11 c 3
 208 -11 77 292 77 701 c 3
 77 1168 216 1482 603 1482 c 3
 826 1482 1019 1327 1019 1103 c 1xf8
306 490 m 3
 306 308 407 159 585 159 c 3
 766 159 865 300 865 480 c 3xf4
 865 667 762 807 578 807 c 3
 406 807 306 670 306 490 c 3
EndSplineSet
Validated: 1
Layer: 2
SplineSet
1019 1103 m 1,0,-1
 839 1103 l 1,1,2
 814 1206 814 1206 755 1259 c 128,-1,3
 696 1312 696 1312 592 1312 c 0,4,5
 279 1312 279 1312 271 842 c 1,6,7
 328 912 328 912 405 944.5 c 128,-1,8
 482 977 482 977 594 977 c 0,9,10
 787 977 787 977 916 837.5 c 128,-1,11
 1045 698 1045 698 1045 491 c 0,12,13
 1045 353 1045 353 989.5 239.5 c 128,-1,14
 934 126 934 126 828 57.5 c 128,-1,15
 722 -11 722 -11 586 -11 c 0,16,17
 448 -11 448 -11 347.5 42 c 128,-1,18
 247 95 247 95 189 193 c 128,-1,19
 131 291 131 291 104 416.5 c 128,-1,20
 77 542 77 542 77 701 c 0,21,22
 77 1482 77 1482 603 1482 c 0,23,24
 774 1482 774 1482 896.5 1374.5 c 128,-1,25
 1019 1267 1019 1267 1019 1103 c 1,0,-1
306 490 m 3,26,27
 306 348 306 348 381 253.5 c 128,-1,28
 456 159 456 159 585 159 c 0,29,30
 717 159 717 159 791 249.5 c 128,-1,31
 865 340 865 340 865 480 c 0,32,33
 865 624 865 624 789 715.5 c 128,-1,34
 713 807 713 807 578 807 c 0,35,36
 452 807 452 807 379 718 c 128,-1,37
 306 629 306 629 306 490 c 3,26,27
EndSplineSet
EndChar

StartChar: seven
Encoding: 55 55 27
Width: 1139
Flags: W
HStem: 0 21G<331 511> 1280 170<97 833>
VStem: 331 180<0 333.32>
LayerCount: 3
Fore
SplineSet
1046 1280 m 1
 793 977 511 491 511 0 c 1
 331 0 l 1
 331 462 606 1002 833 1280 c 1
 97 1280 l 1
 97 1450 l 1
 1046 1450 l 1
 1046 1280 l 1
EndSplineSet
Validated: 1
Layer: 2
SplineSet
1046 1280 m 1,0,1
 944 1158 944 1158 854.5 1018.5 c 128,-1,2
 765 879 765 879 685 713.5 c 128,-1,3
 605 548 605 548 558 362 c 128,-1,4
 511 176 511 176 511 0 c 1,5,-1
 331 0 l 1,6,7
 331 166 331 166 377 354 c 128,-1,8
 423 542 423 542 497.5 711 c 128,-1,9
 572 880 572 880 658 1025.5 c 128,-1,10
 744 1171 744 1171 833 1280 c 1,11,-1
 97 1280 l 1,12,-1
 97 1450 l 1,13,-1
 1046 1450 l 1,14,-1
 1046 1280 l 1,0,1
EndSplineSet
EndChar

StartChar: eight
Encoding: 56 56 28
Width: 1139
Flags: W
HStem: -11 170<396.907 744.408> 699 181<417.108 717.823> 1312 170<404.649 722.597>
VStem: 83 180<285.345 584.794> 142 180<971.271 1237.11> 809 180<967.774 1230.55> 869 180<276.359 586.618>
LayerCount: 3
Fore
SplineSet
362 805 m 1xf2
 215 859 142 959 142 1104 c 3
 142 1340 328 1482 563 1482 c 3
 804 1482 989 1332 989 1099 c 3xec
 989 958 908 856 773 805 c 1
 948 743 1049 632 1049 434 c 3
 1049 152 854 -11 566 -11 c 3
 292 -11 83 164 83 439 c 3
 83 644 193 763 362 805 c 1xf2
322 1110 m 3
 322 972 424 880 567 880 c 3
 704 880 809 967 809 1100 c 3
 809 1236 708 1312 565 1312 c 3
 431 1312 322 1248 322 1110 c 3
263 438 m 3xf2
 263 268 398 159 568 159 c 3
 748 159 869 260 869 432 c 3
 869 612 740 699 562 699 c 3
 389 699 263 609 263 438 c 3xf2
EndSplineSet
Validated: 1
Layer: 2
SplineSet
362 805 m 1,0,1
 142 886 142 886 142 1104 c 0,2,3
 142 1277 142 1277 262 1379.5 c 128,-1,4
 382 1482 382 1482 563 1482 c 0,5,6
 747 1482 747 1482 868 1376.5 c 128,-1,7
 989 1271 989 1271 989 1099 c 0,8,9
 989 995 989 995 932.5 919.5 c 128,-1,10
 876 844 876 844 773 805 c 1,11,12
 909 757 909 757 979 667.5 c 128,-1,13
 1049 578 1049 578 1049 434 c 0,14,15
 1049 225 1049 225 917 107 c 128,-1,16
 785 -11 785 -11 566 -11 c 0,17,18
 357 -11 357 -11 220 112.5 c 128,-1,19
 83 236 83 236 83 439 c 0,20,21
 83 588 83 588 157 680 c 128,-1,22
 231 772 231 772 362 805 c 1,0,1
322 1110 m 3,23,24
 322 1007 322 1007 390.5 943.5 c 128,-1,25
 459 880 459 880 567 880 c 0,26,27
 671 880 671 880 740 941 c 128,-1,28
 809 1002 809 1002 809 1100 c 0,29,30
 809 1200 809 1200 742 1256 c 128,-1,31
 675 1312 675 1312 565 1312 c 0,32,33
 458 1312 458 1312 390 1260.5 c 128,-1,34
 322 1209 322 1209 322 1110 c 3,23,24
263 438 m 131,-1,36
 263 313 263 313 350.5 236 c 128,-1,37
 438 159 438 159 568 159 c 0,38,39
 705 159 705 159 787 232 c 128,-1,40
 869 305 869 305 869 432 c 0,41,42
 869 563 869 563 785 631 c 128,-1,43
 701 699 701 699 562 699 c 0,44,45
 428 699 428 699 345.5 631 c 128,-1,35
 263 563 263 563 263 438 c 131,-1,36
EndSplineSet
EndChar

StartChar: nine
Encoding: 57 57 29
Width: 1139
Flags: W
HStem: -11 170<415.105 724.684> 495 170<429.021 734.346> 1312 170<422.427 718.386>
VStem: 113 180<808.187 1175.99> 138 180<261.803 369> 887 194<395.1 630>
LayerCount: 3
Fore
SplineSet
138 369 m 1xec
 318 369 l 1xec
 350 237 422 159 566 159 c 3
 780 159 882 321 887 630 c 1
 812 538 715 495 564 495 c 3
 316 495 113 704 113 981 c 3xf4
 113 1260 294 1482 572 1482 c 3
 936 1482 1081 1188 1081 771 c 3
 1081 332 952 -11 555 -11 c 3
 332 -11 138 145 138 369 c 1xec
852 982 m 3
 852 1167 753 1312 575 1312 c 3
 396 1312 293 1178 293 992 c 3xf4
 293 804 399 665 582 665 c 3
 760 665 852 802 852 982 c 3
EndSplineSet
Validated: 1
Layer: 2
SplineSet
138 369 m 1,0,-1
 318 369 l 1,1,2
 343 266 343 266 402.5 212.5 c 128,-1,3
 462 159 462 159 566 159 c 0,4,5
 879 159 879 159 887 630 c 1,6,7
 830 560 830 560 753 527.5 c 128,-1,8
 676 495 676 495 564 495 c 0,9,10
 376 495 376 495 244.5 635 c 128,-1,11
 113 775 113 775 113 981 c 0,12,13
 113 1120 113 1120 169 1234 c 128,-1,14
 225 1348 225 1348 330.5 1415 c 128,-1,15
 436 1482 436 1482 572 1482 c 0,16,17
 705 1482 705 1482 804.5 1430 c 128,-1,18
 904 1378 904 1378 963.5 1282 c 128,-1,19
 1023 1186 1023 1186 1052 1058.5 c 128,-1,20
 1081 931 1081 931 1081 771 c 0,21,22
 1081 635 1081 635 1064.5 521 c 128,-1,23
 1048 407 1048 407 1009.5 306.5 c 128,-1,24
 971 206 971 206 911.5 137 c 128,-1,25
 852 68 852 68 761.5 28.5 c 128,-1,26
 671 -11 671 -11 555 -11 c 0,27,28
 384 -11 384 -11 261 97 c 128,-1,29
 138 205 138 205 138 369 c 1,0,-1
852 982 m 3,30,31
 852 1126 852 1126 778.5 1219 c 128,-1,32
 705 1312 705 1312 575 1312 c 0,33,34
 443 1312 443 1312 368 1223.5 c 128,-1,35
 293 1135 293 1135 293 992 c 0,36,37
 293 848 293 848 370.5 756.5 c 128,-1,38
 448 665 448 665 582 665 c 0,39,40
 711 665 711 665 781.5 753.5 c 128,-1,41
 852 842 852 842 852 982 c 3,30,31
EndSplineSet
EndChar

StartChar: colon
Encoding: 58 58 30
Width: 569
Flags: W
HStem: 0 205<185 390> 857 205<185 390>
VStem: 185 205<0 205 857 1062>
LayerCount: 3
Fore
SplineSet
185 857 m 1
 185 1062 l 1
 390 1062 l 1
 390 857 l 1
 185 857 l 1
185 0 m 1
 185 205 l 1
 390 205 l 1
 390 0 l 1
 185 0 l 1
EndSplineSet
Validated: 1
Layer: 2
SplineSet
185 857 m 1,0,-1
 185 1062 l 1,1,-1
 390 1062 l 1,2,-1
 390 857 l 1,3,-1
 185 857 l 1,0,-1
185 0 m 1,4,-1
 185 205 l 1,5,-1
 390 205 l 1,6,-1
 390 0 l 1,7,-1
 185 0 l 1,4,-1
EndSplineSet
EndChar

StartChar: semicolon
Encoding: 59 59 31
Width: 569
Flags: W
HStem: 0 205<182 284> 857 205<182 387>
VStem: 182 205<0 205 857 1062> 284 103<-159.229 0>
LayerCount: 3
Fore
SplineSet
182 857 m 1xe0
 182 1062 l 1
 387 1062 l 1
 387 857 l 1
 182 857 l 1xe0
182 0 m 1
 182 205 l 1
 387 205 l 1
 387 0 l 2xe0
 387 -150 328 -245 220 -290 c 1
 170 -213 l 1
 250 -178 281 -110 284 0 c 1xd0
 182 0 l 1
EndSplineSet
Validated: 1
Layer: 2
SplineSet
182 857 m 1,0,-1
 182 1062 l 1,1,-1
 387 1062 l 1,2,-1
 387 857 l 1,3,-1
 182 857 l 1,0,-1
182 0 m 1,4,-1
 182 205 l 1,5,-1
 387 205 l 1,6,-1
 387 0 l 2,7,8
 387 -220 387 -220 220 -290 c 1,9,-1
 170 -213 l 1,10,11
 229 -187 229 -187 255.5 -136 c 128,-1,12
 282 -85 282 -85 284 0 c 1,13,-1
 182 0 l 1,4,-1
EndSplineSet
EndChar

StartChar: less
Encoding: 60 60 32
Width: 1196
Flags: W
DStem2: 112 809 313 724 0.921242 0.38899<152.105 984.383> 313 724 112 641 0.919536 -0.393005<0 833.412>
LayerCount: 3
Fore
SplineSet
112 641 m 1
 112 809 l 1
 1083 1219 l 1
 1083 1040 l 1
 313 724 l 1
 1083 405 l 1
 1083 226 l 1
 112 641 l 1
EndSplineSet
Validated: 1
Layer: 2
SplineSet
112 641 m 1,0,-1
 112 809 l 1,1,-1
 1083 1219 l 1,2,-1
 1083 1040 l 1,3,-1
 313 724 l 1,4,-1
 1083 405 l 1,5,-1
 1083 226 l 1,6,-1
 112 641 l 1,0,-1
EndSplineSet
EndChar

StartChar: equal
Encoding: 61 61 33
Width: 1196
Flags: W
HStem: 416 170<114 1082> 861 170<114 1082>
LayerCount: 3
Fore
SplineSet
1082 861 m 1
 114 861 l 1
 114 1031 l 1
 1082 1031 l 1
 1082 861 l 1
1082 416 m 1
 114 416 l 1
 114 586 l 1
 1082 586 l 1
 1082 416 l 1
EndSplineSet
Validated: 1
Layer: 2
SplineSet
1082 861 m 1,0,-1
 114 861 l 1,1,-1
 114 1031 l 1,2,-1
 1082 1031 l 1,3,-1
 1082 861 l 1,0,-1
1082 416 m 1,4,-1
 114 416 l 1,5,-1
 114 586 l 1,6,-1
 1082 586 l 1,7,-1
 1082 416 l 1,4,-1
EndSplineSet
EndChar

StartChar: greater
Encoding: 62 62 34
Width: 1196
Flags: W
DStem2: 112 1219 112 1040 0.921242 -0.38899<69.6292 900.985> 112 405 112 226 0.919536 0.393005<0 832.492>
LayerCount: 3
Fore
SplineSet
1083 641 m 1
 112 226 l 1
 112 405 l 1
 881 724 l 1
 112 1040 l 1
 112 1219 l 1
 1083 809 l 1
 1083 641 l 1
EndSplineSet
Validated: 1
Layer: 2
SplineSet
1083 641 m 1,0,-1
 112 226 l 1,1,-1
 112 405 l 1,2,-1
 881 724 l 1,3,-1
 112 1040 l 1,4,-1
 112 1219 l 1,5,-1
 1083 809 l 1,6,-1
 1083 641 l 1,0,-1
EndSplineSet
EndChar

StartChar: question
Encoding: 63 63 35
Width: 1139
Flags: W
HStem: 0 205<461 666> 1334 170<404.815 735.651>
VStem: 90 185<1046 1183.33> 461 205<0 205 361 581.476> 860 180<949.481 1218.38>
LayerCount: 3
Fore
SplineSet
90 1046 m 1
 104 1302 280 1504 565 1504 c 3
 834 1504 1040 1330 1040 1105 c 3
 1040 745 652 758 652 361 c 1
 472 361 l 1
 474 436 l 2
 483 793 860 822 860 1088 c 3
 860 1202 763 1334 568 1334 c 3
 391 1334 301 1222 275 1046 c 1
 90 1046 l 1
461 0 m 1
 461 205 l 1
 666 205 l 1
 666 0 l 1
 461 0 l 1
EndSplineSet
Validated: 1
Layer: 2
SplineSet
90 1046 m 1,0,1
 101 1244 101 1244 229 1374 c 128,-1,2
 357 1504 357 1504 565 1504 c 0,3,4
 767 1504 767 1504 903.5 1389 c 128,-1,5
 1040 1274 1040 1274 1040 1105 c 0,6,7
 1040 1032 1040 1032 1018.5 972 c 128,-1,8
 997 912 997 912 963 869 c 128,-1,9
 929 826 929 826 887.5 786.5 c 128,-1,10
 846 747 846 747 804.5 706.5 c 128,-1,11
 763 666 763 666 729 620 c 128,-1,12
 695 574 695 574 673.5 507.5 c 128,-1,13
 652 441 652 441 652 361 c 1,14,-1
 472 361 l 1,15,-1
 474 436 l 2,16,17
 476 508 476 508 498 570 c 128,-1,18
 520 632 520 632 554.5 675.5 c 128,-1,19
 589 719 589 719 629.5 758 c 128,-1,20
 670 797 670 797 711 832.5 c 128,-1,21
 752 868 752 868 785 904.5 c 128,-1,22
 818 941 818 941 839 987.5 c 128,-1,23
 860 1034 860 1034 860 1088 c 0,24,25
 860 1132 860 1132 841.5 1175 c 128,-1,26
 823 1218 823 1218 788 1254 c 128,-1,27
 753 1290 753 1290 695.5 1312 c 128,-1,28
 638 1334 638 1334 568 1334 c 0,29,30
 318 1334 318 1334 275 1046 c 1,31,-1
 90 1046 l 1,0,1
461 0 m 1,32,-1
 461 205 l 1,33,-1
 666 205 l 1,34,-1
 666 0 l 1,35,-1
 461 0 l 1,32,-1
EndSplineSet
EndChar

StartChar: at
Encoding: 64 64 36
Width: 2079
Flags: W
HStem: -431 148<798.113 1442.15> -11 148<778.335 1029.86 1277 1535.96> 947 148<886.852 1146.72> 1042 20G<1341.52 1526> 1345 148<814.927 1361.97>
VStem: 111 180<190.423 785.026> 502 180<252.341 678.906> 1776 180<487.505 953.253>
LayerCount: 3
Fore
SplineSet
1354 -11 m 0xdf
 1200 -11 1168 47 1161 121 c 1
 1090 38 987 -11 854 -11 c 3
 643 -11 502 199 502 461 c 3
 502 805 763 1095 1011 1095 c 3xef
 1153 1095 1254 1035 1313 938 c 1
 1347 1062 l 1
 1526 1062 l 1
 1380 379 l 2
 1367 315 1358 265 1352 229 c 1
 1355 173 1400 137 1422 137 c 3
 1605 137 1776 482 1776 716 c 3
 1776 1102 1481 1345 1093 1345 c 3
 599 1345 291 975 291 485 c 3
 291 -11 594 -283 1120 -283 c 3
 1555 -283 1751 -87 1824 19 c 1
 2005 19 l 1
 1873 -253 1544 -431 1123 -431 c 3
 527 -431 111 -124 111 469 c 3
 111 1061 507 1493 1102 1493 c 3
 1586 1493 1956 1181 1956 713 c 3
 1956 365 1687 -11 1354 -11 c 0xdf
682 453 m 3
 682 271 766 137 891 137 c 3
 1107 137 1243 421 1243 649 c 3
 1243 882 1112 947 1024 947 c 3
 795 947 682 640 682 453 c 3
EndSplineSet
Validated: 1
Layer: 2
SplineSet
1354 -11 m 0,0,1
 1248 -11 1248 -11 1207.5 23 c 128,-1,2
 1167 57 1167 57 1161 121 c 1,3,4
 1048 -11 1048 -11 854 -11 c 0,5,6
 751 -11 751 -11 670 52.5 c 128,-1,7
 589 116 589 116 545.5 223 c 128,-1,8
 502 330 502 330 502 461 c 0,9,10
 502 586 502 586 547 704.5 c 128,-1,11
 592 823 592 823 663.5 907.5 c 128,-1,12
 735 992 735 992 827 1043.5 c 128,-1,13
 919 1095 919 1095 1011 1095 c 0,14,15
 1218 1095 1218 1095 1313 938 c 1,16,-1
 1347 1062 l 1,17,-1
 1526 1062 l 1,18,-1
 1380 379 l 2,19,20
 1363 297 1363 297 1352 229 c 1,21,22
 1354 191 1354 191 1378 164 c 128,-1,23
 1402 137 1402 137 1422 137 c 0,24,25
 1509 137 1509 137 1593 233 c 128,-1,26
 1677 329 1677 329 1726.5 463.5 c 128,-1,27
 1776 598 1776 598 1776 716 c 0,28,29
 1776 905 1776 905 1686 1049 c 128,-1,30
 1596 1193 1596 1193 1441.5 1269 c 128,-1,31
 1287 1345 1287 1345 1093 1345 c 0,32,33
 851 1345 851 1345 667.5 1232 c 128,-1,34
 484 1119 484 1119 387.5 924.5 c 128,-1,35
 291 730 291 730 291 485 c 0,36,37
 291 115 291 115 507.5 -84 c 128,-1,38
 724 -283 724 -283 1120 -283 c 0,39,40
 1244 -283 1244 -283 1353 -261 c 128,-1,41
 1462 -239 1462 -239 1535 -207.5 c 128,-1,42
 1608 -176 1608 -176 1669.5 -132.5 c 128,-1,43
 1731 -89 1731 -89 1764.5 -53.5 c 128,-1,44
 1798 -18 1798 -18 1824 19 c 1,45,-1
 2005 19 l 1,46,47
 1905 -187 1905 -187 1670 -309 c 128,-1,48
 1435 -431 1435 -431 1123 -431 c 0,49,50
 898 -431 898 -431 713 -373 c 128,-1,51
 528 -315 528 -315 393.5 -204 c 128,-1,52
 259 -93 259 -93 185 79 c 128,-1,53
 111 251 111 251 111 469 c 0,54,55
 111 689 111 689 183 878.5 c 128,-1,56
 255 1068 255 1068 383 1203.5 c 128,-1,57
 511 1339 511 1339 696.5 1416 c 128,-1,58
 882 1493 882 1493 1102 1493 c 0,59,60
 1343 1493 1343 1493 1537 1396.5 c 128,-1,61
 1731 1300 1731 1300 1843.5 1121 c 128,-1,62
 1956 942 1956 942 1956 713 c 0,63,64
 1956 584 1956 584 1908 453.5 c 128,-1,65
 1860 323 1860 323 1780.5 220.5 c 128,-1,66
 1701 118 1701 118 1588 53.5 c 128,-1,67
 1475 -11 1475 -11 1354 -11 c 0,0,1
682 453 m 3,68,69
 682 315 682 315 740 226 c 128,-1,70
 798 137 798 137 891 137 c 0,71,72
 969 137 969 137 1036.5 185 c 128,-1,73
 1104 233 1104 233 1148.5 308 c 128,-1,74
 1193 383 1193 383 1218 472.5 c 128,-1,75
 1243 562 1243 562 1243 649 c 0,76,77
 1243 732 1243 732 1221.5 793 c 128,-1,78
 1200 854 1200 854 1165.5 886 c 128,-1,79
 1131 918 1131 918 1095.5 932.5 c 128,-1,80
 1060 947 1060 947 1024 947 c 0,81,82
 943 947 943 947 875 896.5 c 128,-1,83
 807 846 807 846 766.5 769.5 c 128,-1,84
 726 693 726 693 704 610 c 128,-1,85
 682 527 682 527 682 453 c 3,68,69
EndSplineSet
EndChar

StartChar: A
Encoding: 65 65 37
Width: 1366
Flags: W
HStem: 0 21G<1 213.966 1151.03 1364> 477 170<464 901> 1430 20G<572.014 792.986>
DStem2: 1 0 206 0 0.370838 0.928697<76.0219 589.47 772.565 1360.48> 785 1450 682 1193 0.370838 -0.928697<200.479 788.761 971.857 1485.3>
LayerCount: 3
Fore
SplineSet
1364 0 m 1
 1159 0 l 1
 969 477 l 1
 396 477 l 1
 206 0 l 1
 1 0 l 1
 580 1450 l 1
 785 1450 l 1
 1364 0 l 1
682 1193 m 1
 464 647 l 1
 901 647 l 1
 682 1193 l 1
EndSplineSet
Validated: 1
Layer: 2
SplineSet
1364 0 m 1,0,-1
 1159 0 l 1,1,-1
 969 477 l 1,2,-1
 396 477 l 1,3,-1
 206 0 l 1,4,-1
 1 0 l 1,5,-1
 580 1450 l 1,6,-1
 785 1450 l 1,7,-1
 1364 0 l 1,0,-1
682 1193 m 1,8,-1
 464 647 l 1,9,-1
 901 647 l 1,10,-1
 682 1193 l 1,8,-1
EndSplineSet
EndChar

StartChar: B
Encoding: 66 66 38
Width: 1366
Flags: W
HStem: 0 170<344 953.151> 671 170<344 911.533> 1280 170<344 913.817>
VStem: 164 180<170 671 841 1280> 1006 180<924.311 1195.01> 1077 180<273.931 563.313>
LayerCount: 3
Fore
SplineSet
981 772 m 1xf8
 1189 711 1257 561 1257 417 c 3xf4
 1257 136 1055 0 709 0 c 2
 164 0 l 1
 164 1450 l 1
 709 1450 l 2
 995 1450 1186 1319 1186 1083 c 3
 1186 1004 1153 857 981 772 c 1xf8
344 841 m 1
 683 841 l 2
 890 841 1006 899 1006 1060 c 3xf8
 1006 1249 845 1280 709 1280 c 2
 344 1280 l 1
 344 841 l 1
344 170 m 1
 709 170 l 2
 1010 170 1077 291 1077 417 c 3xf4
 1077 601 940 671 683 671 c 2
 344 671 l 1
 344 170 l 1
EndSplineSet
Validated: 1
Layer: 2
SplineSet
981 772 m 1,0,1
 1126 729 1126 729 1191.5 633.5 c 128,-1,2
 1257 538 1257 538 1257 417 c 0,3,4
 1257 209 1257 209 1115 104.5 c 128,-1,5
 973 0 973 0 709 0 c 2,6,-1
 164 0 l 1,7,-1
 164 1450 l 1,8,-1
 709 1450 l 2,9,10
 927 1450 927 1450 1056.5 1353.5 c 128,-1,11
 1186 1257 1186 1257 1186 1083 c 0,12,13
 1186 1049 1186 1049 1177.5 1012 c 128,-1,14
 1169 975 1169 975 1148.5 930.5 c 128,-1,15
 1128 886 1128 886 1085 844 c 128,-1,16
 1042 802 1042 802 981 772 c 1,0,1
344 841 m 1,17,-1
 683 841 l 2,18,19
 844 841 844 841 925 892 c 128,-1,20
 1006 943 1006 943 1006 1060 c 0,21,22
 1006 1280 1006 1280 709 1280 c 2,23,-1
 344 1280 l 1,24,-1
 344 841 l 1,17,-1
344 170 m 1,25,-1
 709 170 l 2,26,27
 796 170 796 170 862.5 184 c 128,-1,28
 929 198 929 198 969 220.5 c 128,-1,29
 1009 243 1009 243 1034 276 c 128,-1,30
 1059 309 1059 309 1068 342.5 c 128,-1,31
 1077 376 1077 376 1077 417 c 0,32,33
 1077 552 1077 552 979 611.5 c 128,-1,34
 881 671 881 671 683 671 c 2,35,-1
 344 671 l 1,36,-1
 344 170 l 1,25,-1
EndSplineSet
EndChar

StartChar: C
Encoding: 67 67 39
Width: 1479
Flags: W
HStem: -11 170<579.415 995.563> 1312 170<578.108 997.452>
VStem: 102 180<497.648 997.016> 1185 188<1055 1145.26> 1210 188<353.725 479>
LayerCount: 3
Fore
SplineSet
788 159 m 3xf0
 1024 159 1193 299 1210 479 c 1
 1398 479 l 1xe8
 1306 116 1054 -11 791 -11 c 3
 384 -11 102 258 102 747 c 3
 102 1193 389 1482 794 1482 c 3
 1141 1482 1311 1271 1373 1055 c 1
 1185 1055 l 1
 1123 1257 935 1312 790 1312 c 3
 472 1312 282 1067 282 748 c 3
 282 524 397 159 788 159 c 3xf0
EndSplineSet
Validated: 1
Layer: 2
SplineSet
788 159 m 3,0,1
 962 159 962 159 1079.5 250.5 c 128,-1,2
 1197 342 1197 342 1210 479 c 1,3,-1
 1398 479 l 1,4,5
 1371 373 1371 373 1324.5 289 c 128,-1,6
 1278 205 1278 205 1220.5 149.5 c 128,-1,7
 1163 94 1163 94 1091.5 57.5 c 128,-1,8
 1020 21 1020 21 946 5 c 128,-1,9
 872 -11 872 -11 791 -11 c 0,10,11
 479 -11 479 -11 290.5 188.5 c 128,-1,12
 102 388 102 388 102 747 c 0,13,14
 102 967 102 967 190.5 1134.5 c 128,-1,15
 279 1302 279 1302 436 1392 c 128,-1,16
 593 1482 593 1482 794 1482 c 0,17,18
 919 1482 919 1482 1021 1446.5 c 128,-1,19
 1123 1411 1123 1411 1191.5 1348.5 c 128,-1,20
 1260 1286 1260 1286 1304 1213.5 c 128,-1,21
 1348 1141 1348 1141 1373 1055 c 1,22,-1
 1185 1055 l 1,23,24
 1163 1127 1163 1127 1118.5 1179.5 c 128,-1,25
 1074 1232 1074 1232 1017.5 1259.5 c 128,-1,26
 961 1287 961 1287 905 1299.5 c 128,-1,27
 849 1312 849 1312 790 1312 c 0,28,29
 635 1312 635 1312 518.5 1237.5 c 128,-1,30
 402 1163 402 1163 342 1035.5 c 128,-1,31
 282 908 282 908 282 748 c 0,32,33
 282 676 282 676 296.5 600.5 c 128,-1,34
 311 525 311 525 348 444.5 c 128,-1,35
 385 364 385 364 440.5 301.5 c 128,-1,36
 496 239 496 239 586 199 c 128,-1,37
 676 159 676 159 788 159 c 3,0,1
EndSplineSet
EndChar

StartChar: D
Encoding: 68 68 40
Width: 1479
Flags: W
HStem: 0 170<348 920.634> 1280 170<348 908.268>
VStem: 168 180<170 1280> 1200 180<464.523 995.687>
LayerCount: 3
Fore
SplineSet
1380 733 m 3
 1380 147 1054 0 697 0 c 2
 168 0 l 1
 168 1450 l 1
 673 1450 l 2
 1239 1450 1380 1142 1380 733 c 3
1200 736 m 3
 1200 1169 936 1280 670 1280 c 2
 348 1280 l 1
 348 170 l 1
 675 170 l 2
 980 170 1200 325 1200 736 c 3
EndSplineSet
Validated: 1
Layer: 2
SplineSet
1380 733 m 3,0,1
 1380 0 1380 0 697 0 c 2,2,-1
 168 0 l 1,3,-1
 168 1450 l 1,4,-1
 673 1450 l 2,5,6
 839 1450 839 1450 963.5 1414 c 128,-1,7
 1088 1378 1088 1378 1166.5 1316 c 128,-1,8
 1245 1254 1245 1254 1293.5 1161 c 128,-1,9
 1342 1068 1342 1068 1361 965.5 c 128,-1,10
 1380 863 1380 863 1380 733 c 3,0,1
1200 736 m 3,11,12
 1200 862 1200 862 1170 958.5 c 128,-1,13
 1140 1055 1140 1055 1090.5 1115 c 128,-1,14
 1041 1175 1041 1175 971 1213 c 128,-1,15
 901 1251 901 1251 828 1265.5 c 128,-1,16
 755 1280 755 1280 670 1280 c 2,17,-1
 348 1280 l 1,18,-1
 348 170 l 1,19,-1
 675 170 l 2,20,21
 793 170 793 170 886.5 201.5 c 128,-1,22
 980 233 980 233 1051.5 298.5 c 128,-1,23
 1123 364 1123 364 1161.5 475 c 128,-1,24
 1200 586 1200 586 1200 736 c 3,11,12
EndSplineSet
EndChar

StartChar: E
Encoding: 69 69 41
Width: 1322
Flags: W
HStem: 0 170<348 1228> 651 170<348 1027> 1280 170<348 1228>
VStem: 168 180<170 651 821 1280>
LayerCount: 3
Fore
SplineSet
168 0 m 1
 168 1450 l 1
 1228 1450 l 1
 1228 1280 l 1
 348 1280 l 1
 348 821 l 1
 1027 821 l 1
 1027 651 l 1
 348 651 l 1
 348 170 l 1
 1228 170 l 1
 1228 0 l 1
 168 0 l 1
EndSplineSet
Validated: 1
Layer: 2
SplineSet
168 0 m 1,0,-1
 168 1450 l 1,1,-1
 1228 1450 l 1,2,-1
 1228 1280 l 1,3,-1
 348 1280 l 1,4,-1
 348 821 l 1,5,-1
 1027 821 l 1,6,-1
 1027 651 l 1,7,-1
 348 651 l 1,8,-1
 348 170 l 1,9,-1
 1228 170 l 1,10,-1
 1228 0 l 1,11,-1
 168 0 l 1,0,-1
EndSplineSet
EndChar

StartChar: F
Encoding: 70 70 42
Width: 1251
Flags: W
HStem: 0 21G<168 348> 651 170<348 1009> 1280 170<348 1157>
VStem: 168 180<0 651 821 1280>
LayerCount: 3
Fore
SplineSet
168 0 m 1
 168 1450 l 1
 1157 1450 l 1
 1157 1280 l 1
 348 1280 l 1
 348 821 l 1
 1009 821 l 1
 1009 651 l 1
 348 651 l 1
 348 0 l 1
 168 0 l 1
EndSplineSet
Validated: 1
Layer: 2
SplineSet
168 0 m 1,0,-1
 168 1450 l 1,1,-1
 1157 1450 l 1,2,-1
 1157 1280 l 1,3,-1
 348 1280 l 1,4,-1
 348 821 l 1,5,-1
 1009 821 l 1,6,-1
 1009 651 l 1,7,-1
 348 651 l 1,8,-1
 348 0 l 1,9,-1
 168 0 l 1,0,-1
EndSplineSet
EndChar

StartChar: G
Encoding: 71 71 43
Width: 1479
Flags: W
HStem: -11 170<580.254 976.456> 514 170<905 1212> 1312 170<577.179 1000.06>
VStem: 102 180<499.218 997.67> 1185 188<1055 1145.26> 1212 192<367.844 514>
LayerCount: 3
Fore
SplineSet
282 748 m 3xf8
 282 523 396 159 788 159 c 3
 982 159 1212 297 1212 514 c 1
 905 514 l 1
 905 684 l 1
 1404 684 l 1xf4
 1404 192 1212 -11 791 -11 c 3
 432 -11 102 214 102 747 c 3
 102 1193 384 1482 794 1482 c 3
 1141 1482 1311 1271 1373 1055 c 1
 1185 1055 l 1
 1145 1189 1031 1312 790 1312 c 3
 472 1312 282 1070 282 748 c 3xf8
EndSplineSet
Validated: 1
Layer: 2
SplineSet
282 748 m 3,0,1
 282 697 282 697 289.5 644 c 128,-1,2
 297 591 297 591 314 533 c 128,-1,3
 331 475 331 475 357.5 422 c 128,-1,4
 384 369 384 369 424.5 320.5 c 128,-1,5
 465 272 465 272 516 236.5 c 128,-1,6
 567 201 567 201 637 180 c 128,-1,7
 707 159 707 159 788 159 c 0,8,9
 861 159 861 159 936 184.5 c 128,-1,10
 1011 210 1011 210 1072.5 254.5 c 128,-1,11
 1134 299 1134 299 1173 367.5 c 128,-1,12
 1212 436 1212 436 1212 514 c 1,13,-1
 905 514 l 1,14,-1
 905 684 l 1,15,-1
 1404 684 l 1,16,17
 1404 318 1404 318 1256.5 153.5 c 128,-1,18
 1109 -11 1109 -11 791 -11 c 0,19,20
 681 -11 681 -11 581.5 16 c 128,-1,21
 482 43 482 43 393.5 102.5 c 128,-1,22
 305 162 305 162 241 249 c 128,-1,23
 177 336 177 336 139.5 464 c 128,-1,24
 102 592 102 592 102 747 c 0,25,26
 102 912 102 912 152.5 1049.5 c 128,-1,27
 203 1187 203 1187 294 1282 c 128,-1,28
 385 1377 385 1377 513.5 1429.5 c 128,-1,29
 642 1482 642 1482 794 1482 c 0,30,31
 919 1482 919 1482 1021 1446.5 c 128,-1,32
 1123 1411 1123 1411 1191.5 1348.5 c 128,-1,33
 1260 1286 1260 1286 1304 1213.5 c 128,-1,34
 1348 1141 1348 1141 1373 1055 c 1,35,-1
 1185 1055 l 1,36,37
 1151 1168 1151 1168 1054.5 1240 c 128,-1,38
 958 1312 958 1312 790 1312 c 0,39,40
 635 1312 635 1312 518.5 1238 c 128,-1,41
 402 1164 402 1164 342 1037 c 128,-1,42
 282 910 282 910 282 748 c 3,0,1
EndSplineSet
EndChar

StartChar: H
Encoding: 72 72 44
Width: 1479
Flags: W
HStem: 0 21G<164 344 1134 1314> 673 170<344 1134> 1430 20G<164 344 1134 1314>
VStem: 164 180<0 673 843 1450> 1134 180<0 673 843 1450>
LayerCount: 3
Fore
SplineSet
164 0 m 1
 164 1450 l 1
 344 1450 l 1
 344 843 l 1
 1134 843 l 1
 1134 1450 l 1
 1314 1450 l 1
 1314 0 l 1
 1134 0 l 1
 1134 673 l 1
 344 673 l 1
 344 0 l 1
 164 0 l 1
EndSplineSet
Validated: 1
Layer: 2
SplineSet
164 0 m 1,0,-1
 164 1450 l 1,1,-1
 344 1450 l 1,2,-1
 344 843 l 1,3,-1
 1134 843 l 1,4,-1
 1134 1450 l 1,5,-1
 1314 1450 l 1,6,-1
 1314 0 l 1,7,-1
 1134 0 l 1,8,-1
 1134 673 l 1,9,-1
 344 673 l 1,10,-1
 344 0 l 1,11,-1
 164 0 l 1,0,-1
EndSplineSet
EndChar

StartChar: I
Encoding: 73 73 45
Width: 650
Flags: W
HStem: 0 170<25 235 415 625> 1280 170<25 235 415 625>
VStem: 235 180<170 1280>
LayerCount: 3
Fore
SplineSet
625 170 m 1
 625 0 l 1
 25 0 l 1
 25 170 l 1
 235 170 l 1
 235 1280 l 1
 25 1280 l 1
 25 1450 l 1
 625 1450 l 1
 625 1280 l 1
 415 1280 l 1
 415 170 l 1
 625 170 l 1
EndSplineSet
Validated: 1
Layer: 2
SplineSet
625 170 m 1,0,-1
 625 0 l 1,1,-1
 25 0 l 1,2,-1
 25 170 l 1,3,-1
 235 170 l 1,4,-1
 235 1280 l 1,5,-1
 25 1280 l 1,6,-1
 25 1450 l 1,7,-1
 625 1450 l 1,8,-1
 625 1280 l 1,9,-1
 415 1280 l 1,10,-1
 415 170 l 1,11,-1
 625 170 l 1,0,-1
EndSplineSet
EndChar

StartChar: J
Encoding: 74 74 46
Width: 1024
Flags: W
HStem: -11 170<331.137 605.525> 1280 170<408 685>
VStem: 64 180<251.534 454> 685 180<246.773 1280>
LayerCount: 3
Fore
SplineSet
865 1450 m 1
 865 455 l 2
 865 107 712 -11 463 -11 c 3
 126 -11 64 215 64 454 c 1
 244 454 l 1
 244 243 328 159 462 159 c 3
 616 159 685 255 685 407 c 2
 685 1280 l 1
 408 1280 l 1
 408 1450 l 1
 865 1450 l 1
EndSplineSet
Validated: 1
Layer: 2
SplineSet
865 1450 m 1,0,-1
 865 455 l 2,1,2
 865 205 865 205 762.5 97 c 128,-1,3
 660 -11 660 -11 463 -11 c 0,4,5
 365 -11 365 -11 292.5 15 c 128,-1,6
 220 41 220 41 177 83 c 128,-1,7
 134 125 134 125 108 188 c 128,-1,8
 82 251 82 251 73 313.5 c 128,-1,9
 64 376 64 376 64 454 c 1,10,-1
 244 454 l 1,11,12
 244 159 244 159 462 159 c 0,13,14
 574 159 574 159 629.5 224 c 128,-1,15
 685 289 685 289 685 407 c 2,16,-1
 685 1280 l 1,17,-1
 408 1280 l 1,18,-1
 408 1450 l 1,19,-1
 865 1450 l 1,0,-1
EndSplineSet
EndChar

StartChar: K
Encoding: 75 75 47
Width: 1366
Flags: W
HStem: 0 21G<150 330 1094.07 1346> 1430 20G<150 330 1049.68 1316>
VStem: 150 180<0 539 785 1450>
DStem2: 330 785 479 670 0.734489 0.67862<0 31.3976 219.908 996.273>
LayerCount: 3
Fore
SplineSet
150 0 m 1
 150 1450 l 1
 330 1450 l 1
 330 785 l 1
 1072 1450 l 1
 1316 1450 l 1
 610 806 l 1
 1346 0 l 1
 1113 0 l 1
 479 670 l 1
 330 539 l 1
 330 0 l 1
 150 0 l 1
EndSplineSet
Validated: 1
Layer: 2
SplineSet
150 0 m 1,0,-1
 150 1450 l 1,1,-1
 330 1450 l 1,2,-1
 330 785 l 1,3,-1
 1072 1450 l 1,4,-1
 1316 1450 l 1,5,-1
 610 806 l 1,6,-1
 1346 0 l 1,7,-1
 1113 0 l 1,8,-1
 479 670 l 1,9,-1
 330 539 l 1,10,-1
 330 0 l 1,11,-1
 150 0 l 1,0,-1
EndSplineSet
EndChar

StartChar: L
Encoding: 76 76 48
Width: 1139
Flags: W
HStem: 0 170<330 1060> 1430 20G<150 330>
VStem: 150 180<170 1450>
LayerCount: 3
Fore
SplineSet
150 0 m 1
 150 1450 l 1
 330 1450 l 1
 330 170 l 1
 1060 170 l 1
 1060 0 l 1
 150 0 l 1
EndSplineSet
Validated: 1
Layer: 2
SplineSet
150 0 m 1,0,-1
 150 1450 l 1,1,-1
 330 1450 l 1,2,-1
 330 170 l 1,3,-1
 1060 170 l 1,4,-1
 1060 0 l 1,5,-1
 150 0 l 1,0,-1
EndSplineSet
EndChar

StartChar: M
Encoding: 77 77 49
Width: 1706
Flags: W
HStem: 0 21G<152 332 698.241 1003.76 1370 1550> 1430 20G<152 339.882 1362.12 1550>
VStem: 152 180<0 964> 1370 180<0 964>
DStem2: 332 1450 332 964 0.366636 -0.930365<452.157 1415.57> 851 133 996 0 0.366636 0.930365<0 963.417>
LayerCount: 3
Fore
SplineSet
152 0 m 1
 152 1450 l 1
 332 1450 l 1
 851 133 l 1
 1370 1450 l 1
 1550 1450 l 1
 1550 0 l 1
 1370 0 l 1
 1370 964 l 1
 996 0 l 1
 706 0 l 1
 332 964 l 1
 332 0 l 1
 152 0 l 1
EndSplineSet
Validated: 1
Layer: 2
SplineSet
152 0 m 1,0,-1
 152 1450 l 1,1,-1
 332 1450 l 1,2,-1
 851 133 l 1,3,-1
 1370 1450 l 1,4,-1
 1550 1450 l 1,5,-1
 1550 0 l 1,6,-1
 1370 0 l 1,7,-1
 1370 964 l 1,8,-1
 996 0 l 1,9,-1
 706 0 l 1,10,-1
 332 964 l 1,11,-1
 332 0 l 1,12,-1
 152 0 l 1,0,-1
EndSplineSet
EndChar

StartChar: N
Encoding: 78 78 50
Width: 1479
Flags: W
HStem: 0 21G<156 336 1117 1311> 1430 20G<156 350.009 1131 1311>
VStem: 156 180<0 1136> 1131 180<315 1450>
DStem2: 336 1450 336 1136 0.573366 -0.8193<257.26 1385.73>
LayerCount: 3
Fore
SplineSet
156 0 m 1
 156 1450 l 1
 336 1450 l 1
 1131 315 l 1
 1131 1450 l 1
 1311 1450 l 1
 1311 0 l 1
 1131 0 l 1
 336 1136 l 1
 336 0 l 1
 156 0 l 1
EndSplineSet
Validated: 1
Layer: 2
SplineSet
156 0 m 1,0,-1
 156 1450 l 1,1,-1
 336 1450 l 1,2,-1
 1131 315 l 1,3,-1
 1131 1450 l 1,4,-1
 1311 1450 l 1,5,-1
 1311 0 l 1,6,-1
 1131 0 l 1,7,-1
 336 1136 l 1,8,-1
 336 0 l 1,9,-1
 156 0 l 1,0,-1
EndSplineSet
EndChar

StartChar: O
Encoding: 79 79 51
Width: 1593
Flags: W
HStem: -11 170<580.446 1016.63> 1312 170<576.735 1021.93>
VStem: 104 180<477.07 986.608> 1316 180<473.723 988.648>
LayerCount: 3
Fore
SplineSet
800 -11 m 3
 370 -11 104 307 104 715 c 3
 104 1189 364 1482 801 1482 c 3
 1230 1482 1496 1177 1496 732 c 3
 1496 278 1212 -11 800 -11 c 3
802 1312 m 3
 404 1312 284 1003 284 712 c 3
 284 384 482 159 799 159 c 3
 1122 159 1316 385 1316 733 c 3
 1316 1073 1127 1312 802 1312 c 3
EndSplineSet
Validated: 1
Layer: 2
SplineSet
800 -11 m 3,0,1
 642 -11 642 -11 510.5 45 c 128,-1,2
 379 101 379 101 290.5 199 c 128,-1,3
 202 297 202 297 153 429.5 c 128,-1,4
 104 562 104 562 104 715 c 0,5,6
 104 1072 104 1072 289 1277 c 128,-1,7
 474 1482 474 1482 801 1482 c 0,8,9
 1012 1482 1012 1482 1170.5 1387.5 c 128,-1,10
 1329 1293 1329 1293 1412.5 1123.5 c 128,-1,11
 1496 954 1496 954 1496 732 c 0,12,13
 1496 394 1496 394 1303.5 191.5 c 128,-1,14
 1111 -11 1111 -11 800 -11 c 3,0,1
802 1312 m 3,15,16
 687 1312 687 1312 596 1277 c 128,-1,17
 505 1242 505 1242 447.5 1185 c 128,-1,18
 390 1128 390 1128 352 1048.5 c 128,-1,19
 314 969 314 969 299 886.5 c 128,-1,20
 284 804 284 804 284 712 c 0,21,22
 284 464 284 464 423.5 311.5 c 128,-1,23
 563 159 563 159 799 159 c 0,24,25
 1040 159 1040 159 1178 314.5 c 128,-1,26
 1316 470 1316 470 1316 733 c 0,27,28
 1316 903 1316 903 1256 1033.5 c 128,-1,29
 1196 1164 1196 1164 1078.5 1238 c 128,-1,30
 961 1312 961 1312 802 1312 c 3,15,16
EndSplineSet
EndChar

StartChar: P
Encoding: 80 80 52
Width: 1366
Flags: W
HStem: 0 21G<158 338> 580 170<338 959.72> 1280 170<338 970.26>
VStem: 158 180<0 580 750 1280> 1097 180<865.907 1171.6>
LayerCount: 3
Fore
SplineSet
158 0 m 1
 158 1450 l 1
 711 1450 l 2
 1185 1450 1277 1255 1277 1026 c 3
 1277 735 1105 580 728 580 c 2
 338 580 l 1
 338 0 l 1
 158 0 l 1
731 750 m 2
 925 750 1097 803 1097 1017 c 3
 1097 1172 1020 1280 727 1280 c 2
 338 1280 l 1
 338 750 l 1
 731 750 l 2
EndSplineSet
Validated: 1
Layer: 2
SplineSet
158 0 m 1,0,-1
 158 1450 l 1,1,-1
 711 1450 l 2,2,3
 849 1450 849 1450 951.5 1427.5 c 128,-1,4
 1054 1405 1054 1405 1115.5 1367.5 c 128,-1,5
 1177 1330 1177 1330 1214 1273.5 c 128,-1,6
 1251 1217 1251 1217 1264 1158.5 c 128,-1,7
 1277 1100 1277 1100 1277 1026 c 0,8,9
 1277 580 1277 580 728 580 c 2,10,-1
 338 580 l 1,11,-1
 338 0 l 1,12,-1
 158 0 l 1,0,-1
731 750 m 2,13,14
 1097 750 1097 750 1097 1017 c 0,15,16
 1097 1079 1097 1079 1080 1124.5 c 128,-1,17
 1063 1170 1063 1170 1022.5 1206.5 c 128,-1,18
 982 1243 982 1243 908 1261.5 c 128,-1,19
 834 1280 834 1280 727 1280 c 2,20,-1
 338 1280 l 1,21,-1
 338 750 l 1,22,-1
 731 750 l 2,13,14
EndSplineSet
EndChar

StartChar: Q
Encoding: 81 81 53
Width: 1659
Flags: W
HStem: -11 170<738.548 1026.97 1319.18 1522.09> 289 170<789.732 1022.03> 1312 170<577.477 1021.93>
VStem: 104 180<469.746 985.788> 1316 180<497.248 989.542>
LayerCount: 3
Fore
SplineSet
895 459 m 3
 1075 459 1174 367 1194 346 c 1
 1284 458 1316 643 1316 732 c 3
 1316 1080 1127 1312 802 1312 c 3
 404 1312 284 1002 284 711 c 3
 284 480 388 310 543 222 c 1
 586 386 751 459 895 459 c 3
1496 731 m 3
 1496 396 1390 241 1317 184 c 1
 1334 165 1358 159 1390 159 c 3
 1429 159 1488 176 1533 212 c 1
 1659 93 l 1
 1585 24 1498 -11 1399 -11 c 3
 1313 -11 1215 15 1156 87 c 1
 1052 21 962 -11 820 -11 c 3
 373 -11 104 284 104 714 c 3
 104 1188 368 1482 801 1482 c 3
 1230 1482 1496 1176 1496 731 c 3
1050 218 m 1
 1010 265 963 289 908 289 c 3
 770 289 738 166 738 166 c 1
 755 161 776 159 803 159 c 3
 923 159 1015 189 1050 218 c 1
EndSplineSet
Validated: 1
Layer: 2
SplineSet
895 459 m 3,0,1
 958 459 958 459 1013.5 445 c 128,-1,2
 1069 431 1069 431 1106 409.5 c 128,-1,3
 1143 388 1143 388 1162.5 373.5 c 128,-1,4
 1182 359 1182 359 1194 346 c 1,5,6
 1255 422 1255 422 1285.5 535.5 c 128,-1,7
 1316 649 1316 649 1316 732 c 0,8,9
 1316 996 1316 996 1179.5 1154 c 128,-1,10
 1043 1312 1043 1312 802 1312 c 0,11,12
 687 1312 687 1312 596 1277 c 128,-1,13
 505 1242 505 1242 447.5 1184.5 c 128,-1,14
 390 1127 390 1127 352 1047.5 c 128,-1,15
 314 968 314 968 299 885.5 c 128,-1,16
 284 803 284 803 284 711 c 0,17,18
 284 542 284 542 353.5 416 c 128,-1,19
 423 290 423 290 543 222 c 1,20,21
 563 300 563 300 621 355.5 c 128,-1,22
 679 411 679 411 749 435 c 128,-1,23
 819 459 819 459 895 459 c 3,0,1
1496 731 m 3,24,25
 1496 612 1496 612 1479 513.5 c 128,-1,26
 1462 415 1462 415 1433.5 351.5 c 128,-1,27
 1405 288 1405 288 1376.5 248 c 128,-1,28
 1348 208 1348 208 1317 184 c 1,29,30
 1339 159 1339 159 1390 159 c 0,31,32
 1422 159 1422 159 1461.5 173 c 128,-1,33
 1501 187 1501 187 1533 212 c 1,34,-1
 1659 93 l 1,35,36
 1547 -11 1547 -11 1399 -11 c 0,37,38
 1328 -11 1328 -11 1262.5 12.5 c 128,-1,39
 1197 36 1197 36 1156 87 c 1,40,41
 1075 35 1075 35 999 12 c 128,-1,42
 923 -11 923 -11 820 -11 c 0,43,44
 600 -11 600 -11 437 80.5 c 128,-1,45
 274 172 274 172 189 335.5 c 128,-1,46
 104 499 104 499 104 714 c 0,47,48
 104 1070 104 1070 290.5 1276 c 128,-1,49
 477 1482 477 1482 801 1482 c 0,50,51
 1012 1482 1012 1482 1170.5 1387 c 128,-1,52
 1329 1292 1329 1292 1412.5 1122.5 c 128,-1,53
 1496 953 1496 953 1496 731 c 3,24,25
1050 218 m 1,54,55
 990 289 990 289 908 289 c 0,56,57
 869 289 869 289 837.5 276.5 c 128,-1,58
 806 264 806 264 788.5 246 c 128,-1,59
 771 228 771 228 758.5 209.5 c 128,-1,60
 746 191 746 191 742 178.5 c 2,61,-1
 738 166 l 1,62,63
 762 159 762 159 803 159 c 0,64,65
 887 159 887 159 954 176.5 c 128,-1,66
 1021 194 1021 194 1050 218 c 1,54,55
EndSplineSet
EndChar

StartChar: R
Encoding: 82 82 54
Width: 1400
Flags: W
HStem: 0 21G<158 338 1092.9 1387> 580 170<338 698> 1280 170<338 966.255>
VStem: 158 180<0 580 750 1280> 1097 180<868.171 1171.79>
LayerCount: 3
Fore
SplineSet
698 580 m 1
 338 580 l 1
 338 0 l 1
 158 0 l 1
 158 1450 l 1
 711 1450 l 2
 1175 1450 1277 1260 1277 1026 c 3
 1277 799 1151 630 924 596 c 1
 1387 0 l 1
 1107 0 l 1
 698 580 l 1
731 750 m 2
 925 750 1097 806 1097 1020 c 3
 1097 1155 1035 1280 727 1280 c 2
 338 1280 l 1
 338 750 l 1
 731 750 l 2
EndSplineSet
Validated: 1
Layer: 2
SplineSet
698 580 m 1,0,-1
 338 580 l 1,1,-1
 338 0 l 1,2,-1
 158 0 l 1,3,-1
 158 1450 l 1,4,-1
 711 1450 l 2,5,6
 846 1450 846 1450 947.5 1428 c 128,-1,7
 1049 1406 1049 1406 1111 1369 c 128,-1,8
 1173 1332 1173 1332 1211 1276 c 128,-1,9
 1249 1220 1249 1220 1263 1160.5 c 128,-1,10
 1277 1101 1277 1101 1277 1026 c 0,11,12
 1277 853 1277 853 1184.5 737 c 128,-1,13
 1092 621 1092 621 924 596 c 1,14,-1
 1387 0 l 1,15,-1
 1107 0 l 1,16,-1
 698 580 l 1,0,-1
731 750 m 2,17,18
 1097 750 1097 750 1097 1020 c 0,19,20
 1097 1064 1097 1064 1088.5 1099.5 c 128,-1,21
 1080 1135 1080 1135 1055.5 1169.5 c 128,-1,22
 1031 1204 1031 1204 990.5 1227.5 c 128,-1,23
 950 1251 950 1251 883 1265.5 c 128,-1,24
 816 1280 816 1280 727 1280 c 2,25,-1
 338 1280 l 1,26,-1
 338 750 l 1,27,-1
 731 750 l 2,17,18
EndSplineSet
EndChar

StartChar: S
Encoding: 83 83 55
Width: 1366
Flags: W
HStem: -11 170<483.435 928.655> 1312 170<447.473 862.804>
VStem: 92 183<359.099 502> 148 180<976.495 1204.83> 1029 186<1024 1154.16> 1079 180<284.955 532.685>
LayerCount: 3
Fore
SplineSet
1259 429 m 3xd4
 1259 157 1014 -11 717 -11 c 3
 203 -11 97 291 92 502 c 1
 275 502 l 1
 303 271 466 159 708 159 c 3
 897 159 1079 239 1079 413 c 3xe4
 1079 617 816 623 639 666 c 0
 384 728 148 805 148 1072 c 3
 148 1328 372 1482 664 1482 c 3
 964 1482 1192 1324 1215 1024 c 1
 1029 1024 l 1xd8
 1009 1196 880 1312 672 1312 c 3
 391 1312 328 1173 328 1085 c 3
 328 909 560 877 692 846 c 0
 884 802 1259 780 1259 429 c 3xd4
EndSplineSet
Validated: 1
Layer: 2
SplineSet
1259 429 m 3,0,1
 1259 297 1259 297 1185 195.5 c 128,-1,2
 1111 94 1111 94 988.5 41.5 c 128,-1,3
 866 -11 866 -11 717 -11 c 0,4,5
 569 -11 569 -11 455.5 23 c 128,-1,6
 342 57 342 57 275.5 108.5 c 128,-1,7
 209 160 209 160 166.5 231 c 128,-1,8
 124 302 124 302 109 367 c 128,-1,9
 94 432 94 432 92 502 c 1,10,-1
 275 502 l 1,11,12
 296 332 296 332 409 245.5 c 128,-1,13
 522 159 522 159 708 159 c 0,14,15
 781 159 781 159 846 174.5 c 128,-1,16
 911 190 911 190 964 220.5 c 128,-1,17
 1017 251 1017 251 1048 300.5 c 128,-1,18
 1079 350 1079 350 1079 413 c 0,19,20
 1079 462 1079 462 1057.5 499.5 c 128,-1,21
 1036 537 1036 537 1005.5 559.5 c 128,-1,22
 975 582 975 582 924 600 c 128,-1,23
 873 618 873 618 833 626.5 c 128,-1,24
 793 635 793 635 731.5 646.5 c 128,-1,25
 670 658 670 658 639 666 c 0,26,27
 576 681 576 681 531 694 c 128,-1,28
 486 707 486 707 431 727 c 128,-1,29
 376 747 376 747 338 768 c 128,-1,30
 300 789 300 789 261.5 819.5 c 128,-1,31
 223 850 223 850 200 885.5 c 128,-1,32
 177 921 177 921 162.5 968.5 c 128,-1,33
 148 1016 148 1016 148 1072 c 0,34,35
 148 1260 148 1260 294 1371 c 128,-1,36
 440 1482 440 1482 664 1482 c 0,37,38
 896 1482 896 1482 1047 1362.5 c 128,-1,39
 1198 1243 1198 1243 1215 1024 c 1,40,-1
 1029 1024 l 1,41,42
 1014 1155 1014 1155 919.5 1233.5 c 128,-1,43
 825 1312 825 1312 672 1312 c 0,44,45
 573 1312 573 1312 501 1289.5 c 128,-1,46
 429 1267 429 1267 393.5 1230.5 c 128,-1,47
 358 1194 358 1194 343 1158 c 128,-1,48
 328 1122 328 1122 328 1085 c 0,49,50
 328 1059 328 1059 335 1036 c 128,-1,51
 342 1013 342 1013 353 995.5 c 128,-1,52
 364 978 364 978 382.5 961.5 c 128,-1,53
 401 945 401 945 418 933.5 c 128,-1,54
 435 922 435 922 461 911 c 128,-1,55
 487 900 487 900 506.5 893 c 128,-1,56
 526 886 526 886 555.5 878 c 128,-1,57
 585 870 585 870 603 866 c 128,-1,58
 621 862 621 862 650 855.5 c 128,-1,59
 679 849 679 849 692 846 c 0,60,61
 716 841 716 841 770.5 830 c 128,-1,62
 825 819 825 819 862.5 811.5 c 128,-1,63
 900 804 900 804 955 787.5 c 128,-1,64
 1010 771 1010 771 1048 752.5 c 128,-1,65
 1086 734 1086 734 1129 703.5 c 128,-1,66
 1172 673 1172 673 1198 636 c 128,-1,67
 1224 599 1224 599 1241.5 546 c 128,-1,68
 1259 493 1259 493 1259 429 c 3,0,1
EndSplineSet
EndChar

StartChar: T
Encoding: 84 84 56
Width: 1251
Flags: W
HStem: 0 21G<538 718> 1280 170<48 538 718 1210>
VStem: 538 180<0 1280>
LayerCount: 3
Fore
SplineSet
538 0 m 1
 538 1280 l 1
 48 1280 l 1
 48 1450 l 1
 1210 1450 l 1
 1210 1280 l 1
 718 1280 l 1
 718 0 l 1
 538 0 l 1
EndSplineSet
Validated: 1
Layer: 2
SplineSet
538 0 m 1,0,-1
 538 1280 l 1,1,-1
 48 1280 l 1,2,-1
 48 1450 l 1,3,-1
 1210 1450 l 1,4,-1
 1210 1280 l 1,5,-1
 718 1280 l 1,6,-1
 718 0 l 1,7,-1
 538 0 l 1,0,-1
EndSplineSet
EndChar

StartChar: U
Encoding: 85 85 57
Width: 1479
Flags: W
HStem: -11 170<514.014 961.818> 1430 20G<161 341 1134 1314>
VStem: 161 180<341.039 1450> 1134 180<341.039 1450>
LayerCount: 3
Fore
SplineSet
738 159 m 3
 1056 159 1134 336 1134 567 c 2
 1134 1450 l 1
 1314 1450 l 1
 1314 566 l 2
 1314 181 1120 -11 738 -11 c 3
 356 -11 161 181 161 566 c 2
 161 1450 l 1
 341 1450 l 1
 341 567 l 2
 341 336 420 159 738 159 c 3
EndSplineSet
Validated: 1
Layer: 2
SplineSet
738 159 m 3,0,1
 831 159 831 159 901 179.5 c 128,-1,2
 971 200 971 200 1015 235.5 c 128,-1,3
 1059 271 1059 271 1086 324 c 128,-1,4
 1113 377 1113 377 1123.5 435.5 c 128,-1,5
 1134 494 1134 494 1134 567 c 2,6,-1
 1134 1450 l 1,7,-1
 1314 1450 l 1,8,-1
 1314 566 l 2,9,10
 1314 -11 1314 -11 738 -11 c 0,11,12
 161 -11 161 -11 161 566 c 2,13,-1
 161 1450 l 1,14,-1
 341 1450 l 1,15,-1
 341 567 l 2,16,17
 341 474 341 474 359 404.5 c 128,-1,18
 377 335 377 335 419.5 277.5 c 128,-1,19
 462 220 462 220 542 189.5 c 128,-1,20
 622 159 622 159 738 159 c 3,0,1
EndSplineSet
EndChar

StartChar: V
Encoding: 86 86 58
Width: 1366
Flags: W
HStem: 0 21G<569.166 783.917> 1430 20G<9 226.822 1143.89 1350>
DStem2: 219 1450 9 1450 0.364738 -0.93111<0 1257.38> 677 279 776 0 0.368072 0.929797<0 1263.63>
LayerCount: 3
Fore
SplineSet
577 0 m 1
 9 1450 l 1
 219 1450 l 1
 677 279 l 1
 1152 1450 l 1
 1350 1450 l 1
 776 0 l 1
 577 0 l 1
EndSplineSet
Validated: 1
Layer: 2
SplineSet
577 0 m 1,0,-1
 9 1450 l 1,1,-1
 219 1450 l 1,2,-1
 677 279 l 1,3,-1
 1152 1450 l 1,4,-1
 1350 1450 l 1,5,-1
 776 0 l 1,6,-1
 577 0 l 1,0,-1
EndSplineSet
EndChar

StartChar: W
Encoding: 87 87 59
Width: 1933
Flags: W
HStem: 0 21G<408.634 617.966 1304.03 1513.37> 1430 20G<25 229.453 827.943 1094.06 1692.55 1897>
DStem2: 224 1450 25 1450 0.259113 -0.965847<0 1098.68> 513 390 612 0 0.285845 0.958276<0 875.514> 1088 1450 961 1170 0.285845 -0.958276<232.015 1107.53> 1409 390 1508 0 0.259113 0.965847<0 1098.68>
LayerCount: 3
Fore
SplineSet
414 0 m 1
 25 1450 l 1
 224 1450 l 1
 513 390 l 1
 834 1450 l 1
 1088 1450 l 1
 1409 390 l 1
 1698 1450 l 1
 1897 1450 l 1
 1508 0 l 1
 1310 0 l 1
 961 1170 l 1
 612 0 l 1
 414 0 l 1
EndSplineSet
Validated: 1
Layer: 2
SplineSet
414 0 m 1,0,-1
 25 1450 l 1,1,-1
 224 1450 l 1,2,-1
 513 390 l 1,3,-1
 834 1450 l 1,4,-1
 1088 1450 l 1,5,-1
 1409 390 l 1,6,-1
 1698 1450 l 1,7,-1
 1897 1450 l 1,8,-1
 1508 0 l 1,9,-1
 1310 0 l 1,10,-1
 961 1170 l 1,11,-1
 612 0 l 1,12,-1
 414 0 l 1,0,-1
EndSplineSet
EndChar

StartChar: X
Encoding: 88 88 60
Width: 1366
Flags: W
HStem: 0 21G<9 253.421 1108.58 1353> 1430 20G<76 319.686 1068.33 1313>
DStem2: 9 0 239 0 0.595201 0.803577<136.896 892.568 1124.8 1804.43> 306 1450 76 1450 0.585409 -0.810738<0 663.813 898.116 1653.85>
LayerCount: 3
Fore
SplineSet
9 0 m 1
 564 756 l 1
 76 1450 l 1
 306 1450 l 1
 681 902 l 1
 1083 1450 l 1
 1313 1450 l 1
 798 756 l 1
 1353 0 l 1
 1123 0 l 1
 681 613 l 1
 239 0 l 1
 9 0 l 1
EndSplineSet
Validated: 1
Layer: 2
SplineSet
9 0 m 1,0,-1
 564 756 l 1,1,-1
 76 1450 l 1,2,-1
 306 1450 l 1,3,-1
 681 902 l 1,4,-1
 1083 1450 l 1,5,-1
 1313 1450 l 1,6,-1
 798 756 l 1,7,-1
 1353 0 l 1,8,-1
 1123 0 l 1,9,-1
 681 613 l 1,10,-1
 239 0 l 1,11,-1
 9 0 l 1,0,-1
EndSplineSet
EndChar

StartChar: Y
Encoding: 89 89 61
Width: 1366
Flags: W
HStem: 0 21G<585 765> 1431 20G<6 249.962 1106.16 1350>
VStem: 585 180<0 621>
DStem2: 236 1451 6 1451 0.572135 -0.820159<0 775.649> 680 815 765 621 0.576103 0.817377<0 773.337>
LayerCount: 3
Fore
SplineSet
585 0 m 1
 585 621 l 1
 6 1451 l 1
 236 1451 l 1
 680 815 l 1
 1120 1451 l 1
 1350 1451 l 1
 765 621 l 1
 765 0 l 1
 585 0 l 1
EndSplineSet
Validated: 1
Layer: 2
SplineSet
585 0 m 1,0,-1
 585 621 l 1,1,-1
 6 1451 l 1,2,-1
 236 1451 l 1,3,-1
 680 815 l 1,4,-1
 1120 1451 l 1,5,-1
 1350 1451 l 1,6,-1
 765 621 l 1,7,-1
 765 0 l 1,8,-1
 585 0 l 1,0,-1
EndSplineSet
EndChar

StartChar: Z
Encoding: 90 90 62
Width: 1251
Flags: W
HStem: 0 170<325 1200> 1280 170<45 945>
LayerCount: 3
Fore
SplineSet
41 0 m 1
 41 177 l 1
 945 1280 l 1
 45 1280 l 1
 45 1450 l 1
 1213 1450 l 1
 1213 1280 l 1
 325 170 l 1
 1200 170 l 1
 1200 0 l 1
 41 0 l 1
EndSplineSet
Validated: 1
Layer: 2
SplineSet
41 0 m 1,0,-1
 41 177 l 1,1,-1
 945 1280 l 1,2,-1
 45 1280 l 1,3,-1
 45 1450 l 1,4,-1
 1213 1450 l 1,5,-1
 1213 1280 l 1,6,-1
 325 170 l 1,7,-1
 1200 170 l 1,8,-1
 1200 0 l 1,9,-1
 41 0 l 1,0,-1
EndSplineSet
EndChar

StartChar: bracketleft
Encoding: 91 91 63
Width: 569
Flags: W
HStem: -407 148<319 536> 1318 148<319 536>
VStem: 139 397<-407 -259 1318 1466> 139 180<-259 1318>
LayerCount: 3
Fore
SplineSet
139 -407 m 1xe0
 139 1466 l 1
 536 1466 l 1
 536 1318 l 1xe0
 319 1318 l 1
 319 -259 l 1xd0
 536 -259 l 1
 536 -407 l 1
 139 -407 l 1xe0
EndSplineSet
Validated: 1
Layer: 2
SplineSet
139 -407 m 1,0,-1
 139 1466 l 1,1,-1
 536 1466 l 1,2,-1
 536 1318 l 1,3,-1
 319 1318 l 1,4,-1
 319 -259 l 1,5,-1
 536 -259 l 1,6,-1
 536 -407 l 1,7,-1
 139 -407 l 1,0,-1
EndSplineSet
EndChar

StartChar: backslash
Encoding: 92 92 64
Width: 569
Flags: W
VStem: 0 569
DStem2: 145 1491 0 1491 0.269936 -0.962878<0 1535.31>
LayerCount: 3
Fore
SplineSet
425 -25 m 1
 0 1491 l 1
 145 1491 l 1
 569 -25 l 1
 425 -25 l 1
EndSplineSet
Validated: 1
Layer: 2
SplineSet
425 -25 m 1,0,-1
 0 1491 l 1,1,-1
 145 1491 l 1,2,-1
 569 -25 l 1,3,-1
 425 -25 l 1,0,-1
EndSplineSet
EndChar

StartChar: bracketright
Encoding: 93 93 65
Width: 569
Flags: W
HStem: -407 148<39 256> 1318 148<39 256>
VStem: 39 397<-407 -259 1318 1466> 256 180<-259 1318>
LayerCount: 3
Fore
SplineSet
436 -407 m 1xe0
 39 -407 l 1
 39 -259 l 1xe0
 256 -259 l 1
 256 1318 l 1xd0
 39 1318 l 1
 39 1466 l 1
 436 1466 l 1
 436 -407 l 1xe0
EndSplineSet
Validated: 1
Layer: 2
SplineSet
436 -407 m 1,0,-1
 39 -407 l 1,1,-1
 39 -259 l 1,2,-1
 256 -259 l 1,3,-1
 256 1318 l 1,4,-1
 39 1318 l 1,5,-1
 39 1466 l 1,6,-1
 436 1466 l 1,7,-1
 436 -407 l 1,0,-1
EndSplineSet
EndChar

StartChar: asciicircum
Encoding: 94 94 66
Width: 961
Flags: W
DStem2: 54 690 239 690 0.403275 0.915079<74.6058 672.855> 552 1491 479 1238 0.405185 -0.914235<201.723 802.804>
LayerCount: 3
Fore
SplineSet
239 690 m 1
 54 690 l 1
 407 1491 l 1
 552 1491 l 1
 907 690 l 1
 726 690 l 1
 479 1238 l 1
 239 690 l 1
EndSplineSet
Validated: 1
Layer: 2
SplineSet
239 690 m 1,0,-1
 54 690 l 1,1,-1
 407 1491 l 1,2,-1
 552 1491 l 1,3,-1
 907 690 l 1,4,-1
 726 690 l 1,5,-1
 479 1238 l 1,6,-1
 239 690 l 1,0,-1
EndSplineSet
EndChar

StartChar: underscore
Encoding: 95 95 67
Width: 1139
Flags: W
HStem: -407 148<-31 1162>
LayerCount: 3
Fore
SplineSet
-31 -407 m 1
 -31 -259 l 1
 1162 -259 l 1
 1162 -407 l 1
 -31 -407 l 1
EndSplineSet
Validated: 1
Layer: 2
SplineSet
-31 -407 m 1,0,-1
 -31 -259 l 1,1,-1
 1162 -259 l 1,2,-1
 1162 -407 l 1,3,-1
 -31 -407 l 1,0,-1
EndSplineSet
EndChar

StartChar: grave
Encoding: 96 96 68
Width: 682
Flags: W
HStem: 1194 280<320 330>
VStem: 89 376
LayerCount: 3
Fore
SplineSet
465 1194 m 1
 320 1194 l 1
 89 1474 l 1
 330 1474 l 1
 465 1194 l 1
EndSplineSet
Validated: 1
Layer: 2
SplineSet
465 1194 m 1,0,-1
 320 1194 l 1,1,-1
 89 1474 l 1,2,-1
 330 1474 l 1,3,-1
 465 1194 l 1,0,-1
EndSplineSet
EndChar

StartChar: a
Encoding: 97 97 69
Width: 1139
Flags: W
HStem: -11 148<316.733 658.43> 539 148<666.883 815> 947 148<374.182 730.104>
VStem: 74 180<199.274 391.245> 105 176<766.045 848.373> 815 180<281.098 539 673.298 867.647>
LayerCount: 3
Fore
SplineSet
995 458 m 2xec
 995 166 1000 93 1052 0 c 1
 866 0 l 1
 847 37 835 81 830 131 c 1
 734 62 616 -11 437 -11 c 3
 149 -11 74 168 74 293 c 3xf4
 74 415 146 548 332 598 c 0
 451 629 661 634 815 687 c 1
 815 828 785 947 558 947 c 3
 389 947 318 892 281 744 c 1
 105 768 l 1
 146 999 321 1095 584 1095 c 3
 969 1095 995 915 995 694 c 2
 995 458 l 2xec
254 293 m 3
 254 243 301 137 474 137 c 3
 695 137 815 254 815 463 c 2
 815 539 l 1
 584 443 254 491 254 293 c 3
EndSplineSet
Validated: 1
Layer: 2
SplineSet
995 458 m 2,0,1
 995 231 995 231 1004.5 149.5 c 128,-1,2
 1014 68 1014 68 1052 0 c 1,3,-1
 866 0 l 1,4,5
 838 55 838 55 830 131 c 1,6,7
 738 65 738 65 647.5 27 c 128,-1,8
 557 -11 557 -11 437 -11 c 0,9,10
 354 -11 354 -11 289 9 c 128,-1,11
 224 29 224 29 184.5 60 c 128,-1,12
 145 91 145 91 119 132.5 c 128,-1,13
 93 174 93 174 83.5 213 c 128,-1,14
 74 252 74 252 74 293 c 0,15,16
 74 357 74 357 98.5 415 c 128,-1,17
 123 473 123 473 183 523.5 c 128,-1,18
 243 574 243 574 332 598 c 0,19,20
 374 609 374 609 551 633 c 128,-1,21
 728 657 728 657 815 687 c 1,22,23
 815 734 815 734 810 768.5 c 128,-1,24
 805 803 805 803 789.5 838.5 c 128,-1,25
 774 874 774 874 746.5 896.5 c 128,-1,26
 719 919 719 919 671.5 933 c 128,-1,27
 624 947 624 947 558 947 c 0,28,29
 432 947 432 947 370.5 901.5 c 128,-1,30
 309 856 309 856 281 744 c 1,31,-1
 105 768 l 1,32,33
 163 1095 163 1095 584 1095 c 0,34,35
 665 1095 665 1095 728 1084 c 128,-1,36
 791 1073 791 1073 834 1055 c 128,-1,37
 877 1037 877 1037 907.5 1006 c 128,-1,38
 938 975 938 975 954.5 945 c 128,-1,39
 971 915 971 915 980.5 869.5 c 128,-1,40
 990 824 990 824 992.5 786.5 c 128,-1,41
 995 749 995 749 995 694 c 2,42,-1
 995 458 l 2,0,1
254 293 m 3,43,44
 254 272 254 272 264.5 247.5 c 128,-1,45
 275 223 275 223 298 197 c 128,-1,46
 321 171 321 171 367 154 c 128,-1,47
 413 137 413 137 474 137 c 0,48,49
 639 137 639 137 727 221.5 c 128,-1,50
 815 306 815 306 815 463 c 2,51,-1
 815 539 l 1,52,53
 755 514 755 514 669.5 496 c 128,-1,54
 584 478 584 478 516.5 467 c 128,-1,55
 449 456 449 456 386.5 438 c 128,-1,56
 324 420 324 420 289 384.5 c 128,-1,57
 254 349 254 349 254 293 c 3,43,44
EndSplineSet
EndChar

StartChar: b
Encoding: 98 98 70
Width: 1139
Flags: W
HStem: -11 148<454.475 727.439> 947 148<463.363 729.99> 1446 20G<134 314>
VStem: 134 180<0 119 302.818 765.164 951 1466> 875 180<310.284 777.634>
LayerCount: 3
Fore
SplineSet
596 -11 m 3
 419 -11 330 82 301 119 c 1
 301 0 l 1
 134 0 l 1
 134 1466 l 1
 314 1466 l 1
 314 951 l 1
 390 1046 487 1095 605 1095 c 3
 887 1095 1055 863 1055 551 c 3
 1055 232 893 -11 596 -11 c 3
589 947 m 3
 426 947 312 756 312 546 c 3
 312 231 473 137 581 137 c 3
 777 137 875 313 875 539 c 3
 875 859 707 947 589 947 c 3
EndSplineSet
Validated: 1
Layer: 2
SplineSet
596 -11 m 3,0,1
 534 -11 534 -11 480.5 3.5 c 128,-1,2
 427 18 427 18 391.5 41 c 128,-1,3
 356 64 356 64 336 82 c 128,-1,4
 316 100 316 100 301 119 c 1,5,-1
 301 0 l 1,6,-1
 134 0 l 1,7,-1
 134 1466 l 1,8,-1
 314 1466 l 1,9,-1
 314 951 l 1,10,11
 429 1095 429 1095 605 1095 c 0,12,13
 812 1095 812 1095 933.5 942.5 c 128,-1,14
 1055 790 1055 790 1055 551 c 0,15,16
 1055 304 1055 304 933.5 146.5 c 128,-1,17
 812 -11 812 -11 596 -11 c 3,0,1
589 947 m 3,18,19
 470 947 470 947 391 827.5 c 128,-1,20
 312 708 312 708 312 546 c 0,21,22
 312 456 312 456 330 383 c 128,-1,23
 348 310 348 310 375.5 265.5 c 128,-1,24
 403 221 403 221 439.5 191 c 128,-1,25
 476 161 476 161 511 149 c 128,-1,26
 546 137 546 137 581 137 c 0,27,28
 723 137 723 137 799 249.5 c 128,-1,29
 875 362 875 362 875 539 c 0,30,31
 875 631 875 631 856.5 704 c 128,-1,32
 838 777 838 777 808.5 821.5 c 128,-1,33
 779 866 779 866 740 895 c 128,-1,34
 701 924 701 924 664 935.5 c 128,-1,35
 627 947 627 947 589 947 c 3,18,19
EndSplineSet
EndChar

StartChar: c
Encoding: 99 99 71
Width: 1024
Flags: W
HStem: -11 148<422.071 715.546> 947 148<411.862 709.463>
VStem: 80 180<313.176 776.512> 828 177<246.257 402 705 824.422>
LayerCount: 3
Fore
SplineSet
561 137 m 3
 683 137 823 202 828 402 c 1
 1005 402 l 1
 997 136 829 -11 563 -11 c 3
 310 -11 80 178 80 531 c 3
 80 871 252 1095 564 1095 c 3
 947 1095 1003 816 1003 705 c 1
 828 705 l 1
 816 825 714 947 571 947 c 3
 366 947 260 790 260 536 c 3
 260 229 442 137 561 137 c 3
EndSplineSet
Validated: 1
Layer: 2
SplineSet
561 137 m 3,0,1
 610 137 610 137 654 151 c 128,-1,2
 698 165 698 165 737.5 194 c 128,-1,3
 777 223 777 223 801.5 276.5 c 128,-1,4
 826 330 826 330 828 402 c 1,5,-1
 1005 402 l 1,6,7
 999 204 999 204 881.5 96.5 c 128,-1,8
 764 -11 764 -11 563 -11 c 0,9,10
 487 -11 487 -11 416 11 c 128,-1,11
 345 33 345 33 284 78.5 c 128,-1,12
 223 124 223 124 177.5 187.5 c 128,-1,13
 132 251 132 251 106 339.5 c 128,-1,14
 80 428 80 428 80 531 c 0,15,16
 80 790 80 790 207 942.5 c 128,-1,17
 334 1095 334 1095 564 1095 c 0,18,19
 673 1095 673 1095 756 1064.5 c 128,-1,20
 839 1034 839 1034 884.5 990.5 c 128,-1,21
 930 947 930 947 958 889.5 c 128,-1,22
 986 832 986 832 994.5 788.5 c 128,-1,23
 1003 745 1003 745 1003 705 c 1,24,-1
 828 705 l 1,25,26
 818 800 818 800 746 873.5 c 128,-1,27
 674 947 674 947 571 947 c 0,28,29
 420 947 420 947 340 838.5 c 128,-1,30
 260 730 260 730 260 536 c 0,31,32
 260 448 260 448 280 377 c 128,-1,33
 300 306 300 306 331.5 262.5 c 128,-1,34
 363 219 363 219 404 189.5 c 128,-1,35
 445 160 445 160 484 148.5 c 128,-1,36
 523 137 523 137 561 137 c 3,0,1
EndSplineSet
EndChar

StartChar: d
Encoding: 100 100 72
Width: 1139
Flags: W
HStem: -11 148<397.243 653.989> 947 148<388.572 668.335> 1446 20G<806 991>
VStem: 70 180<305.841 780.713> 811 180<0 122 321.051 766.225 966 1466>
LayerCount: 3
Fore
SplineSet
514 1095 m 3
 690 1095 763 1022 806 966 c 1
 806 1466 l 1
 991 1466 l 1
 991 0 l 1
 818 0 l 1
 818 122 l 1
 758 34 660 -11 522 -11 c 3
 239 -11 70 223 70 534 c 3
 70 852 223 1095 514 1095 c 3
539 947 m 3
 308 947 250 720 250 542 c 3
 250 222 423 137 539 137 c 3
 653 137 811 285 811 527 c 3
 811 788 691 947 539 947 c 3
EndSplineSet
Validated: 1
Layer: 2
SplineSet
514 1095 m 3,0,1
 631 1095 631 1095 697 1058.5 c 128,-1,2
 763 1022 763 1022 806 966 c 1,3,-1
 806 1466 l 1,4,-1
 991 1466 l 1,5,-1
 991 0 l 1,6,-1
 818 0 l 1,7,-1
 818 122 l 1,8,9
 727 -11 727 -11 522 -11 c 0,10,11
 384 -11 384 -11 280 60.5 c 128,-1,12
 176 132 176 132 123 255 c 128,-1,13
 70 378 70 378 70 534 c 0,14,15
 70 695 70 695 119.5 820.5 c 128,-1,16
 169 946 169 946 271 1020.5 c 128,-1,17
 373 1095 373 1095 514 1095 c 3,0,1
539 947 m 3,18,19
 457 947 457 947 397.5 910 c 128,-1,20
 338 873 338 873 307.5 810 c 128,-1,21
 277 747 277 747 263.5 681.5 c 128,-1,22
 250 616 250 616 250 542 c 0,23,24
 250 450 250 450 269 377.5 c 128,-1,25
 288 305 288 305 318 261 c 128,-1,26
 348 217 348 217 387.5 188 c 128,-1,27
 427 159 427 159 464 148 c 128,-1,28
 501 137 501 137 539 137 c 0,29,30
 583 137 583 137 630 164.5 c 128,-1,31
 677 192 677 192 717.5 240.5 c 128,-1,32
 758 289 758 289 784.5 364.5 c 128,-1,33
 811 440 811 440 811 527 c 0,34,35
 811 718 811 718 733.5 832.5 c 128,-1,36
 656 947 656 947 539 947 c 3,18,19
EndSplineSet
EndChar

StartChar: e
Encoding: 101 101 73
Width: 1139
Flags: W
HStem: -11 148<413.897 748.439> 490 148<271 862> 947 148<421.526 732.184>
VStem: 75 192<299.922 490 638 783.409> 862 186<249.388 333>
LayerCount: 3
Fore
SplineSet
267 490 m 1
 273 218 435 137 582 137 c 3
 732 137 825 214 862 333 c 1
 1048 333 l 1
 1008 124 836 -11 581 -11 c 3
 259 -11 75 188 75 527 c 0
 75 864 253 1095 571 1095 c 3
 880 1095 1053 887 1053 490 c 1
 267 490 l 1
862 638 m 1
 852 760 804 947 573 947 c 3
 403 947 281 806 271 638 c 1
 862 638 l 1
EndSplineSet
Validated: 1
Layer: 2
SplineSet
267 490 m 1,0,1
 269 392 269 392 297.5 320.5 c 128,-1,2
 326 249 326 249 372.5 210.5 c 128,-1,3
 419 172 419 172 471 154.5 c 128,-1,4
 523 137 523 137 582 137 c 0,5,6
 691 137 691 137 762 189 c 128,-1,7
 833 241 833 241 862 333 c 1,8,-1
 1048 333 l 1,9,10
 1018 174 1018 174 894 81.5 c 128,-1,11
 770 -11 770 -11 581 -11 c 0,12,13
 340 -11 340 -11 207.5 130.5 c 128,-1,14
 75 272 75 272 75 527 c 0,15,16
 75 785 75 785 206 940 c 128,-1,17
 337 1095 337 1095 571 1095 c 0,18,19
 804 1095 804 1095 928.5 940.5 c 128,-1,20
 1053 786 1053 786 1053 490 c 1,21,-1
 267 490 l 1,0,1
862 638 m 1,22,23
 859 680 859 680 851 717.5 c 128,-1,24
 843 755 843 755 822.5 799 c 128,-1,25
 802 843 802 843 772 874 c 128,-1,26
 742 905 742 905 690.5 926 c 128,-1,27
 639 947 639 947 573 947 c 0,28,29
 448 947 448 947 363.5 857 c 128,-1,30
 279 767 279 767 271 638 c 1,31,-1
 862 638 l 1,22,23
EndSplineSet
EndChar

StartChar: f
Encoding: 102 102 74
Width: 569
Flags: W
HStem: 0 21G<177 357> 914 148<19 177 357 536> 1367 148<400.399 637.405>
VStem: 177 180<0 914 1062 1325.02>
LayerCount: 3
Fore
SplineSet
493 1367 m 3
 415 1367 357 1308 357 1160 c 2
 357 1062 l 1
 536 1062 l 1
 536 914 l 1
 357 914 l 1
 357 0 l 1
 177 0 l 1
 177 914 l 1
 19 914 l 1
 19 1062 l 1
 177 1062 l 1
 177 1175 l 2
 177 1447 355 1515 487 1515 c 3
 538 1515 589 1506 640 1488 c 1
 640 1340 l 1
 580 1360 539 1367 493 1367 c 3
EndSplineSet
Validated: 1
Layer: 2
SplineSet
493 1367 m 3,0,1
 431 1367 431 1367 394 1316.5 c 128,-1,2
 357 1266 357 1266 357 1160 c 2,3,-1
 357 1062 l 1,4,-1
 536 1062 l 1,5,-1
 536 914 l 1,6,-1
 357 914 l 1,7,-1
 357 0 l 1,8,-1
 177 0 l 1,9,-1
 177 914 l 1,10,-1
 19 914 l 1,11,-1
 19 1062 l 1,12,-1
 177 1062 l 1,13,-1
 177 1175 l 2,14,15
 177 1253 177 1253 197 1314.5 c 128,-1,16
 217 1376 217 1376 248 1412.5 c 128,-1,17
 279 1449 279 1449 321 1473 c 128,-1,18
 363 1497 363 1497 403.5 1506 c 128,-1,19
 444 1515 444 1515 487 1515 c 0,20,21
 563.5 1515 563.5 1515 640 1488 c 1,22,-1
 640 1340 l 1,23,24
 559 1367 559 1367 493 1367 c 3,0,1
EndSplineSet
EndChar

StartChar: g
Encoding: 103 103 75
Width: 1139
Flags: W
HStem: -428 148<362.163 690.753> -11 148<386.344 687.625> 947 148<394.774 674.607> 1042 20G<822 1002>
VStem: 66 180<303.078 769.362> 97 180<-199.292 -74> 822 180<-130.521 128 296.513 775.751 974 1062>
LayerCount: 3
Fore
SplineSet
1002 133 m 2xda
 1002 -296 859 -428 522 -428 c 3
 277 -428 97 -309 97 -74 c 1
 277 -74 l 1xd6
 277 -220 400 -280 521 -280 c 3
 760 -280 822 -113 822 128 c 1
 743 35 642 -11 525 -11 c 3
 239 -11 66 222 66 536 c 3
 66 853 235 1095 526 1095 c 3xea
 667 1095 770 1049 822 974 c 1
 822 1062 l 1
 1002 1062 l 1
 1002 133 l 2xda
536 947 m 3xea
 346 947 246 765 246 546 c 3
 246 318 330 137 539 137 c 3
 726 137 822 294 822 540 c 3
 822 859 649 947 536 947 c 3xea
EndSplineSet
Validated: 1
Layer: 2
SplineSet
1002 133 m 2,0,1
 1002 -81 1002 -81 951 -204 c 128,-1,2
 900 -327 900 -327 798 -377.5 c 128,-1,3
 696 -428 696 -428 522 -428 c 0,4,5
 331 -428 331 -428 214 -336.5 c 128,-1,6
 97 -245 97 -245 97 -74 c 1,7,-1
 277 -74 l 1,8,9
 277 -176 277 -176 348.5 -228 c 128,-1,10
 420 -280 420 -280 521 -280 c 0,11,12
 608 -280 608 -280 668.5 -251 c 128,-1,13
 729 -222 729 -222 761.5 -165.5 c 128,-1,14
 794 -109 794 -109 808 -38.5 c 128,-1,15
 822 32 822 32 822 128 c 1,16,17
 704 -11 704 -11 525 -11 c 0,18,19
 385 -11 385 -11 280 60.5 c 128,-1,20
 175 132 175 132 120.5 255.5 c 128,-1,21
 66 379 66 379 66 536 c 0,22,23
 66 696 66 696 119.5 821.5 c 128,-1,24
 173 947 173 947 278.5 1021 c 128,-1,25
 384 1095 384 1095 526 1095 c 0,26,27
 630 1095 630 1095 706 1063 c 128,-1,28
 782 1031 782 1031 822 974 c 1,29,-1
 822 1062 l 1,30,-1
 1002 1062 l 1,31,-1
 1002 133 l 2,0,1
536 947 m 3,32,33
 399 947 399 947 322.5 832.5 c 128,-1,34
 246 718 246 718 246 546 c 0,35,36
 246 458 246 458 263 385.5 c 128,-1,37
 280 313 280 313 314 256.5 c 128,-1,38
 348 200 348 200 405.5 168.5 c 128,-1,39
 463 137 463 137 539 137 c 0,40,41
 677 137 677 137 749.5 244.5 c 128,-1,42
 822 352 822 352 822 540 c 0,43,44
 822 632 822 632 803 704.5 c 128,-1,45
 784 777 784 777 754 821.5 c 128,-1,46
 724 866 724 866 685 895 c 128,-1,47
 646 924 646 924 609.5 935.5 c 128,-1,48
 573 947 573 947 536 947 c 3,32,33
EndSplineSet
EndChar

StartChar: h
Encoding: 104 104 76
Width: 1139
Flags: W
HStem: 0 21G<135 315 820 1000> 947 148<434.207 736.96> 1446 20G<135 315>
VStem: 135 180<0 812.97 970 1466> 820 180<0 860.362>
LayerCount: 3
Fore
SplineSet
596 947 m 3
 406 947 315 821 315 597 c 2
 315 0 l 1
 135 0 l 1
 135 1466 l 1
 315 1466 l 1
 315 970 l 1
 381 1057 495 1095 600 1095 c 3
 920 1095 1000 855 1000 673 c 2
 1000 0 l 1
 820 0 l 1
 820 689 l 2
 820 861 745 947 596 947 c 3
EndSplineSet
Validated: 1
Layer: 2
SplineSet
596 947 m 3,0,1
 455 947 455 947 385 857 c 128,-1,2
 315 767 315 767 315 597 c 2,3,-1
 315 0 l 1,4,-1
 135 0 l 1,5,-1
 135 1466 l 1,6,-1
 315 1466 l 1,7,-1
 315 970 l 1,8,9
 362 1032 362 1032 439 1063.5 c 128,-1,10
 516 1095 516 1095 600 1095 c 0,11,12
 692 1095 692 1095 764 1068 c 128,-1,13
 836 1041 836 1041 879.5 999 c 128,-1,14
 923 957 923 957 951 899.5 c 128,-1,15
 979 842 979 842 989.5 787 c 128,-1,16
 1000 732 1000 732 1000 673 c 2,17,-1
 1000 0 l 1,18,-1
 820 0 l 1,19,-1
 820 689 l 2,20,21
 820 947 820 947 596 947 c 3,0,1
EndSplineSet
EndChar

StartChar: i
Encoding: 105 105 77
Width: 455
Flags: W
HStem: 0 21G<136 316> 1042 20G<136 316> 1259 207<136 316>
VStem: 136 180<0 1062 1259 1466>
LayerCount: 3
Fore
SplineSet
136 1259 m 1
 136 1466 l 1
 316 1466 l 1
 316 1259 l 1
 136 1259 l 1
136 0 m 1
 136 1062 l 1
 316 1062 l 1
 316 0 l 1
 136 0 l 1
EndSplineSet
Validated: 1
Layer: 2
SplineSet
136 1259 m 1,0,-1
 136 1466 l 1,1,-1
 316 1466 l 1,2,-1
 316 1259 l 1,3,-1
 136 1259 l 1,0,-1
136 0 m 1,4,-1
 136 1062 l 1,5,-1
 316 1062 l 1,6,-1
 316 0 l 1,7,-1
 136 0 l 1,4,-1
EndSplineSet
EndChar

StartChar: j
Encoding: 106 106 78
Width: 455
Flags: W
HStem: -428 148<-92.0353 93.2457> 1042 20G<134 314> 1257 209<134 314>
VStem: 134 180<-241.922 1062 1257 1466>
LayerCount: 3
Fore
SplineSet
134 1257 m 1
 134 1466 l 1
 314 1466 l 1
 314 1257 l 1
 134 1257 l 1
314 -58 m 2
 314 -336 204 -428 39 -428 c 3
 -1 -428 -45 -423 -94 -412 c 1
 -94 -272 l 1
 -59 -277 -30 -280 -7 -280 c 3
 90 -280 134 -223 134 -54 c 2
 134 1062 l 1
 314 1062 l 1
 314 -58 l 2
EndSplineSet
Validated: 1
Layer: 2
SplineSet
134 1257 m 1,0,-1
 134 1466 l 1,1,-1
 314 1466 l 1,2,-1
 314 1257 l 1,3,-1
 134 1257 l 1,0,-1
314 -58 m 2,4,5
 314 -256 314 -256 242.5 -342 c 128,-1,6
 171 -428 171 -428 39 -428 c 0,7,8
 -23 -428 -23 -428 -94 -412 c 1,9,-1
 -94 -272 l 1,10,11
 -38 -280 -38 -280 -7 -280 c 0,12,13
 67 -280 67 -280 100.5 -229 c 128,-1,14
 134 -178 134 -178 134 -54 c 2,15,-1
 134 1062 l 1,16,-1
 314 1062 l 1,17,-1
 314 -58 l 2,4,5
EndSplineSet
EndChar

StartChar: k
Encoding: 107 107 79
Width: 1024
Flags: W
HStem: 0 21G<136 316 781.072 1016> 1042 20G<722.278 975> 1446 20G<136 316>
VStem: 136 180<0 421 630 1466>
DStem2: 316 630 443 543 0.716829 0.697249<0 30.3766 207.853 606.581> 569 668 443 543 0.556135 -0.831092<33.8135 680.3>
LayerCount: 3
Fore
SplineSet
136 0 m 1
 136 1466 l 1
 316 1466 l 1
 316 630 l 1
 742 1062 l 1
 975 1062 l 1
 569 668 l 1
 1016 0 l 1
 794 0 l 1
 443 543 l 1
 316 421 l 1
 316 0 l 1
 136 0 l 1
EndSplineSet
Validated: 1
Layer: 2
SplineSet
136 0 m 1,0,-1
 136 1466 l 1,1,-1
 316 1466 l 1,2,-1
 316 630 l 1,3,-1
 742 1062 l 1,4,-1
 975 1062 l 1,5,-1
 569 668 l 1,6,-1
 1016 0 l 1,7,-1
 794 0 l 1,8,-1
 443 543 l 1,9,-1
 316 421 l 1,10,-1
 316 0 l 1,11,-1
 136 0 l 1,0,-1
EndSplineSet
EndChar

StartChar: l
Encoding: 108 108 80
Width: 455
Flags: W
HStem: 0 21G<131 311> 1446 20G<131 311>
VStem: 131 180<0 1466>
LayerCount: 3
Fore
SplineSet
131 0 m 1
 131 1466 l 1
 311 1466 l 1
 311 0 l 1
 131 0 l 1
EndSplineSet
Validated: 1
Layer: 2
SplineSet
131 0 m 1,0,-1
 131 1466 l 1,1,-1
 311 1466 l 1,2,-1
 311 0 l 1,3,-1
 131 0 l 1,0,-1
EndSplineSet
EndChar

StartChar: m
Encoding: 109 109 81
Width: 1706
Flags: W
HStem: 0 21G<135 315 764 944 1393 1573> 947 148<439.879 707.227 1066.65 1333.26> 1042 20G<135 315>
VStem: 135 180<0 814.762 939 1062> 764 180<0 828.895> 1393 180<0 882.96>
CounterMasks: 1 1c
LayerCount: 3
Fore
SplineSet
764 707 m 2xdc
 764 891 691 947 578 947 c 3xdc
 377 947 315 791 315 568 c 2
 315 0 l 1
 135 0 l 1
 135 1062 l 1
 315 1062 l 1xbc
 315 939 l 1
 346 972 425 1095 618 1095 c 3
 793 1095 879 1013 916 909 c 1
 1000 1033 1110 1095 1245 1095 c 3
 1442 1095 1573 993 1573 736 c 2
 1573 0 l 1
 1393 0 l 1
 1393 686 l 2
 1393 872 1340 947 1205 947 c 3
 1115 947 944 910 944 634 c 2
 944 0 l 1
 764 0 l 1
 764 707 l 2xdc
EndSplineSet
Validated: 1
Layer: 2
SplineSet
764 707 m 2,0,1
 764 838 764 838 716.5 892.5 c 128,-1,2
 669 947 669 947 578 947 c 0,3,4
 505 947 505 947 452.5 920 c 128,-1,5
 400 893 400 893 370.5 840.5 c 128,-1,6
 341 788 341 788 328 721.5 c 128,-1,7
 315 655 315 655 315 568 c 2,8,-1
 315 0 l 1,9,-1
 135 0 l 1,10,-1
 135 1062 l 1,11,-1
 315 1062 l 1,12,-1
 315 939 l 2,13,14
 316 940 316 940 334 961 c 128,-1,15
 352 982 352 982 364.5 994.5 c 128,-1,16
 377 1007 377 1007 405 1028.5 c 128,-1,17
 433 1050 433 1050 460.5 1062.5 c 128,-1,18
 488 1075 488 1075 530 1085 c 128,-1,19
 572 1095 572 1095 618 1095 c 0,20,21
 850 1095 850 1095 916 909 c 1,22,23
 1042 1095 1042 1095 1245 1095 c 0,24,25
 1400 1095 1400 1095 1486.5 1008 c 128,-1,26
 1573 921 1573 921 1573 736 c 2,27,-1
 1573 0 l 1,28,-1
 1393 0 l 1,29,-1
 1393 686 l 2,30,31
 1393 826 1393 826 1349.5 886.5 c 128,-1,32
 1306 947 1306 947 1205 947 c 0,33,34
 1173 947 1173 947 1143 941.5 c 128,-1,35
 1113 936 1113 936 1075 916 c 128,-1,36
 1037 896 1037 896 1009.5 864 c 128,-1,37
 982 832 982 832 963 772.5 c 128,-1,38
 944 713 944 713 944 634 c 2,39,-1
 944 0 l 1,40,-1
 764 0 l 1,41,-1
 764 707 l 2,0,1
EndSplineSet
EndChar

StartChar: n
Encoding: 110 110 82
Width: 1139
Flags: W
HStem: 0 21G<135 315 820 1000> 947 148<434.207 736.96> 1044 20G<135 315>
VStem: 135 180<0 812.97 970 1064> 820 180<0 860.362>
LayerCount: 3
Fore
SplineSet
596 947 m 3xd8
 406 947 315 821 315 597 c 2
 315 0 l 1
 135 0 l 1
 135 1064 l 1
 315 1064 l 1xb8
 315 970 l 1
 381 1057 495 1095 600 1095 c 3
 920 1095 1000 855 1000 673 c 2
 1000 0 l 1
 820 0 l 1
 820 689 l 2
 820 861 745 947 596 947 c 3xd8
EndSplineSet
Validated: 1
Layer: 2
SplineSet
596 947 m 3,0,1
 455 947 455 947 385 857 c 128,-1,2
 315 767 315 767 315 597 c 2,3,-1
 315 0 l 1,4,-1
 135 0 l 1,5,-1
 135 1064 l 1,6,-1
 315 1064 l 1,7,-1
 315 970 l 1,8,9
 362 1032 362 1032 439 1063.5 c 128,-1,10
 516 1095 516 1095 600 1095 c 0,11,12
 692 1095 692 1095 764 1068 c 128,-1,13
 836 1041 836 1041 879.5 999 c 128,-1,14
 923 957 923 957 951 899.5 c 128,-1,15
 979 842 979 842 989.5 787 c 128,-1,16
 1000 732 1000 732 1000 673 c 2,17,-1
 1000 0 l 1,18,-1
 820 0 l 1,19,-1
 820 689 l 2,20,21
 820 947 820 947 596 947 c 3,0,1
EndSplineSet
EndChar

StartChar: o
Encoding: 111 111 83
Width: 1139
Flags: W
HStem: -11 148<402.579 730.407> 947 148<410.018 717.572>
VStem: 68 180<306.376 764.63> 883 180<312.285 765.53>
LayerCount: 3
Fore
SplineSet
566 -11 m 3
 246 -11 68 195 68 536 c 3
 68 872 244 1095 566 1095 c 3
 874 1095 1063 879 1063 551 c 3
 1063 121 820 -11 566 -11 c 3
566 947 m 3
 358 947 248 778 248 536 c 3
 248 206 441 137 566 137 c 3
 775 137 883 298 883 542 c 3
 883 863 691 947 566 947 c 3
EndSplineSet
Validated: 1
Layer: 2
SplineSet
566 -11 m 3,0,1
 328 -11 328 -11 198 133.5 c 128,-1,2
 68 278 68 278 68 536 c 0,3,4
 68 793 68 793 198.5 944 c 128,-1,5
 329 1095 329 1095 566 1095 c 0,6,7
 796 1095 796 1095 929.5 947 c 128,-1,8
 1063 799 1063 799 1063 551 c 0,9,10
 1063 426 1063 426 1035.5 328 c 128,-1,11
 1008 230 1008 230 961.5 167 c 128,-1,12
 915 104 915 104 850 63 c 128,-1,13
 785 22 785 22 715.5 5.5 c 128,-1,14
 646 -11 646 -11 566 -11 c 3,0,1
566 947 m 3,15,16
 414 947 414 947 331 834.5 c 128,-1,17
 248 722 248 722 248 536 c 0,18,19
 248 441 248 441 269.5 368 c 128,-1,20
 291 295 291 295 323.5 252.5 c 128,-1,21
 356 210 356 210 400.5 183 c 128,-1,22
 445 156 445 156 484.5 146.5 c 128,-1,23
 524 137 524 137 566 137 c 0,24,25
 720 137 720 137 801.5 246 c 128,-1,26
 883 355 883 355 883 542 c 0,27,28
 883 619 883 619 868.5 683 c 128,-1,29
 854 747 854 747 828.5 790 c 128,-1,30
 803 833 803 833 771.5 864.5 c 128,-1,31
 740 896 740 896 703.5 913.5 c 128,-1,32
 667 931 667 931 633 939 c 128,-1,33
 599 947 599 947 566 947 c 3,15,16
EndSplineSet
EndChar

StartChar: p
Encoding: 112 112 84
Width: 1139
Flags: W
HStem: -11 148<447.364 716.964> 947 148<440.457 715.104> 1042 20G<122 302>
VStem: 122 180<-390 133 320.154 781.182 972 1062> 863 180<312.686 772.025>
LayerCount: 3
Fore
SplineSet
1043 533 m 3xd8
 1043 222 875 -11 593 -11 c 3
 475 -11 378 38 302 133 c 1
 302 -390 l 1
 122 -390 l 1
 122 1062 l 1
 302 1062 l 1xb8
 302 972 l 1
 331 999 407 1095 584 1095 c 3
 881 1095 1043 856 1043 533 c 3xd8
566 947 m 3xd8
 458 947 302 853 302 538 c 3
 302 331 408 137 574 137 c 3
 692 137 863 225 863 545 c 3
 863 741 781 947 566 947 c 3xd8
EndSplineSet
Validated: 1
Layer: 2
SplineSet
1043 533 m 3,0,1
 1043 294 1043 294 921.5 141.5 c 128,-1,2
 800 -11 800 -11 593 -11 c 0,3,4
 417 -11 417 -11 302 133 c 1,5,-1
 302 -390 l 1,6,-1
 122 -390 l 1,7,-1
 122 1062 l 1,8,-1
 302 1062 l 1,9,-1
 302 972 l 2,10,11
 303 973 303 973 317 987 c 128,-1,12
 331 1001 331 1001 340.5 1009 c 128,-1,13
 350 1017 350 1017 369 1031.5 c 128,-1,14
 388 1046 388 1046 408.5 1055.5 c 128,-1,15
 429 1065 429 1065 455.5 1075 c 128,-1,16
 482 1085 482 1085 515 1090 c 128,-1,17
 548 1095 548 1095 584 1095 c 0,18,19
 729 1095 729 1095 834 1021.5 c 128,-1,20
 939 948 939 948 991 822 c 128,-1,21
 1043 696 1043 696 1043 533 c 3,0,1
566 947 m 3,22,23
 531 947 531 947 496.5 935 c 128,-1,24
 462 923 462 923 426.5 893 c 128,-1,25
 391 863 391 863 364 818.5 c 128,-1,26
 337 774 337 774 319.5 701.5 c 128,-1,27
 302 629 302 629 302 538 c 0,28,29
 302 433 302 433 334.5 342.5 c 128,-1,30
 367 252 367 252 430.5 194.5 c 128,-1,31
 494 137 494 137 574 137 c 0,32,33
 612 137 612 137 649.5 148.5 c 128,-1,34
 687 160 687 160 726.5 189 c 128,-1,35
 766 218 766 218 795.5 262.5 c 128,-1,36
 825 307 825 307 844 380 c 128,-1,37
 863 453 863 453 863 545 c 0,38,39
 863 606 863 606 853 662.5 c 128,-1,40
 843 719 843 719 820 771 c 128,-1,41
 797 823 797 823 763.5 862 c 128,-1,42
 730 901 730 901 679 924 c 128,-1,43
 628 947 628 947 566 947 c 3,22,23
EndSplineSet
EndChar

StartChar: q
Encoding: 113 113 85
Width: 1139
Flags: W
HStem: -11 148<413.036 679.655> 947 148<415.332 689.543> 1042 20G<828 1008>
VStem: 87 180<312.475 772.025> 828 180<-390 133 318.836 781.182 972 1062>
LayerCount: 3
Fore
SplineSet
546 1095 m 3xd8
 723 1095 799 999 828 972 c 1
 828 1062 l 1
 1008 1062 l 1xb8
 1008 -390 l 1
 828 -390 l 1
 828 133 l 1
 752 38 655 -11 537 -11 c 3
 255 -11 87 221 87 533 c 3
 87 852 249 1095 546 1095 c 3xd8
556 137 m 3
 719 137 828 328 828 538 c 3
 828 853 672 947 564 947 c 3xd8
 351 947 267 745 267 545 c 3
 267 225 438 137 556 137 c 3
EndSplineSet
Validated: 1
Layer: 2
SplineSet
546 1095 m 3,0,1
 582 1095 582 1095 615 1090 c 128,-1,2
 648 1085 648 1085 674.5 1075 c 128,-1,3
 701 1065 701 1065 721.5 1055.5 c 128,-1,4
 742 1046 742 1046 761 1031.5 c 128,-1,5
 780 1017 780 1017 789.5 1009 c 128,-1,6
 799 1001 799 1001 813 987 c 128,-1,7
 827 973 827 973 828 972 c 2,8,-1
 828 1062 l 1,9,-1
 1008 1062 l 1,10,-1
 1008 -390 l 1,11,-1
 828 -390 l 1,12,-1
 828 133 l 1,13,14
 713 -11 713 -11 537 -11 c 0,15,16
 330 -11 330 -11 208.5 141.5 c 128,-1,17
 87 294 87 294 87 533 c 0,18,19
 87 780 87 780 208.5 937.5 c 128,-1,20
 330 1095 330 1095 546 1095 c 3,0,1
556 137 m 3,21,22
 635 137 635 137 698 193.5 c 128,-1,23
 761 250 761 250 794.5 341.5 c 128,-1,24
 828 433 828 433 828 538 c 0,25,26
 828 629 828 629 810.5 701.5 c 128,-1,27
 793 774 793 774 766 818.5 c 128,-1,28
 739 863 739 863 703.5 893 c 128,-1,29
 668 923 668 923 633.5 935 c 128,-1,30
 599 947 599 947 564 947 c 0,31,32
 502 947 502 947 451.5 924.5 c 128,-1,33
 401 902 401 902 367 863.5 c 128,-1,34
 333 825 333 825 310 773 c 128,-1,35
 287 721 287 721 277 664 c 128,-1,36
 267 607 267 607 267 545 c 0,37,38
 267 453 267 453 286 380 c 128,-1,39
 305 307 305 307 334.5 262.5 c 128,-1,40
 364 218 364 218 403.5 189 c 128,-1,41
 443 160 443 160 480.5 148.5 c 128,-1,42
 518 137 518 137 556 137 c 3,21,22
EndSplineSet
EndChar

StartChar: r
Encoding: 114 114 86
Width: 682
Flags: W
HStem: 0 21G<133 313> 947 148<408.002 665.328> 1042 20G<133 313>
VStem: 133 180<0 828.466 972 1062>
LayerCount: 3
Fore
SplineSet
518 947 m 3xd0
 395 947 313 821 313 575 c 2
 313 0 l 1
 133 0 l 1
 133 1062 l 1
 313 1062 l 1xb0
 313 972 l 1
 344 1008 416 1095 533 1095 c 3
 598 1095 657 1079 710 1046 c 1
 648 908 l 1
 604 934 561 947 518 947 c 3xd0
EndSplineSet
Validated: 1
Layer: 2
SplineSet
518 947 m 3,0,1
 423 947 423 947 368 851 c 128,-1,2
 313 755 313 755 313 575 c 2,3,-1
 313 0 l 1,4,-1
 133 0 l 1,5,-1
 133 1062 l 1,6,-1
 313 1062 l 1,7,-1
 313 972 l 1,8,9
 333 995 333 995 346 1008 c 128,-1,10
 359 1021 359 1021 389 1045.5 c 128,-1,11
 419 1070 419 1070 455.5 1082.5 c 128,-1,12
 492 1095 492 1095 533 1095 c 0,13,14
 631 1095 631 1095 710 1046 c 1,15,-1
 648 908 l 1,16,17
 582 947 582 947 518 947 c 3,0,1
EndSplineSet
EndChar

StartChar: s
Encoding: 115 115 87
Width: 1024
Flags: W
HStem: -11 148<343.393 680.567> 947 148<340.672 654.558>
VStem: 63 178<244.532 358> 93 180<702.811 883.151> 729 176<769 876.695> 765 180<211.267 397.956>
LayerCount: 3
Fore
SplineSet
945 325 m 3xd4
 945 123 764 -11 517 -11 c 3
 247 -11 79 119 63 358 c 1
 241 358 l 1
 260 219 352 137 516 137 c 3
 652 137 765 213 765 306 c 3xe4
 765 414 651 444 517 470 c 0
 293 513 93 548 93 785 c 3
 93 992 271 1095 484 1095 c 3
 835 1095 905 872 905 769 c 1
 729 769 l 1xd8
 714 878 645 947 499 947 c 3
 375 947 273 887 273 783 c 3
 273 692 365 668 517 639 c 0
 728 599 945 568 945 325 c 3xd4
EndSplineSet
Validated: 1
Layer: 2
SplineSet
945 325 m 3,0,1
 945 175 945 175 824.5 82 c 128,-1,2
 704 -11 704 -11 517 -11 c 0,3,4
 313 -11 313 -11 194 84.5 c 128,-1,5
 75 180 75 180 63 358 c 1,6,-1
 241 358 l 1,7,8
 255 252 255 252 325 194.5 c 128,-1,9
 395 137 395 137 516 137 c 0,10,11
 618 137 618 137 691.5 186.5 c 128,-1,12
 765 236 765 236 765 306 c 0,13,14
 765 337 765 337 751 362 c 128,-1,15
 737 387 737 387 717 403 c 128,-1,16
 697 419 697 419 661.5 432.5 c 128,-1,17
 626 446 626 446 595 453.5 c 128,-1,18
 564 461 564 461 517 470 c 0,19,20
 337.593147861 504.439708223 337.593147861 504.439708223 269.237358062 531.897870678 c 0,21,22
 134.980220868 585.828258941 134.980220868 585.828258941 103.768286938 698.573356666 c 0,23,24
 93 737.471028495 93 737.471028495 93 785 c 0,25,26
 93 885 93 885 147 956.5 c 128,-1,27
 201 1028 201 1028 288 1061.5 c 128,-1,28
 375 1095 375 1095 484 1095 c 0,29,30
 584 1095 584 1095 662 1070.5 c 128,-1,31
 740 1046 740 1046 784.5 1010 c 128,-1,32
 829 974 829 974 857.5 927.5 c 128,-1,33
 886 881 886 881 895.5 842.5 c 128,-1,34
 905 804 905 804 905 769 c 1,35,-1
 729 769 l 1,36,37
 705 947 705 947 499 947 c 0,38,39
 402 947 402 947 337.5 903 c 128,-1,40
 273 859 273 859 273 783 c 0,41,42
 273 756 273 756 284.5 735.5 c 128,-1,43
 296 715 296 715 314 701.5 c 128,-1,44
 332 688 332 688 366 676 c 128,-1,45
 400 664 400 664 432 656.5 c 128,-1,46
 464 649 464 649 517 639 c 0,47,48
 688.393789757 606.508286302 688.393789757 606.508286302 749.648258061 584.549493365 c 0,49,50
 896.353076348 531.958052824 896.353076348 531.958052824 931.998295431 417.988537324 c 0,51,52
 945 376.417801933 945 376.417801933 945 325 c 3,0,1
EndSplineSet
EndChar

StartChar: t
Encoding: 116 116 88
Width: 569
Flags: W
HStem: -11 148<363.667 531.161> 914 148<18 167 347 497>
VStem: 167 180<151.382 914 1062 1433>
LayerCount: 3
Fore
SplineSet
347 295 m 2
 347 201 353 137 449 137 c 3
 466 137 492 140 528 145 c 1
 554 4 l 1
 506 -6 458 -11 411 -11 c 3
 203 -11 167 102 167 313 c 2
 167 914 l 1
 18 914 l 1
 18 1062 l 1
 167 1062 l 1
 167 1433 l 1
 347 1433 l 1
 347 1062 l 1
 497 1062 l 1
 497 914 l 1
 347 914 l 1
 347 295 l 2
EndSplineSet
Validated: 1
Layer: 2
SplineSet
347 295 m 2,0,1
 347 262 347 262 348.5 242 c 128,-1,2
 350 222 350 222 355.5 199.5 c 128,-1,3
 361 177 361 177 371.5 165 c 128,-1,4
 382 153 382 153 401.5 145 c 128,-1,5
 421 137 421 137 449 137 c 0,6,7
 470 137 470 137 528 145 c 1,8,-1
 554 4 l 1,9,10
 482 -11 482 -11 411 -11 c 0,11,12
 334 -11 334 -11 285 9 c 128,-1,13
 236 29 236 29 210.5 73 c 128,-1,14
 185 117 185 117 176 172 c 128,-1,15
 167 227 167 227 167 313 c 2,16,-1
 167 914 l 1,17,-1
 18 914 l 1,18,-1
 18 1062 l 1,19,-1
 167 1062 l 1,20,-1
 167 1433 l 1,21,-1
 347 1433 l 1,22,-1
 347 1062 l 1,23,-1
 497 1062 l 1,24,-1
 497 914 l 1,25,-1
 347 914 l 1,26,-1
 347 295 l 2,0,1
EndSplineSet
EndChar

StartChar: u
Encoding: 117 117 89
Width: 1139
Flags: W
HStem: -11 148<379.908 700.51> 1042 20G<104 284 789 969>
VStem: 104 180<233.576 1062> 789 180<0 63 226.897 1062>
LayerCount: 3
Fore
SplineSet
284 397 m 2
 284 189 422 137 534 137 c 3
 704 137 789 222 789 392 c 2
 789 1062 l 1
 969 1062 l 1
 969 0 l 1
 789 0 l 1
 789 63 l 1
 746 15 662 -11 541 -11 c 3
 255 -11 104 163 104 411 c 2
 104 1062 l 1
 284 1062 l 1
 284 397 l 2
EndSplineSet
Validated: 1
Layer: 2
SplineSet
284 397 m 2,0,1
 284 323 284 323 306.5 269.5 c 128,-1,2
 329 216 329 216 367.5 188.5 c 128,-1,3
 406 161 406 161 447 149 c 128,-1,4
 488 137 488 137 534 137 c 0,5,6
 789 137 789 137 789 392 c 2,7,-1
 789 1062 l 1,8,-1
 969 1062 l 1,9,-1
 969 0 l 1,10,-1
 789 0 l 1,11,-1
 789 63 l 1,12,13
 723 -11 723 -11 541 -11 c 0,14,15
 332 -11 332 -11 218 104.5 c 128,-1,16
 104 220 104 220 104 411 c 2,17,-1
 104 1062 l 1,18,-1
 284 1062 l 1,19,-1
 284 397 l 2,0,1
EndSplineSet
EndChar

StartChar: v
Encoding: 118 118 90
Width: 1024
Flags: W
HStem: 0 21G<421.411 606.552> 1042 20G<26 223.667 802.686 1000>
DStem2: 216 1062 26 1062 0.354787 -0.934947<0 849.268> 520 269 599 0 0.353246 0.93553<0 844.317>
LayerCount: 3
Fore
SplineSet
429 0 m 1
 26 1062 l 1
 216 1062 l 1
 520 269 l 1
 810 1062 l 1
 1000 1062 l 1
 599 0 l 1
 429 0 l 1
EndSplineSet
Validated: 1
Layer: 2
SplineSet
429 0 m 1,0,-1
 26 1062 l 1,1,-1
 216 1062 l 1,2,-1
 520 269 l 1,3,-1
 810 1062 l 1,4,-1
 1000 1062 l 1,5,-1
 599 0 l 1,6,-1
 429 0 l 1,0,-1
EndSplineSet
EndChar

StartChar: w
Encoding: 119 119 91
Width: 1479
Flags: W
HStem: 0 21G<324.879 524.41 969.415 1168.65> 1042 20G<6 197.686 642.51 837.809 1282.63 1463>
DStem2: 192 1062 6 1062 0.29263 -0.956226<0 848.17> 424 246 519 0 0.261117 0.965307<0 633.703> 832 1062 740 817 0.27643 -0.961034<210.022 849.718> 1069 246 1163 0 0.271848 0.96234<0 844.804>
LayerCount: 3
Fore
SplineSet
331 0 m 1
 6 1062 l 1
 192 1062 l 1
 424 246 l 1
 648 1062 l 1
 832 1062 l 1
 1069 246 l 1
 1288 1062 l 1
 1463 1062 l 1
 1163 0 l 1
 975 0 l 1
 901 265 l 1
 798 623 744 807 740 817 c 1
 519 0 l 1
 331 0 l 1
EndSplineSet
Validated: 1
Layer: 2
SplineSet
331 0 m 1,0,-1
 6 1062 l 1,1,-1
 192 1062 l 1,2,-1
 424 246 l 1,3,-1
 648 1062 l 1,4,-1
 832 1062 l 1,5,-1
 1069 246 l 1,6,-1
 1288 1062 l 1,7,-1
 1463 1062 l 1,8,-1
 1163 0 l 1,9,-1
 975 0 l 1,10,-1
 901 265 l 1,11,12
 748 798 748 798 740 817 c 1,13,-1
 519 0 l 1,14,-1
 331 0 l 1,0,-1
EndSplineSet
EndChar

StartChar: x
Encoding: 120 120 92
Width: 1024
Flags: W
HStem: 0 21G<15 245.983 774.492 1009> 1042 20G<44 281.5 751.489 981>
DStem2: 15 0 233 0 0.577377 0.816478<125.868 125.868 846.086 1300.71> 607 562 505 419 0.573773 -0.819014<58.5942 564.139>
LayerCount: 3
Fore
SplineSet
15 0 m 1
 396 552 l 1
 44 1062 l 1
 269 1062 l 1
 499 694 l 1
 766 1062 l 1
 981 1062 l 1
 607 562 l 1
 1009 0 l 1
 788 0 l 1
 505 419 l 1
 233 0 l 1
 15 0 l 1
EndSplineSet
Validated: 1
Layer: 2
SplineSet
15 0 m 1,0,-1
 396 552 l 1,1,-1
 44 1062 l 1,2,-1
 269 1062 l 1,3,-1
 499 694 l 1,4,-1
 766 1062 l 1,5,-1
 981 1062 l 1,6,-1
 607 562 l 1,7,-1
 1009 0 l 1,8,-1
 788 0 l 1,9,-1
 505 419 l 1,10,-1
 233 0 l 1,11,-1
 15 0 l 1,0,-1
EndSplineSet
EndChar

StartChar: y
Encoding: 121 121 93
Width: 1024
Flags: W
HStem: -428 148<127 350.528> 1042 20G<33 233.922 819.008 1006>
DStem2: 227 1062 33 1062 0.354204 -0.935168<0 910.733> 525 201 602 -1 0.355264 0.934766<0 911.768>
LayerCount: 3
Fore
SplineSet
127 -415 m 1
 107 -266 l 1
 141 -275 177 -280 214 -280 c 3
 412 -280 431 -111 436 -2 c 1
 33 1062 l 1
 227 1062 l 1
 525 201 l 1
 826 1062 l 1
 1006 1062 l 1
 602 -1 l 1
 583 -181 532 -428 239 -428 c 3
 197 -428 157 -427 127 -415 c 1
EndSplineSet
Validated: 1
Layer: 2
SplineSet
127 -415 m 1,0,-1
 107 -266 l 1,1,2
 160 -280 160 -280 214 -280 c 0,3,4
 271 -280 271 -280 312.5 -260.5 c 128,-1,5
 354 -241 354 -241 376.5 -214.5 c 128,-1,6
 399 -188 399 -188 412.5 -146 c 128,-1,7
 426 -104 426 -104 430 -73.5 c 128,-1,8
 434 -43 434 -43 436 -2 c 1,9,-1
 33 1062 l 1,10,-1
 227 1062 l 1,11,-1
 525 201 l 1,12,-1
 826 1062 l 1,13,-1
 1006 1062 l 1,14,-1
 602 -1 l 1,15,16
 596 -54 596 -54 588.5 -96 c 128,-1,17
 581 -138 581 -138 565 -191 c 128,-1,18
 549 -244 549 -244 523 -283 c 128,-1,19
 497 -322 497 -322 459.5 -356.5 c 128,-1,20
 422 -391 422 -391 366 -409.5 c 128,-1,21
 310 -428 310 -428 239 -428 c 0,22,23
 160 -428 160 -428 127 -415 c 1,0,-1
EndSplineSet
EndChar

StartChar: z
Encoding: 122 122 94
Width: 1024
Flags: W
HStem: 0 148<262 980> 914 148<60 716>
DStem2: 40 148 262 148 0.667136 0.744936<148.104 1021.6>
LayerCount: 3
Fore
SplineSet
40 0 m 1
 40 148 l 1
 716 914 l 1
 60 914 l 1
 60 1062 l 1
 948 1062 l 1
 948 914 l 1
 262 148 l 1
 980 148 l 1
 980 0 l 1
 40 0 l 1
EndSplineSet
Validated: 1
Layer: 2
SplineSet
40 0 m 1,0,-1
 40 148 l 1,1,-1
 716 914 l 1,2,-1
 60 914 l 1,3,-1
 60 1062 l 1,4,-1
 948 1062 l 1,5,-1
 948 914 l 1,6,-1
 262 148 l 1,7,-1
 980 148 l 1,8,-1
 980 0 l 1,9,-1
 40 0 l 1,0,-1
EndSplineSet
EndChar

StartChar: braceleft
Encoding: 123 123 95
Width: 684
Flags: W
HStem: -431 148<480.289 636> 456 148<57 179.009> 1343 148<480.289 636>
VStem: 264 180<-248.841 368.868 696.115 1311.56>
CounterMasks: 1 e0
LayerCount: 3
Fore
SplineSet
57 604 m 1
 251 626 264 757 264 998 c 3
 264 1335 280 1491 580 1491 c 2
 636 1491 l 1
 636 1343 l 1
 605 1343 l 2
 461 1343 441 1330 441 975 c 3
 441 685 395 620 235 530 c 1
 402 454 444 344 444 80 c 3
 444 -248 461 -283 605 -283 c 2
 636 -283 l 1
 636 -431 l 1
 580 -431 l 2
 280 -431 264 -262 264 49 c 3
 264 315 257 430 57 456 c 1
 57 604 l 1
EndSplineSet
Validated: 1
Layer: 2
SplineSet
57 604 m 1,0,1
 105 609 105 609 139.5 623 c 128,-1,2
 174 637 174 637 197 663.5 c 128,-1,3
 220 690 220 690 233.5 718 c 128,-1,4
 247 746 247 746 253.5 794.5 c 128,-1,5
 260 843 260 843 262 886 c 128,-1,6
 264 929 264 929 264 998 c 0,7,8
 264 1062 264 1062 265 1104 c 128,-1,9
 266 1146 266 1146 269.5 1195.5 c 128,-1,10
 273 1245 273 1245 279.5 1276 c 128,-1,11
 286 1307 286 1307 297 1341.5 c 128,-1,12
 308 1376 308 1376 324.5 1396.5 c 128,-1,13
 341 1417 341 1417 364.5 1437.5 c 128,-1,14
 388 1458 388 1458 419 1468 c 128,-1,15
 450 1478 450 1478 490 1484.5 c 128,-1,16
 530 1491 530 1491 580 1491 c 2,17,-1
 636 1491 l 1,18,-1
 636 1343 l 1,19,-1
 605 1343 l 2,20,21
 563 1343 563 1343 542 1341 c 128,-1,22
 521 1339 521 1339 499 1326 c 128,-1,23
 477 1313 477 1313 468.5 1292.5 c 128,-1,24
 460 1272 460 1272 452 1227.5 c 128,-1,25
 444 1183 444 1183 442.5 1126 c 128,-1,26
 441 1069 441 1069 441 975 c 0,27,28
 441 829 441 829 421.5 748.5 c 128,-1,29
 402 668 402 668 361.5 623 c 128,-1,30
 321 578 321 578 235 530 c 1,31,32
 358 474 358 474 401 378 c 128,-1,33
 444 282 444 282 444 80 c 0,34,35
 444 14 444 14 445 -30 c 128,-1,36
 446 -74 446 -74 449 -114.5 c 128,-1,37
 452 -155 452 -155 456.5 -179 c 128,-1,38
 461 -203 461 -203 470.5 -224 c 128,-1,39
 480 -245 480 -245 490.5 -255 c 128,-1,40
 501 -265 501 -265 519 -272 c 128,-1,41
 537 -279 537 -279 556.5 -281 c 128,-1,42
 576 -283 576 -283 605 -283 c 2,43,-1
 636 -283 l 1,44,-1
 636 -431 l 1,45,-1
 580 -431 l 2,46,47
 530 -431 530 -431 490 -424.5 c 128,-1,48
 450 -418 450 -418 419 -407 c 128,-1,49
 388 -396 388 -396 364.5 -375.5 c 128,-1,50
 341 -355 341 -355 324.5 -334 c 128,-1,51
 308 -313 308 -313 297 -279 c 128,-1,52
 286 -245 286 -245 279.5 -214.5 c 128,-1,53
 273 -184 273 -184 269.5 -136.5 c 128,-1,54
 266 -89 266 -89 265 -49.5 c 128,-1,55
 264 -10 264 -10 264 49 c 0,56,57
 264 101 264 101 263.5 132.5 c 128,-1,58
 263 164 263 164 261 204 c 128,-1,59
 259 244 259 244 255 267.5 c 128,-1,60
 251 291 251 291 243.5 319 c 128,-1,61
 236 347 236 347 225.5 363.5 c 128,-1,62
 215 380 215 380 199.5 397.5 c 128,-1,63
 184 415 184 415 163.5 425 c 128,-1,64
 143 435 143 435 116.5 443.5 c 128,-1,65
 90 452 90 452 57 456 c 1,66,-1
 57 604 l 1,0,1
EndSplineSet
EndChar

StartChar: bar
Encoding: 124 124 96
Width: 532
Flags: W
VStem: 176 180<-431 1491>
LayerCount: 3
Fore
SplineSet
176 -431 m 1
 176 1491 l 1
 356 1491 l 1
 356 -431 l 1
 176 -431 l 1
EndSplineSet
Validated: 1
Layer: 2
SplineSet
176 -431 m 1,0,-1
 176 1491 l 1,1,-1
 356 1491 l 1,2,-1
 356 -431 l 1,3,-1
 176 -431 l 1,0,-1
EndSplineSet
EndChar

StartChar: braceright
Encoding: 125 125 97
Width: 684
Flags: W
HStem: -431 148<48 203.711> 456 148<504.991 627> 1343 148<48 203.711>
VStem: 240 180<-248.841 368.868 696.115 1311.56>
CounterMasks: 1 e0
LayerCount: 3
Fore
SplineSet
627 604 m 1
 627 456 l 1
 427 430 420 315 420 49 c 3
 420 -262 404 -431 104 -431 c 2
 48 -431 l 1
 48 -283 l 1
 79 -283 l 2
 223 -283 240 -248 240 80 c 3
 240 344 282 454 449 530 c 1
 289 620 243 685 243 975 c 3
 243 1330 223 1343 79 1343 c 2
 48 1343 l 1
 48 1491 l 1
 104 1491 l 2
 404 1491 420 1335 420 998 c 3
 420 757 433 626 627 604 c 1
EndSplineSet
Validated: 1
Layer: 2
SplineSet
627 604 m 1,0,-1
 627 456 l 1,1,2
 594 452 594 452 567.5 443.5 c 128,-1,3
 541 435 541 435 520.5 425 c 128,-1,4
 500 415 500 415 484.5 397.5 c 128,-1,5
 469 380 469 380 458.5 363.5 c 128,-1,6
 448 347 448 347 440.5 319 c 128,-1,7
 433 291 433 291 429 267.5 c 128,-1,8
 425 244 425 244 423 204 c 128,-1,9
 421 164 421 164 420.5 132.5 c 128,-1,10
 420 101 420 101 420 49 c 0,11,12
 420 -10 420 -10 419 -49.5 c 128,-1,13
 418 -89 418 -89 414.5 -136.5 c 128,-1,14
 411 -184 411 -184 404.5 -214.5 c 128,-1,15
 398 -245 398 -245 387 -279 c 128,-1,16
 376 -313 376 -313 359.5 -334 c 128,-1,17
 343 -355 343 -355 319.5 -375.5 c 128,-1,18
 296 -396 296 -396 265 -407 c 128,-1,19
 234 -418 234 -418 194 -424.5 c 128,-1,20
 154 -431 154 -431 104 -431 c 2,21,-1
 48 -431 l 1,22,-1
 48 -283 l 1,23,-1
 79 -283 l 2,24,25
 108 -283 108 -283 127.5 -281 c 128,-1,26
 147 -279 147 -279 165 -272 c 128,-1,27
 183 -265 183 -265 193.5 -255 c 128,-1,28
 204 -245 204 -245 213.5 -224 c 128,-1,29
 223 -203 223 -203 227.5 -179 c 128,-1,30
 232 -155 232 -155 235 -114.5 c 128,-1,31
 238 -74 238 -74 239 -30 c 128,-1,32
 240 14 240 14 240 80 c 0,33,34
 240 282 240 282 283 378 c 128,-1,35
 326 474 326 474 449 530 c 1,36,37
 363 578 363 578 322.5 623 c 128,-1,38
 282 668 282 668 262.5 748.5 c 128,-1,39
 243 829 243 829 243 975 c 0,40,41
 243 1069 243 1069 241.5 1126 c 128,-1,42
 240 1183 240 1183 232 1227.5 c 128,-1,43
 224 1272 224 1272 215.5 1292.5 c 128,-1,44
 207 1313 207 1313 185 1326 c 128,-1,45
 163 1339 163 1339 142 1341 c 128,-1,46
 121 1343 121 1343 79 1343 c 2,47,-1
 48 1343 l 1,48,-1
 48 1491 l 1,49,-1
 104 1491 l 2,50,51
 154 1491 154 1491 194 1484.5 c 128,-1,52
 234 1478 234 1478 265 1468 c 128,-1,53
 296 1458 296 1458 319.5 1437.5 c 128,-1,54
 343 1417 343 1417 359.5 1396.5 c 128,-1,55
 376 1376 376 1376 387 1341.5 c 128,-1,56
 398 1307 398 1307 404.5 1276 c 128,-1,57
 411 1245 411 1245 414.5 1195.5 c 128,-1,58
 418 1146 418 1146 419 1104 c 128,-1,59
 420 1062 420 1062 420 998 c 0,60,61
 420 929 420 929 422 886 c 128,-1,62
 424 843 424 843 430.5 794.5 c 128,-1,63
 437 746 437 746 450.5 718 c 128,-1,64
 464 690 464 690 487 663.5 c 128,-1,65
 510 637 510 637 544.5 623 c 128,-1,66
 579 609 579 609 627 604 c 1,0,-1
EndSplineSet
EndChar

StartChar: asciitilde
Encoding: 126 126 98
Width: 1196
Flags: W
HStem: 568 170<688.953 994.271> 702 170<197.32 520.352>
LayerCount: 3
Fore
SplineSet
348 702 m 3x40
 246 702 178 654 87 566 c 1
 87 752 l 1
 158 832 250 872 365 872 c 3x40
 559 872 716 738 852 738 c 3
 955 738 1055 816 1110 875 c 1
 1110 682 l 1
 1025 603 944 568 833 568 c 3x80
 635 568 510 702 348 702 c 3x40
EndSplineSet
Validated: 1
Layer: 2
SplineSet
348 702 m 3,0,1
 276 702 276 702 218.5 670 c 128,-1,2
 161 638 161 638 87 566 c 1,3,-1
 87 752 l 1,4,5
 193 872 193 872 365 872 c 0,6,7
 430 872 430 872 503.5 851 c 128,-1,8
 577 830 577 830 630.5 805 c 128,-1,9
 684 780 684 780 745.5 759 c 128,-1,10
 807 738 807 738 852 738 c 0,11,12
 922 738 922 738 990.5 779.5 c 128,-1,13
 1059 821 1059 821 1110 875 c 1,14,-1
 1110 682 l 1,15,16
 1046 622 1046 622 980.5 595 c 128,-1,17
 915 568 915 568 833 568 c 0,18,19
 767 568 767 568 697 589 c 128,-1,20
 627 610 627 610 577 635 c 128,-1,21
 527 660 527 660 464.5 681 c 128,-1,22
 402 702 402 702 348 702 c 3,0,1
EndSplineSet
EndChar

StartChar: exclamdown
Encoding: 161 161 100
Width: 569
Flags: W
HStem: 0 21G<198 378> 1065 20G<240.612 335.388> 1256 194<198 378>
VStem: 198 180<0 657.569 1256 1450>
LayerCount: 3
Fore
SplineSet
198 451 m 1
 242 1085 l 1
 334 1085 l 1
 378 451 l 1
 378 0 l 1
 198 0 l 1
 198 451 l 1
198 1256 m 1
 198 1450 l 1
 378 1450 l 1
 378 1256 l 1
 198 1256 l 1
EndSplineSet
Validated: 1
Layer: 2
SplineSet
198 451 m 1,0,-1
 242 1085 l 1,1,-1
 334 1085 l 1,2,-1
 378 451 l 1,3,-1
 378 0 l 1,4,-1
 198 0 l 1,5,-1
 198 451 l 1,0,-1
198 1256 m 1,6,-1
 198 1450 l 1,7,-1
 378 1450 l 1,8,-1
 378 1256 l 1,9,-1
 198 1256 l 1,6,-1
EndSplineSet
EndChar

StartChar: cent
Encoding: 162 162 101
Width: 1118
Flags: W
HStem: 3 150<449.651 524 704 840.938> 965 149<443.208 524 704 840.707> 1455 20G<524 704>
VStem: 114 180<320.93 799.705> 524 180<-361 7.89771 159 961 1110 1475>
LayerCount: 3
Back
SplineSet
524 1475 m 1
 704 1475 l 1
 704 -361 l 1
 524 -361 l 1
 524 1475 l 1
614 148 m 3
 720 148 821 159 965 281 c 1
 975 281 l 1
 975 83 l 1
 807 5 720 0 614 0 c 3
 274 0 114 242 114 557 c 3
 114 888 302 1119 614 1119 c 3
 759 1119 890 1081 975 1037 c 1
 975 837 l 1
 965 837 l 1
 820 958 712 971 614 971 c 3
 488 971 294 917 294 557 c 3
 294 286 420 148 614 148 c 3
EndSplineSet
Fore
SplineSet
524 1475 m 1
 704 1475 l 1
 704 1114 l 1
 812 1102 908 1072 975 1037 c 1
 975 837 l 1
 965 837 l 1
 863 922 779 954 704 965 c 1
 704 153 l 1
 781 163 862 194 965 281 c 1
 975 281 l 1
 975 83 l 1
 856 28 777 9 704 3 c 1
 704 -361 l 1
 524 -361 l 1
 524 6 l 1
 246 45 114 271 114 557 c 3
 114 855 266 1072 524 1112 c 1
 524 1475 l 1
524 961 m 1
 412 933 294 838 294 557 c 3
 294 331 382 197 524 159 c 1
 524 961 l 1
EndSplineSet
Validated: 1
Layer: 2
SplineSet
524 1475 m 1,0,-1
 704 1475 l 1,1,-1
 704 1114 l 1,2,3
 861 1097 861 1097 975 1037 c 1,4,-1
 975 837 l 1,5,-1
 965 837 l 1,6,7
 834 946 834 946 704 965 c 1,8,-1
 704 153 l 1,9,10
 833 170 833 170 965 281 c 1,11,-1
 975 281 l 1,12,-1
 975 83 l 1,13,14
 823 13 823 13 704 3 c 1,15,-1
 704 -361 l 1,16,-1
 524 -361 l 1,17,-1
 524 6 l 1,18,19
 323 34 323 34 218.5 183.5 c 128,-1,20
 114 333 114 333 114 557 c 0,21,22
 114 783 114 783 223 932.5 c 128,-1,23
 332 1082 332 1082 524 1112 c 1,24,-1
 524 1475 l 1,0,-1
524 961 m 1,25,26
 478 950 478 950 440 925 c 128,-1,27
 402 900 402 900 367.5 855 c 128,-1,28
 333 810 333 810 313.5 734 c 128,-1,29
 294 658 294 658 294 557 c 0,30,31
 294 391 294 391 354.5 289.5 c 128,-1,32
 415 188 415 188 524 159 c 1,33,-1
 524 961 l 1,25,26
EndSplineSet
EndChar

StartChar: sterling
Encoding: 163 163 102
Width: 1118
Flags: W
HStem: 0 206<89 174.079> 0 170<261 1031> 597 170<130 291 471 847> 1264 206<914.559 1001> 1348 170<575.821 919.925>
VStem: 291 180<360.402 597 767 1233.56>
LayerCount: 3
Fore
SplineSet
471 552 m 2x2c
 471 330 322 217 261 181 c 1
 261 170 l 1
 1031 170 l 1
 1031 0 l 1x6c
 89 0 l 1
 89 206 l 1
 253 255 291 398 291 597 c 1
 130 597 l 1
 130 767 l 1
 291 767 l 1
 291 1071 l 2
 291 1340 459 1518 708 1518 c 3xac
 789 1518 838 1516 1001 1470 c 1
 1001 1264 l 1
 991 1264 l 1x34
 903 1325 806 1348 727 1348 c 3
 553 1348 471 1232 471 1052 c 2
 471 767 l 1
 847 767 l 1
 847 597 l 1
 471 597 l 1
 471 552 l 2x2c
EndSplineSet
Validated: 1
Layer: 2
SplineSet
471 552 m 2,0,1
 471 489 471 489 454.5 432 c 128,-1,2
 438 375 438 375 415 336 c 128,-1,3
 392 297 392 297 361 263.5 c 128,-1,4
 330 230 330 230 307 212 c 128,-1,5
 284 194 284 194 261 181 c 1,6,-1
 261 170 l 1,7,-1
 1031 170 l 1,8,-1
 1031 0 l 1,9,-1
 89 0 l 1,10,-1
 89 206 l 1,11,12
 149 224 149 224 189.5 259 c 128,-1,13
 230 294 230 294 251.5 346.5 c 128,-1,14
 273 399 273 399 282 458 c 128,-1,15
 291 517 291 517 291 597 c 1,16,-1
 130 597 l 1,17,-1
 130 767 l 1,18,-1
 291 767 l 1,19,-1
 291 1071 l 2,20,21
 291 1272 291 1272 406 1395 c 128,-1,22
 521 1518 521 1518 708 1518 c 0,23,24
 778 1518 778 1518 833 1510 c 128,-1,25
 888 1502 888 1502 1001 1470 c 1,26,-1
 1001 1264 l 1,27,-1
 991 1264 l 1,28,29
 870 1348 870 1348 727 1348 c 0,30,31
 600 1348 600 1348 535.5 1269.5 c 128,-1,32
 471 1191 471 1191 471 1052 c 2,33,-1
 471 767 l 1,34,-1
 847 767 l 1,35,-1
 847 597 l 1,36,-1
 471 597 l 1,37,-1
 471 552 l 2,0,1
EndSplineSet
EndChar

StartChar: currency
Encoding: 164 164 103
Width: 1118
Flags: W
HStem: 326 170<455.259 666.078> 826 170<455.844 666.221>
VStem: 225 180<546.034 774.778> 716 180<546.103 776.687>
DStem2: 172 1157 65 1051 0.707506 -0.706707<0 314.361 937.953 1251.49> 65 273 170 164 0.706708 0.707505<0 313.918 936.496 1249.46>
LayerCount: 3
Fore
SplineSet
896 661 m 3
 896 608 881 545 843 486 c 1
 1057 272 l 1
 951 166 l 1
 737 378 l 1
 674 340 631 326 560 326 c 3
 490 326 426 353 385 379 c 1
 170 164 l 1
 65 273 l 1
 277 486 l 1
 240 546 225 613 225 661 c 3
 225 730 249 788 278 835 c 1
 65 1051 l 1
 172 1157 l 1
 386 944 l 1
 445 982 508 996 560 996 c 3
 630 996 692 971 736 945 c 1
 948 1157 l 1
 1057 1052 l 1
 843 836 l 1
 878 780 896 731 896 661 c 3
560 496 m 3
 640 496 716 563 716 661 c 3
 716 756 643 826 560 826 c 3
 481 826 405 759 405 661 c 3
 405 566 478 496 560 496 c 3
EndSplineSet
Validated: 1
Layer: 2
SplineSet
896 661 m 3,0,1
 896 568 896 568 843 486 c 1,2,-1
 1057 272 l 1,3,-1
 951 166 l 1,4,-1
 737 378 l 1,5,6
 689 349 689 349 650.5 337.5 c 128,-1,7
 612 326 612 326 560 326 c 0,8,9
 469 326 469 326 385 379 c 1,10,-1
 170 164 l 1,11,-1
 65 273 l 1,12,-1
 277 486 l 1,13,14
 225 570 225 570 225 661 c 0,15,16
 225 749 225 749 278 835 c 1,17,-1
 65 1051 l 1,18,-1
 172 1157 l 1,19,-1
 386 944 l 1,20,21
 467 996 467 996 560 996 c 0,22,23
 650 996 650 996 736 945 c 1,24,-1
 948 1157 l 1,25,-1
 1057 1052 l 1,26,-1
 843 836 l 1,27,28
 896 751 896 751 896 661 c 3,0,1
560 496 m 3,29,30
 622 496 622 496 669 543 c 128,-1,31
 716 590 716 590 716 661 c 0,32,33
 716 731 716 731 669.5 778.5 c 128,-1,34
 623 826 623 826 560 826 c 0,35,36
 498 826 498 826 451.5 779 c 128,-1,37
 405 732 405 732 405 661 c 0,38,39
 405 591 405 591 451 543.5 c 128,-1,40
 497 496 497 496 560 496 c 3,29,30
EndSplineSet
EndChar

StartChar: yen
Encoding: 165 165 104
Width: 1118
Flags: W
HStem: 0 21G<469 649> 424 170<125 469 649 993>
VStem: 469 180<0 424 594 657>
DStem2: 266 1489 56 1489 0.446353 -0.894857<0 656.509> 560 902 647 678 0.452921 0.891551<0 658.311>
LayerCount: 3
Fore
SplineSet
1059 1489 m 1
 647 678 l 1
 647 594 l 1
 993 594 l 1
 993 424 l 1
 649 424 l 1
 649 0 l 1
 469 0 l 1
 469 424 l 1
 125 424 l 1
 125 594 l 1
 471 594 l 1
 471 657 l 1
 56 1489 l 1
 266 1489 l 1
 560 902 l 1
 858 1489 l 1
 1059 1489 l 1
EndSplineSet
Validated: 1
Layer: 2
SplineSet
1059 1489 m 1,0,-1
 647 678 l 1,1,-1
 647 594 l 1,2,-1
 993 594 l 1,3,-1
 993 424 l 1,4,-1
 649 424 l 1,5,-1
 649 0 l 1,6,-1
 469 0 l 1,7,-1
 469 424 l 1,8,-1
 125 424 l 1,9,-1
 125 594 l 1,10,-1
 471 594 l 1,11,-1
 471 657 l 1,12,-1
 56 1489 l 1,13,-1
 266 1489 l 1,14,-1
 560 902 l 1,15,-1
 858 1489 l 1,16,-1
 1059 1489 l 1,0,-1
EndSplineSet
EndChar

StartChar: brokenbar
Encoding: 166 166 105
Width: 783
Flags: W
VStem: 302 180<-392 406 758 1556>
LayerCount: 3
Fore
SplineSet
482 758 m 1
 302 758 l 1
 302 1556 l 1
 482 1556 l 1
 482 758 l 1
482 -392 m 1
 302 -392 l 1
 302 406 l 1
 482 406 l 1
 482 -392 l 1
EndSplineSet
Validated: 1
Layer: 2
SplineSet
482 758 m 1,0,-1
 302 758 l 1,1,-1
 302 1556 l 1,2,-1
 482 1556 l 1,3,-1
 482 758 l 1,0,-1
482 -392 m 1,4,-1
 302 -392 l 1,5,-1
 302 406 l 1,6,-1
 482 406 l 1,7,-1
 482 -392 l 1,4,-1
EndSplineSet
EndChar

StartChar: section
Encoding: 167 167 106
Width: 1118
Flags: W
HStem: -385 170<276.086 702.343> -327 194<172 294.872> 1268 194<826.462 946> 1349 170<409.672 848.225>
VStem: 119 180<447.647 702.495> 148 180<1055.4 1278.67> 789 180<-141.219 77.4899> 818 180<430.026 682.274>
DStem2: 492 369 460 192 0.955543 -0.294853<-182.588 215.275>
LayerCount: 3
Fore
SplineSet
667 315 m 1x09
 700 335 818 411 818 555 c 3
 818 711 705 739 549 788 c 2
 450 819 l 1
 324 741 299 624 299 579 c 3
 299 444 385 402 492 369 c 2
 667 315 l 1x09
490 -385 m 3x92
 368 -385 263 -360 172 -327 c 1
 172 -133 l 1
 182 -133 l 1x42
 245 -160 370 -215 509 -215 c 3
 618 -215 789 -183 789 -36 c 3
 789 76 711 121 594 154 c 2
 460 192 l 2
 287 242 119 308 119 533 c 3x8a
 119 611 144 752 318 858 c 1
 318 865 l 1
 249 902 148 978 148 1147 c 3
 148 1320 268 1519 628 1519 c 3x94
 755 1519 848 1497 946 1462 c 1
 946 1268 l 1
 936 1268 l 1x24
 765 1348 660 1349 607 1349 c 3
 470 1349 328 1302 328 1176 c 3
 328 1036 430 1000 657 942 c 0
 864 889 998 805 998 601 c 3x15
 998 516 973 381 799 277 c 1
 799 270 l 1
 872 231 969 158 969 -10 c 3
 969 -160 866 -385 490 -385 c 3x92
EndSplineSet
Validated: 1
Layer: 2
SplineSet
667 315 m 1,0,1
 818 407 818 407 818 555 c 0,2,3
 818 599 818 599 806 631.5 c 128,-1,4
 794 664 794 664 772.5 686 c 128,-1,5
 751 708 751 708 719.5 725 c 128,-1,6
 688 742 688 742 651 755 c 128,-1,7
 614 768 614 768 569.522328931 781.58324301 c 0,8,9
 563 784 563 784 558.5 785.5 c 128,-1,10
 554 787 554 787 549 788 c 2,11,-1
 450 819 l 1,12,13
 406 792 406 792 374 756 c 128,-1,14
 342 720 342 720 327 686 c 128,-1,15
 312 652 312 652 305.5 625.5 c 128,-1,16
 299 599 299 599 299 579 c 0,17,18
 299 487 299 487 348 442.5 c 128,-1,19
 397 398 397 398 492 369 c 2,20,-1
 667 315 l 1,0,1
490 -385 m 3,21,22
 332 -385 332 -385 172 -327 c 1,23,-1
 172 -133 l 1,24,-1
 182 -133 l 1,25,26
 373 -215 373 -215 509 -215 c 0,27,28
 556 -215 556 -215 600 -207 c 128,-1,29
 644 -199 644 -199 689 -181 c 128,-1,30
 734 -163 734 -163 761.5 -125.5 c 128,-1,31
 789 -88 789 -88 789 -36 c 0,32,33
 789 42 789 42 740 84.5 c 128,-1,34
 691 127 691 127 594 154 c 2,35,-1
 460 192 l 2,36,37
 399 210 399 210 357 225.5 c 128,-1,38
 315 241 315 241 266 269 c 128,-1,39
 217 297 217 297 188 330.5 c 128,-1,40
 159 364 159 364 139 416 c 128,-1,41
 119 468 119 468 119 533 c 0,42,43
 119 568 119 568 126.5 603 c 128,-1,44
 134 638 134 638 153 683.5 c 128,-1,45
 172 729 172 729 214.5 775 c 128,-1,46
 257 821 257 821 318 858 c 1,47,-1
 318 865 l 1,48,49
 148 956 148 956 148 1147 c 0,50,51
 148 1201 148 1201 163 1252 c 128,-1,52
 178 1303 178 1303 214 1352.5 c 128,-1,53
 250 1402 250 1402 303.5 1438 c 128,-1,54
 357 1474 357 1474 440.5 1496.5 c 128,-1,55
 524 1519 524 1519 628 1519 c 0,56,57
 786 1519 786 1519 946 1462 c 1,58,-1
 946 1268 l 1,59,-1
 936 1268 l 1,60,61
 763 1349 763 1349 607 1349 c 0,62,63
 534 1349 534 1349 473.5 1333 c 128,-1,64
 413 1317 413 1317 370.5 1276.5 c 128,-1,65
 328 1236 328 1236 328 1176 c 0,66,67
 328 1141 328 1141 336 1114 c 128,-1,68
 344 1087 344 1087 364 1065.5 c 128,-1,69
 384 1044 384 1044 407 1028.5 c 128,-1,70
 430 1013 430 1013 472 997 c 128,-1,71
 514 981 514 981 553.5 969.5 c 128,-1,72
 593 958 593 958 657 942 c 0,73,74
 826 899 826 899 912 822 c 128,-1,75
 998 745 998 745 998 601 c 0,76,77
 998 396 998 396 799 277 c 1,78,-1
 799 270 l 1,79,80
 969 179 969 179 969 -10 c 0,81,82
 969 -59 969 -59 956 -107 c 128,-1,83
 943 -155 943 -155 908.5 -206.5 c 128,-1,84
 874 -258 874 -258 821.5 -296.5 c 128,-1,85
 769 -335 769 -335 683.5 -360 c 128,-1,86
 598 -385 598 -385 490 -385 c 3,21,22
EndSplineSet
EndChar

StartChar: dieresis
Encoding: 168 168 107
Width: 1118
Flags: W
HStem: 1304 195<253 454 666 867>
VStem: 253 201<1304 1499> 666 201<1304 1499>
LayerCount: 3
Fore
SplineSet
867 1304 m 1
 666 1304 l 1
 666 1499 l 1
 867 1499 l 1
 867 1304 l 1
454 1304 m 1
 253 1304 l 1
 253 1499 l 1
 454 1499 l 1
 454 1304 l 1
EndSplineSet
Validated: 1
Layer: 2
SplineSet
867 1304 m 1,0,-1
 666 1304 l 1,1,-1
 666 1499 l 1,2,-1
 867 1499 l 1,3,-1
 867 1304 l 1,0,-1
454 1304 m 1,4,-1
 253 1304 l 1,5,-1
 253 1499 l 1,6,-1
 454 1499 l 1,7,-1
 454 1304 l 1,4,-1
EndSplineSet
EndChar

StartChar: copyright
Encoding: 169 169 108
Width: 1902
Flags: W
HStem: -210 110<713.465 1188.53> 180 148<828.015 1153.54> 255 179<1188.38 1274> 889 181<1189.45 1274> 995 148<830.437 1152.57> 1409 110<713.659 1188.34>
VStem: 86 116<406.773 903.135> 531 180<458.375 866.415> 1700 116<406.773 903.135>
LayerCount: 3
Fore
SplineSet
1816 655 m 3x8780
 1816 181 1425 -210 951 -210 c 3
 477 -210 86 181 86 655 c 3
 86 1128 477 1519 951 1519 c 3
 1425 1519 1816 1128 1816 655 c 3x8780
1700 655 m 3
 1700 1069 1362 1409 951 1409 c 3
 540 1409 202 1069 202 655 c 3
 202 242 539 -100 951 -100 c 3
 1363 -100 1700 242 1700 655 c 3
986 328 m 3xcf80
 1124 328 1238 427 1258 434 c 1
 1274 434 l 1
 1274 255 l 1xa780
 1136 194 1076 180 982 180 c 3
 781 180 531 276 531 660 c 3
 531 973 718 1143 982 1143 c 3xcf80
 1099 1143 1202 1106 1274 1070 c 1
 1274 889 l 1
 1258 889 l 1x9780
 1203 926 1095 995 986 995 c 3
 878 995 711 948 711 660 c 3
 711 375 878 328 986 328 c 3xcf80
EndSplineSet
Validated: 1
Layer: 2
SplineSet
1816 655 m 3,0,1
 1816 480 1816 480 1747 320 c 128,-1,2
 1678 160 1678 160 1562 44 c 128,-1,3
 1446 -72 1446 -72 1286 -141 c 128,-1,4
 1126 -210 1126 -210 951 -210 c 128,-1,5
 776 -210 776 -210 616 -141 c 128,-1,6
 456 -72 456 -72 340 44 c 128,-1,7
 224 160 224 160 155 320 c 128,-1,8
 86 480 86 480 86 655 c 0,9,10
 86 829 86 829 155 989 c 128,-1,11
 224 1149 224 1149 340 1265 c 128,-1,12
 456 1381 456 1381 616.5 1450 c 128,-1,13
 777 1519 777 1519 951 1519 c 128,-1,14
 1125 1519 1125 1519 1285.5 1450 c 128,-1,15
 1446 1381 1446 1381 1562 1265 c 128,-1,16
 1678 1149 1678 1149 1747 989 c 128,-1,17
 1816 829 1816 829 1816 655 c 3,0,1
1700 655 m 3,18,19
 1700 859 1700 859 1599 1032.5 c 128,-1,20
 1498 1206 1498 1206 1325.5 1307.5 c 128,-1,21
 1153 1409 1153 1409 951 1409 c 128,-1,22
 749 1409 749 1409 576.5 1307.5 c 128,-1,23
 404 1206 404 1206 303 1032.5 c 128,-1,24
 202 859 202 859 202 655 c 0,25,26
 202 503 202 503 261.5 363.5 c 128,-1,27
 321 224 321 224 421.5 122.5 c 128,-1,28
 522 21 522 21 660.5 -39.5 c 128,-1,29
 799 -100 799 -100 951 -100 c 128,-1,30
 1103 -100 1103 -100 1241.5 -39.5 c 128,-1,31
 1380 21 1380 21 1480.5 122.5 c 128,-1,32
 1581 224 1581 224 1640.5 363.5 c 128,-1,33
 1700 503 1700 503 1700 655 c 3,18,19
986 328 m 3,34,35
 1033 328 1033 328 1083.5 344 c 128,-1,36
 1134 360 1134 360 1166.5 378.5 c 128,-1,37
 1199 397 1199 397 1226.5 415 c 128,-1,38
 1254 433 1254 433 1258 434 c 2,39,-1
 1274 434 l 1,40,-1
 1274 255 l 1,41,42
 1172 210 1172 210 1113 195 c 128,-1,43
 1054 180 1054 180 982 180 c 0,44,45
 917 180 917 180 857.5 192.5 c 128,-1,46
 798 205 798 205 737 239 c 128,-1,47
 676 273 676 273 631.5 325 c 128,-1,48
 587 377 587 377 559 463 c 128,-1,49
 531 549 531 549 531 660 c 0,50,51
 531 889 531 889 655 1016 c 128,-1,52
 779 1143 779 1143 982 1143 c 0,53,54
 1128 1143 1128 1143 1274 1070 c 1,55,-1
 1274 889 l 1,56,-1
 1258 889 l 1,57,58
 1100 995 1100 995 986 995 c 0,59,60
 949 995 949 995 915.5 988 c 128,-1,61
 882 981 882 981 843 959.5 c 128,-1,62
 804 938 804 938 776 903 c 128,-1,63
 748 868 748 868 729.5 805.5 c 128,-1,64
 711 743 711 743 711 660 c 0,65,66
 711 578 711 578 729.5 516 c 128,-1,67
 748 454 748 454 776 419.5 c 128,-1,68
 804 385 804 385 843 363.5 c 128,-1,69
 882 342 882 342 915.5 335 c 128,-1,70
 949 328 949 328 986 328 c 3,34,35
EndSplineSet
EndChar

StartChar: ordfeminine
Encoding: 170 170 109
Width: 1010
Flags: W
HStem: 541 148<336.522 588.407> 1031 148<398.586 694> 1304 170<189 341.042> 1371 148<271.495 642.657>
VStem: 114 180<731.873 952.441> 694 180<566 657 768.434 1031 1179 1319.56>
LayerCount: 3
Fore
SplineSet
483 1519 m 3xdc
 778 1519 874 1389 874 1194 c 2
 874 566 l 1
 694 566 l 1
 694 657 l 1
 601 586 537 541 404 541 c 3
 238 541 114 662 114 839 c 3
 114 1115 326 1161 694 1179 c 1
 694 1324 629 1371 482 1371 c 3xdc
 425 1371 368 1361 204 1304 c 1
 189 1304 l 1
 189 1474 l 1xec
 221 1484 365 1519 483 1519 c 3xdc
461 689 m 3
 495 689 572 702 694 802 c 1
 694 1031 l 1
 494 1016 294 1012 294 849 c 3
 294 773 331 689 461 689 c 3
EndSplineSet
Validated: 1
Layer: 2
SplineSet
483 1519 m 3,0,1
 591 1519 591 1519 668 1496 c 128,-1,2
 745 1473 745 1473 789.5 1429 c 128,-1,3
 834 1385 834 1385 854 1327.5 c 128,-1,4
 874 1270 874 1270 874 1194 c 2,5,-1
 874 566 l 1,6,-1
 694 566 l 1,7,-1
 694 657 l 1,8,9
 611 594 611 594 553 567.5 c 128,-1,10
 495 541 495 541 404 541 c 0,11,12
 278 541 278 541 196 624 c 128,-1,13
 114 707 114 707 114 839 c 0,14,15
 114 907 114 907 130.5 958.5 c 128,-1,16
 147 1010 147 1010 183.5 1046 c 128,-1,17
 220 1082 220 1082 265 1105.5 c 128,-1,18
 310 1129 310 1129 380.5 1144 c 128,-1,19
 451 1159 451 1159 522 1166.5 c 128,-1,20
 593 1174 593 1174 694 1179 c 1,21,22
 694 1285 694 1285 644.5 1328 c 128,-1,23
 595 1371 595 1371 482 1371 c 0,24,25
 436 1371 436 1371 378 1357.5 c 128,-1,26
 320 1344 320 1344 204 1304 c 1,27,-1
 189 1304 l 1,28,-1
 189 1474 l 1,29,30
 230 1487 230 1487 318 1503 c 128,-1,31
 406 1519 406 1519 483 1519 c 3,0,1
461 689 m 3,32,33
 556 689 556 689 694 802 c 1,34,-1
 694 1031 l 1,35,36
 515.134256329 1017.58506922 515.134256329 1017.58506922 460.537890625 1006.12044922 c 0,37,38
 321.390986488 976.901171335 321.390986488 976.901171335 298.893306297 889.969814129 c 0,39,40
 294.118159805 870.437834744 294.118159805 870.437834744 294 849 c 0,41,42
 294 782 294 782 333 735.5 c 128,-1,43
 372 689 372 689 461 689 c 3,32,33
EndSplineSet
EndChar

StartChar: guillemotleft
Encoding: 171 171 110
Width: 1174
Flags: W
DStem2: 103 697 282 652 0.753491 0.657458<105.289 547.988> 282 652 103 608 0.75276 -0.658296<0 442.702> 555 695 726 652 0.759476 0.650535<101.897 520.247> 726 652 555 610 0.758708 -0.651431<0 418.351>
LayerCount: 3
Fore
SplineSet
1043 191 m 1
 555 610 l 1
 555 695 l 1
 1043 1113 l 1
 1043 925 l 1
 726 652 l 1
 1043 379 l 1
 1043 191 l 1
613 162 m 1
 103 608 l 1
 103 697 l 1
 613 1142 l 1
 613 946 l 1
 282 652 l 1
 613 358 l 1
 613 162 l 1
EndSplineSet
Validated: 1
Layer: 2
SplineSet
1043 191 m 1,0,-1
 555 610 l 1,1,-1
 555 695 l 1,2,-1
 1043 1113 l 1,3,-1
 1043 925 l 1,4,-1
 726 652 l 1,5,-1
 1043 379 l 1,6,-1
 1043 191 l 1,0,-1
613 162 m 1,7,-1
 103 608 l 1,8,-1
 103 697 l 1,9,-1
 613 1142 l 1,10,-1
 613 946 l 1,11,-1
 282 652 l 1,12,-1
 613 358 l 1,13,-1
 613 162 l 1,7,-1
EndSplineSet
EndChar

StartChar: logicalnot
Encoding: 172 172 111
Width: 1490
Flags: W
HStem: 592 170<157 1143>
VStem: 1143 180<57 592>
LayerCount: 3
Fore
SplineSet
1323 57 m 1
 1143 57 l 1
 1143 592 l 1
 157 592 l 1
 157 762 l 1
 1323 762 l 1
 1323 57 l 1
EndSplineSet
Validated: 1
Layer: 2
SplineSet
1323 57 m 1,0,-1
 1143 57 l 1,1,-1
 1143 592 l 1,2,-1
 157 592 l 1,3,-1
 157 762 l 1,4,-1
 1323 762 l 1,5,-1
 1323 57 l 1,0,-1
EndSplineSet
EndChar

StartChar: registered
Encoding: 174 174 113
Width: 1902
Flags: W
HStem: -210 110<713.965 1189.03> 570 148<830 938> 982 148<830 1086.79> 1409 110<714.159 1188.84>
VStem: 86 117<406.773 903.135> 650 180<215 570 718 982> 1122 180<754.227 946.618> 1701 115<406.773 903.135>
DStem2: 1102 615 938 570 0.65421 -0.756313<0 380.376>
LayerCount: 3
Fore
SplineSet
1816 655 m 3
 1816 181 1425 -210 951 -210 c 3
 477 -210 86 181 86 655 c 3
 86 1128 477 1519 951 1519 c 3
 1425 1519 1816 1128 1816 655 c 3
1701 655 m 3
 1701 1069 1363 1409 952 1409 c 3
 541 1409 203 1069 203 655 c 3
 203 242 540 -100 952 -100 c 3
 1364 -100 1701 242 1701 655 c 3
1302 879 m 3
 1302 773 1253 676 1102 615 c 1
 1448 215 l 1
 1221 215 l 1
 938 570 l 1
 830 570 l 1
 830 215 l 1
 650 215 l 1
 650 1130 l 1
 929 1130 l 2
 1186 1130 1302 1051 1302 879 c 3
913 718 m 2
 1074 718 1122 765 1122 852 c 3
 1122 959 1024 982 930 982 c 2
 830 982 l 1
 830 718 l 1
 913 718 l 2
EndSplineSet
Validated: 1
Layer: 2
SplineSet
1816 655 m 3,0,1
 1816 480 1816 480 1747 320 c 128,-1,2
 1678 160 1678 160 1562 44 c 128,-1,3
 1446 -72 1446 -72 1286 -141 c 128,-1,4
 1126 -210 1126 -210 951 -210 c 128,-1,5
 776 -210 776 -210 616 -141 c 128,-1,6
 456 -72 456 -72 340 44 c 128,-1,7
 224 160 224 160 155 320 c 128,-1,8
 86 480 86 480 86 655 c 0,9,10
 86 829 86 829 155 989 c 128,-1,11
 224 1149 224 1149 340 1265 c 128,-1,12
 456 1381 456 1381 616.5 1450 c 128,-1,13
 777 1519 777 1519 951 1519 c 128,-1,14
 1125 1519 1125 1519 1285.5 1450 c 128,-1,15
 1446 1381 1446 1381 1562 1265 c 128,-1,16
 1678 1149 1678 1149 1747 989 c 128,-1,17
 1816 829 1816 829 1816 655 c 3,0,1
1701 655 m 3,18,19
 1701 859 1701 859 1600 1032.5 c 128,-1,20
 1499 1206 1499 1206 1326.5 1307.5 c 128,-1,21
 1154 1409 1154 1409 952 1409 c 128,-1,22
 750 1409 750 1409 577.5 1307.5 c 128,-1,23
 405 1206 405 1206 304 1032.5 c 128,-1,24
 203 859 203 859 203 655 c 0,25,26
 203 503 203 503 262.5 363.5 c 128,-1,27
 322 224 322 224 422.5 122.5 c 128,-1,28
 523 21 523 21 661.5 -39.5 c 128,-1,29
 800 -100 800 -100 952 -100 c 128,-1,30
 1104 -100 1104 -100 1242.5 -39.5 c 128,-1,31
 1381 21 1381 21 1481.5 122.5 c 128,-1,32
 1582 224 1582 224 1641.5 363.5 c 128,-1,33
 1701 503 1701 503 1701 655 c 3,18,19
1302 879 m 3,34,35
 1302 696 1302 696 1102 615 c 1,36,-1
 1448 215 l 1,37,-1
 1221 215 l 1,38,-1
 938 570 l 1,39,-1
 830 570 l 1,40,-1
 830 215 l 1,41,-1
 650 215 l 1,42,-1
 650 1130 l 1,43,-1
 929 1130 l 2,44,45
 1121 1130 1121 1130 1211.5 1069 c 128,-1,46
 1302 1008 1302 1008 1302 879 c 3,34,35
913 718 m 2,47,48
 1029 718 1029 718 1075.5 750.5 c 128,-1,49
 1122 783 1122 783 1122 852 c 0,50,51
 1122 982 1122 982 930 982 c 2,52,-1
 830 982 l 1,53,-1
 830 718 l 1,54,-1
 913 718 l 2,47,48
EndSplineSet
EndChar

StartChar: macron
Encoding: 175 175 114
Width: 1118
Flags: W
HStem: 1650 148<-16 1134>
LayerCount: 3
Fore
SplineSet
1134 1650 m 1
 -16 1650 l 1
 -16 1798 l 1
 1134 1798 l 1
 1134 1650 l 1
EndSplineSet
Validated: 1
Layer: 2
SplineSet
1134 1650 m 1,0,-1
 -16 1650 l 1,1,-1
 -16 1798 l 1,2,-1
 1134 1798 l 1,3,-1
 1134 1650 l 1,0,-1
EndSplineSet
EndChar

StartChar: degree
Encoding: 176 176 115
Width: 964
Flags: W
HStem: 755 170<365.973 597.304> 1345 170<365.388 599.27>
VStem: 101 180<1008.65 1260.86> 683 180<1010.2 1260.53>
LayerCount: 3
Fore
SplineSet
482 1515 m 3
 695 1515 863 1354 863 1135 c 3
 863 917 695 755 482 755 c 3
 270 755 101 914 101 1135 c 3
 101 1353 269 1515 482 1515 c 3
482 925 m 3
 593 925 683 1031 683 1135 c 3
 683 1251 584 1345 482 1345 c 3
 374 1345 281 1244 281 1135 c 3
 281 1017 385 925 482 925 c 3
EndSplineSet
Validated: 1
Layer: 2
SplineSet
482 1515 m 131,-1,1
 643 1515 643 1515 753 1406.5 c 128,-1,2
 863 1298 863 1298 863 1135 c 128,-1,3
 863 972 863 972 753 863.5 c 128,-1,4
 643 755 643 755 482 755 c 128,-1,5
 321 755 321 755 211 863 c 128,-1,6
 101 971 101 971 101 1135 c 0,7,8
 101 1298 101 1298 211 1406.5 c 128,-1,0
 321 1515 321 1515 482 1515 c 131,-1,1
482 925 m 3,9,10
 563 925 563 925 623 990 c 128,-1,11
 683 1055 683 1055 683 1135 c 0,12,13
 683 1220 683 1220 621.5 1282.5 c 128,-1,14
 560 1345 560 1345 482 1345 c 0,15,16
 402 1345 402 1345 341.5 1281 c 128,-1,17
 281 1217 281 1217 281 1135 c 0,18,19
 281 1049 281 1049 343.5 987 c 128,-1,20
 406 925 406 925 482 925 c 3,9,10
EndSplineSet
EndChar

StartChar: plusminus
Encoding: 177 177 116
Width: 1490
Flags: W
HStem: 159 170<162 655 835 1328> 733 170<162 655 835 1328>
VStem: 655 180<329 733 903 1402>
LayerCount: 3
Fore
SplineSet
1328 159 m 1
 162 159 l 1
 162 329 l 1
 655 329 l 1
 655 733 l 1
 162 733 l 1
 162 903 l 1
 655 903 l 1
 655 1402 l 1
 835 1402 l 1
 835 903 l 1
 1328 903 l 1
 1328 733 l 1
 835 733 l 1
 835 329 l 1
 1328 329 l 1
 1328 159 l 1
EndSplineSet
Validated: 1
Layer: 2
SplineSet
1328 159 m 1,0,-1
 162 159 l 1,1,-1
 162 329 l 1,2,-1
 655 329 l 1,3,-1
 655 733 l 1,4,-1
 162 733 l 1,5,-1
 162 903 l 1,6,-1
 655 903 l 1,7,-1
 655 1402 l 1,8,-1
 835 1402 l 1,9,-1
 835 903 l 1,10,-1
 1328 903 l 1,11,-1
 1328 733 l 1,12,-1
 835 733 l 1,13,-1
 835 329 l 1,14,-1
 1328 329 l 1,15,-1
 1328 159 l 1,0,-1
EndSplineSet
EndChar

StartChar: uni00B2
Encoding: 178 178 117
Width: 1010
Flags: W
HStem: 566 148<387 819> 1370 148<416.971 611.119>
VStem: 207 180<1210 1342.99> 639 180<1101.89 1342.99>
LayerCount: 3
Fore
SplineSet
516 1370 m 3
 442 1370 387 1334 387 1210 c 1
 207 1210 l 1
 207 1397 327 1518 518 1518 c 3
 686 1518 819 1416 819 1232 c 3
 819 1059 669 958 544 851 c 0
 486 801 433 754 387 714 c 1
 819 714 l 1
 819 566 l 1
 185 566 l 1
 185 702 283 814 423 931 c 0
 560 1046 639 1124 639 1235 c 3
 639 1310 604 1370 516 1370 c 3
EndSplineSet
Validated: 1
Layer: 2
SplineSet
516 1370 m 3,0,1
 387 1370 387 1370 387 1210 c 1,2,-1
 207 1210 l 1,3,4
 207 1351 207 1351 291 1434.5 c 128,-1,5
 375 1518 375 1518 518 1518 c 0,6,7
 649 1518 649 1518 734 1442 c 128,-1,8
 819 1366 819 1366 819 1232 c 0,9,10
 819 1196 819 1196 811.5 1163 c 128,-1,11
 804 1130 804 1130 785.5 1098.5 c 128,-1,12
 767 1067 767 1067 751.5 1044 c 128,-1,13
 736 1021 736 1021 703.5 990 c 128,-1,14
 671 959 671 959 654 944 c 128,-1,15
 637 929 637 929 597.5 896 c 128,-1,16
 558 863 558 863 544 851 c 0,17,18
 510 822 510 822 455 774 c 128,-1,19
 400 726 400 726 387 714 c 1,20,-1
 819 714 l 1,21,-1
 819 566 l 1,22,-1
 185 566 l 1,23,24
 185 661 185 661 245.5 747.5 c 128,-1,25
 306 834 306 834 423 931 c 0,26,27
 539 1028 539 1028 589 1093 c 128,-1,28
 639 1158 639 1158 639 1235 c 0,29,30
 639 1295 639 1295 609 1332.5 c 128,-1,31
 579 1370 579 1370 516 1370 c 3,0,1
EndSplineSet
EndChar

StartChar: uni00B3
Encoding: 179 179 118
Width: 1010
Flags: W
HStem: 559 148<402.46 587.385> 1003 128<405.413 545.398> 1370 148<409.821 568.048>
VStem: 184 180<746.99 864 1230 1317.85> 588 180<1172.77 1351.27> 633 180<753.336 970.123>
LayerCount: 3
Fore
SplineSet
488 1370 m 3xf8
 430 1370 389 1316 375 1230 c 1
 195 1230 l 1
 195 1395 317 1518 485 1518 c 3
 635 1518 768 1417 768 1265 c 3xf8
 768 1187 724 1119 667 1079 c 1
 761 1043 813 972 813 861 c 3
 813 685 671 559 490 559 c 3
 312 559 184 683 184 864 c 1
 364 864 l 1
 364 772 423 707 490 707 c 3
 560 707 633 773 633 858 c 3xf4
 633 948 574 1003 505 1003 c 3
 473 1003 434 995 404 986 c 1
 404 1134 l 1
 418 1133 433 1131 447 1131 c 3
 513 1131 588 1190 588 1268 c 3
 588 1326 537 1370 488 1370 c 3xf8
EndSplineSet
Validated: 1
Layer: 2
SplineSet
488 1370 m 3,0,1
 445 1370 445 1370 415.5 1332.5 c 128,-1,2
 386 1295 386 1295 375 1230 c 1,3,-1
 195 1230 l 1,4,5
 195 1354 195 1354 277 1436 c 128,-1,6
 359 1518 359 1518 485 1518 c 0,7,8
 601 1518 601 1518 684.5 1447 c 128,-1,9
 768 1376 768 1376 768 1265 c 0,10,11
 768 1209 768 1209 740 1160 c 128,-1,12
 712 1111 712 1111 667 1079 c 1,13,14
 813 1023 813 1023 813 861 c 0,15,16
 813 730 813 730 720 644.5 c 128,-1,17
 627 559 627 559 490 559 c 0,18,19
 356 559 356 559 270 644 c 128,-1,20
 184 729 184 729 184 864 c 1,21,-1
 364 864 l 1,22,23
 364 796 364 796 401.5 751.5 c 128,-1,24
 439 707 439 707 490 707 c 0,25,26
 544 707 544 707 588.5 751.5 c 128,-1,27
 633 796 633 796 633 858 c 0,28,29
 633 923 633 923 596 963 c 128,-1,30
 559 1003 559 1003 505 1003 c 0,31,32
 461 1003 461 1003 404 986 c 1,33,-1
 404 1134 l 1,34,35
 446 1131 446 1131 447 1131 c 0,36,37
 499 1131 499 1131 543.5 1171.5 c 128,-1,38
 588 1212 588 1212 588 1268 c 0,39,40
 588 1310 588 1310 557 1340 c 128,-1,41
 526 1370 526 1370 488 1370 c 3,0,1
EndSplineSet
EndChar

StartChar: acute
Encoding: 180 180 119
Width: 1118
Flags: W
HStem: 1194 374
VStem: 449 422
LayerCount: 3
Fore
SplineSet
871 1568 m 1
 598 1194 l 1
 449 1194 l 1
 628 1568 l 1
 871 1568 l 1
EndSplineSet
Validated: 1
Layer: 2
SplineSet
871 1568 m 1,0,-1
 598 1194 l 1,1,-1
 449 1194 l 1,2,-1
 628 1568 l 1,3,-1
 871 1568 l 1,0,-1
EndSplineSet
EndChar

StartChar: micro
Encoding: 181 181 120
Width: 1163
Flags: W
HStem: -17 148<432.244 727.636> 0 21G<847 1027>
VStem: 136 180<-412 115 230.181 1117> 847 180<0 116 230.181 1117>
LayerCount: 3
Fore
SplineSet
578 131 m 3xb0
 690 131 777 199 847 275 c 1
 847 1117 l 1
 1027 1117 l 1
 1027 0 l 1
 847 0 l 1x70
 847 116 l 1
 737 0 661 -17 578 -17 c 3
 476 -17 410 11 316 115 c 1
 316 -412 l 1
 136 -412 l 1
 136 1117 l 1
 316 1117 l 1
 316 275 l 1
 380 199 474 131 578 131 c 3xb0
EndSplineSet
Validated: 1
Layer: 2
SplineSet
578 131 m 3,0,1
 714 131 714 131 847 275 c 1,2,-1
 847 1117 l 1,3,-1
 1027 1117 l 1,4,-1
 1027 0 l 1,5,-1
 847 0 l 1,6,-1
 847 116 l 1,7,8
 771 36 771 36 710 9.5 c 128,-1,9
 649 -17 649 -17 578 -17 c 0,10,11
 499 -17 499 -17 442 11 c 128,-1,12
 385 39 385 39 316 115 c 1,13,-1
 316 -412 l 1,14,-1
 136 -412 l 1,15,-1
 136 1117 l 1,16,-1
 316 1117 l 1,17,-1
 316 275 l 1,18,19
 369 212 369 212 437 171.5 c 128,-1,20
 505 131 505 131 578 131 c 3,0,1
EndSplineSet
EndChar

StartChar: paragraph
Encoding: 182 182 121
Width: 1118
Flags: W
HStem: 1341 148<655 802>
VStem: 57 598<833.112 1261.05> 475 180<-363 593> 802 180<-363 1341>
LayerCount: 3
Fore
SplineSet
57 1050 m 3xd0
 57 1340 250 1489 520 1489 c 2
 982 1489 l 1
 982 -363 l 1
 802 -363 l 1
 802 1341 l 1
 655 1341 l 1
 655 -363 l 1
 475 -363 l 1
 475 593 l 1xb0
 240 599 57 775 57 1050 c 3xd0
EndSplineSet
Validated: 1
Layer: 2
SplineSet
57 1050 m 3,0,1
 57 1262 57 1262 184 1375.5 c 128,-1,2
 311 1489 311 1489 520 1489 c 2,3,-1
 982 1489 l 1,4,-1
 982 -363 l 1,5,-1
 802 -363 l 1,6,-1
 802 1341 l 1,7,-1
 655 1341 l 1,8,-1
 655 -363 l 1,9,-1
 475 -363 l 1,10,-1
 475 593 l 1,11,12
 295 598 295 598 176 723 c 128,-1,13
 57 848 57 848 57 1050 c 3,0,1
EndSplineSet
EndChar

StartChar: periodcentered
Encoding: 183 183 122
Width: 724
Flags: W
HStem: 832 285<243 482>
VStem: 243 239<832 1117>
LayerCount: 3
Fore
SplineSet
482 832 m 1
 243 832 l 1
 243 1117 l 1
 482 1117 l 1
 482 832 l 1
EndSplineSet
Validated: 1
Layer: 2
SplineSet
482 832 m 1,0,-1
 243 832 l 1,1,-1
 243 1117 l 1,2,-1
 482 1117 l 1,3,-1
 482 832 l 1,0,-1
EndSplineSet
EndChar

StartChar: cedilla
Encoding: 184 184 123
Width: 1118
Flags: W
HStem: -423 148<296.151 569.885> -399 158<289 437.658>
VStem: 603 180<-236.499 20>
LayerCount: 3
Fore
SplineSet
603 -107 m 3xa0
 603 -56 602 -69 599 20 c 1
 777 20 l 1
 780 -12 783 -61 783 -89 c 3
 783 -355 591 -423 466 -423 c 3xa0
 431 -423 357 -419 289 -399 c 1
 289 -241 l 1
 298 -241 l 1x60
 343 -261 390 -275 440 -275 c 3
 561 -275 603 -227 603 -107 c 3xa0
EndSplineSet
Validated: 1
Layer: 2
SplineSet
603 -107 m 3,0,1
 603 -99 603 -99 599 20 c 1,2,-1
 777 20 l 1,3,4
 783 -44 783 -44 783 -89 c 0,5,6
 783 -165 783 -165 761.5 -225.5 c 128,-1,7
 740 -286 740 -286 707.5 -322 c 128,-1,8
 675 -358 675 -358 631.5 -381.5 c 128,-1,9
 588 -405 588 -405 547.5 -414 c 128,-1,10
 507 -423 507 -423 466 -423 c 0,11,12
 371 -423 371 -423 289 -399 c 1,13,-1
 289 -241 l 1,14,-1
 298 -241 l 1,15,16
 374 -275 374 -275 440 -275 c 0,17,18
 530 -275 530 -275 566.5 -236.5 c 128,-1,19
 603 -198 603 -198 603 -107 c 3,0,1
EndSplineSet
EndChar

StartChar: uni0E01
Encoding: 3585 3585 124
Width: 1376
VWidth: 2045
Flags: W
HStem: 0 21G<241 421 998 1178> 744 178<421 512> 1101 178<462.499 813.601>
VStem: 241 180<0 744> 998 180<0 912.322>
LayerCount: 3
Fore
SplineSet
998 744 m 2
 998 937 847 1101 639 1101 c 0
 484 1101 394 1024 328 922 c 9
 512 922 l 1
 512 744 l 1
 421 744 l 1
 421 0 l 1
 241 0 l 1
 241 744 l 1
 101 744 l 1
 101 1058 358 1279 639 1279 c 0
 939 1279 1178 1038 1178 744 c 2
 1178 0 l 1
 998 0 l 1
 998 744 l 2
EndSplineSet
Validated: 1
Layer: 2
SplineSet
998 744 m 2,0,1
 998 891 998 891 895.5 996 c 128,-1,2
 793 1101 793 1101 639 1101 c 0,3,4
 530 1101 530 1101 456.5 1054 c 128,-1,5
 383 1007 383 1007 328 922 c 1,6,-1
 512 922 l 1,7,-1
 512 744 l 1,8,-1
 421 744 l 1,9,-1
 421 0 l 1,10,-1
 241 0 l 1,11,-1
 241 744 l 1,12,-1
 101 744 l 1,13,14
 101 859 101 859 145.5 959.5 c 128,-1,15
 190 1060 190 1060 264.5 1129.5 c 128,-1,16
 339 1199 339 1199 436.5 1239 c 128,-1,17
 534 1279 534 1279 639 1279 c 0,18,19
 786 1279 786 1279 910.5 1207 c 128,-1,20
 1035 1135 1035 1135 1106.5 1012 c 128,-1,21
 1178 889 1178 889 1178 744 c 2,22,-1
 1178 0 l 1,23,-1
 998 0 l 1,24,-1
 998 744 l 2,0,1
EndSplineSet
EndChar

StartChar: uni0E02
Encoding: 3586 3586 125
Width: 1352
VWidth: 2045
Flags: W
HStem: 0 178<382 470 650 973> 699 133<236.286 388.504> 1101 178<449 562.983> 1234 20G<973 1153>
VStem: 89 134<846.726 994> 403 136<844.361 996.904> 470 180<178 638.667> 629 180<783.458 1036.77> 973 180<178 1254>
LayerCount: 3
Fore
SplineSet
470 499 m 2xda80
 470 772 629 732 629 906 c 0
 629 1033 538 1101 449 1101 c 1
 470 1082 539 1029 539 921 c 0
 539 799 440 699 313 699 c 0
 217 699 89 759 89 949 c 0
 89 1096 232 1279 449 1279 c 0
 644 1279 809 1127 809 914 c 0xed80
 809 647 650 698 650 499 c 2
 650 178 l 1
 973 178 l 1
 973 1254 l 1
 1153 1254 l 1
 1153 0 l 1
 382 0 l 1
 382 178 l 1
 470 178 l 1
 470 499 l 2xda80
314 1010 m 0
 263 1010 223 969 223 922 c 0
 223 876 259 832 314 832 c 0
 370 832 403 877 403 922 c 0
 403 969 366 1010 314 1010 c 0
EndSplineSet
Validated: 1
Layer: 2
SplineSet
470 499 m 2,0,1
 470 575 470 575 486.5 628.5 c 128,-1,2
 503 682 503 682 526.5 711 c 128,-1,3
 550 740 550 740 573 765 c 128,-1,4
 596 790 596 790 612.5 824.5 c 128,-1,5
 629 859 629 859 629 906 c 0,6,7
 629 996 629 996 575 1048.5 c 128,-1,8
 521 1101 521 1101 449 1101 c 1,9,-1
 456.5 1094.5 l 2,10,11
 464 1088 464 1088 466.5 1085.5 c 128,-1,12
 469 1083 469 1083 477.5 1074.5 c 128,-1,13
 486 1066 486 1066 490 1060.5 c 128,-1,14
 494 1055 494 1055 501.5 1044.5 c 128,-1,15
 509 1034 509 1034 513.5 1025.5 c 128,-1,16
 518 1017 518 1017 523.5 1004 c 128,-1,17
 529 991 529 991 532 979 c 128,-1,18
 535 967 535 967 537 952 c 128,-1,19
 539 937 539 937 539 921 c 0,20,21
 539 829 539 829 473.5 764 c 128,-1,22
 408 699 408 699 313 699 c 0,23,24
 274 699 274 699 237 712 c 128,-1,25
 200 725 200 725 165.5 752 c 128,-1,26
 131 779 131 779 110 830 c 128,-1,27
 89 881 89 881 89 949 c 0,28,29
 89 1024 89 1024 132.5 1099 c 128,-1,30
 176 1174 176 1174 261 1226.5 c 128,-1,31
 346 1279 346 1279 449 1279 c 0,32,33
 598 1279 598 1279 703.5 1175 c 128,-1,34
 809 1071 809 1071 809 914 c 0,35,36
 809 840 809 840 792.5 788.5 c 128,-1,37
 776 737 776 737 753 708.5 c 128,-1,38
 730 680 730 680 706.5 655 c 128,-1,39
 683 630 683 630 666.5 591.5 c 128,-1,40
 650 553 650 553 650 499 c 2,41,-1
 650 178 l 1,42,-1
 973 178 l 1,43,-1
 973 1254 l 1,44,-1
 1153 1254 l 1,45,-1
 1153 0 l 1,46,-1
 382 0 l 1,47,-1
 382 178 l 1,48,-1
 470 178 l 1,49,-1
 470 499 l 2,0,1
314 1010 m 128,-1,51
 276 1010 276 1010 249.5 984 c 128,-1,52
 223 958 223 958 223 922 c 128,-1,53
 223 886 223 886 248.5 859 c 128,-1,54
 274 832 274 832 314 832 c 128,-1,55
 354 832 354 832 378.5 859 c 128,-1,56
 403 886 403 886 403 922 c 128,-1,57
 403 958 403 958 377.5 984 c 128,-1,50
 352 1010 352 1010 314 1010 c 128,-1,51
EndSplineSet
EndChar

StartChar: uni0E03
Encoding: 3587 3587 126
Width: 1376
VWidth: 2045
Flags: W
HStem: 0 178<433 524 704 1026> 607 133<195.866 347.124> 918 132<225.131 348.069> 1063 21G<416.918 485.115> 1254 5G<222.5 344.976 565.096 645 1026 1206>
VStem: 29 152<753.658 901.942> 361 136<755.217 905.628> 524 180<178 613.402> 681 180<790.196 1051.97> 1026 180<178 1254>
LayerCount: 3
Fore
SplineSet
524 465 m 2xff40
 524 715 681 778 681 921 c 0
 681 1041 596 1103 553 1124 c 1
 452 1063 l 1
 345 1124 l 1
 284 1120 244 1091 224 1036 c 1
 247 1045 272 1050 290 1050 c 0
 360 1050 497 985 497 836 c 0
 497 697 389 607 271 607 c 0
 162 607 32 692 29 888 c 1
 29 1100 134 1248 311 1279 c 1
 452 1196 l 1
 601 1279 l 1
 689 1255 861 1168 861 934 c 0xfec0
 861 686 704 645 704 470 c 2
 704 178 l 1
 1026 178 l 1
 1026 1254 l 1
 1206 1254 l 1
 1206 0 l 1
 433 0 l 1
 433 178 l 1
 524 178 l 1
 524 465 l 2xff40
271 918 m 0
 219 918 181 877 181 830 c 0
 181 778 225 740 271 740 c 0
 322 740 361 784 361 830 c 0
 361 876 323 918 271 918 c 0
EndSplineSet
Validated: 1
Layer: 2
SplineSet
524 465 m 2,0,1
 524 534 524 534 540 593.5 c 128,-1,2
 556 653 556 653 579 693.5 c 128,-1,3
 602 734 602 734 625.5 769.5 c 128,-1,4
 649 805 649 805 665 843.5 c 128,-1,5
 681 882 681 882 681 921 c 0,6,7
 681 1000 681 1000 640.5 1050.5 c 128,-1,8
 600 1101 600 1101 553 1124 c 1,9,-1
 452 1063 l 1,10,-1
 345 1124 l 1,11,12
 254 1118 254 1118 224 1036 c 1,13,14
 260 1050 260 1050 290 1050 c 0,15,16
 318 1050 318 1050 352 1037 c 128,-1,17
 386 1024 386 1024 419.5 999.5 c 128,-1,18
 453 975 453 975 475 932 c 128,-1,19
 497 889 497 889 497 836 c 0,20,21
 497 735 497 735 430 671 c 128,-1,22
 363 607 363 607 271 607 c 0,23,24
 228 607 228 607 187 624 c 128,-1,25
 146 641 146 641 110.5 673.5 c 128,-1,26
 75 706 75 706 52.5 762 c 128,-1,27
 30 818 30 818 29 888 c 0,28,29
 29 1047 29 1047 104 1151.5 c 128,-1,30
 179 1256 179 1256 311 1279 c 1,31,-1
 452 1196 l 1,32,-1
 601 1279 l 1,33,34
 632 1271 632 1271 662.5 1257 c 128,-1,35
 693 1243 693 1243 730 1214.5 c 128,-1,36
 767 1186 767 1186 795 1150 c 128,-1,37
 823 1114 823 1114 842 1057.5 c 128,-1,38
 861 1001 861 1001 861 934 c 0,39,40
 861 865 861 865 845 808 c 128,-1,41
 829 751 829 751 805.5 712.5 c 128,-1,42
 782 674 782 674 759 638.5 c 128,-1,43
 736 603 736 603 720 560.5 c 128,-1,44
 704 518 704 518 704 470 c 2,45,-1
 704 178 l 1,46,-1
 1026 178 l 1,47,-1
 1026 1254 l 1,48,-1
 1206 1254 l 1,49,-1
 1206 0 l 1,50,-1
 433 0 l 1,51,-1
 433 178 l 1,52,-1
 524 178 l 1,53,-1
 524 465 l 2,0,1
271 918 m 128,-1,55
 233 918 233 918 207 892 c 128,-1,56
 181 866 181 866 181 830 c 0,57,58
 181 792 181 792 208 766 c 128,-1,59
 235 740 235 740 271 740 c 0,60,61
 308 740 308 740 334.5 767.5 c 128,-1,62
 361 795 361 795 361 830 c 128,-1,63
 361 865 361 865 335 891.5 c 128,-1,54
 309 918 309 918 271 918 c 128,-1,55
EndSplineSet
EndChar

StartChar: uni0E04
Encoding: 3588 3588 127
Width: 1407
VWidth: 2045
Flags: W
HStem: 0 21G<161 348.235 1040 1220> 463 133<608.965 762.942> 774 133<609.684 762.191> 1101 178<517.166 860.725>
VStem: 161 180<332 915.402> 776 136<608.167 761.323> 1040 180<0 923.518>
DStem2: 341 332 532 528 0.34017 0.940364<0 249.284>
LayerCount: 3
Fore
SplineSet
912 685 m 0
 912 561 807 463 686 463 c 0
 623 463 572 485 532 528 c 1
 341 0 l 1
 161 0 l 1
 161 744 l 2
 161 1110 449 1279 691 1279 c 0
 975 1279 1220 1062 1220 744 c 2
 1220 0 l 1
 1040 0 l 1
 1040 743 l 2
 1040 963 882 1101 691 1101 c 0
 481 1101 341 942 341 744 c 2
 341 332 l 1
 482 779 l 2
 495 820 568 907 686 907 c 0
 817 907 912 806 912 685 c 0
686 774 m 0
 635 774 596 733 596 685 c 0
 596 632 641 596 686 596 c 0
 734 596 776 633 776 685 c 0
 776 733 738 774 686 774 c 0
EndSplineSet
Validated: 1
Layer: 2
SplineSet
912 685 m 128,-1,1
 912 593 912 593 845 528 c 128,-1,2
 778 463 778 463 686 463 c 0,3,4
 592 463 592 463 532 528 c 1,5,-1
 341 0 l 1,6,-1
 161 0 l 1,7,-1
 161 744 l 2,8,9
 161 850 161 850 193 940 c 128,-1,10
 225 1030 225 1030 278 1091 c 128,-1,11
 331 1152 331 1152 400 1195.5 c 128,-1,12
 469 1239 469 1239 543 1259 c 128,-1,13
 617 1279 617 1279 691 1279 c 0,14,15
 833 1279 833 1279 953.5 1212.5 c 128,-1,16
 1074 1146 1074 1146 1147 1022.5 c 128,-1,17
 1220 899 1220 899 1220 744 c 2,18,-1
 1220 0 l 1,19,-1
 1040 0 l 1,20,-1
 1040 743 l 2,21,22
 1040 904 1040 904 939 1002.5 c 128,-1,23
 838 1101 838 1101 691 1101 c 0,24,25
 536 1101 536 1101 438.5 998 c 128,-1,26
 341 895 341 895 341 744 c 2,27,-1
 341 332 l 1,28,-1
 482 779 l 2,29,30
 495 820 495 820 551 863.5 c 128,-1,31
 607 907 607 907 686 907 c 0,32,33
 783 907 783 907 847.5 842 c 128,-1,0
 912 777 912 777 912 685 c 128,-1,1
686 774 m 128,-1,35
 648 774 648 774 622 747.5 c 128,-1,36
 596 721 596 721 596 685 c 0,37,38
 596 647 596 647 623.5 621.5 c 128,-1,39
 651 596 651 596 686 596 c 0,40,41
 723 596 723 596 749.5 621.5 c 128,-1,42
 776 647 776 647 776 685 c 0,43,44
 776 722 776 722 750 748 c 128,-1,34
 724 774 724 774 686 774 c 128,-1,35
EndSplineSet
EndChar

StartChar: uni0E05
Encoding: 3589 3589 128
Width: 1426
VWidth: 2045
Flags: W
HStem: 0 21G<164 354.121 1066 1246> 429 134<624.424 777.44> 742 134<624.029 778.657> 1259 20G<379.5 504.2 908.067 1028.5>
VStem: 164 180<314 1025.75> 791 136<576.545 727.774> 1066 180<0 1035.42>
DStem2: 344 314 547 495 0.376226 0.926528<0 244.075> 473 1279 485 1097 0.841879 -0.539666<77.8621 277.95> 707 1129 707 952 0.839764 0.542951<0 201.023>
LayerCount: 3
Fore
SplineSet
927 652 m 0
 927 522 820 429 701 429 c 0
 638 429 587 452 547 495 c 1
 346 0 l 1
 164 0 l 1
 164 850 l 2
 164 1085 286 1243 473 1279 c 1
 707 1129 l 1
 939 1279 l 1
 1118 1247 1246 1078 1246 850 c 2
 1246 0 l 1
 1066 0 l 1
 1066 848 l 2
 1066 1013 1035 1053 939 1100 c 1
 707 952 l 1
 485 1097 l 1
 467 1095 344 1063 344 850 c 2
 344 314 l 1
 497 746 l 2
 516 799 586 876 704 876 c 0
 822 876 927 782 927 652 c 0
701 742 m 0
 654 742 611 704 611 652 c 0
 611 601 655 563 701 563 c 0
 753 563 791 605 791 652 c 0
 791 703 749 742 701 742 c 0
EndSplineSet
Validated: 1
Layer: 2
SplineSet
927 652 m 0,0,1
 927 557 927 557 859.5 493 c 128,-1,2
 792 429 792 429 701 429 c 0,3,4
 608 429 608 429 547 495 c 1,5,-1
 346 0 l 1,6,-1
 164 0 l 1,7,-1
 164 850 l 2,8,9
 164 1024 164 1024 247.5 1138 c 128,-1,10
 331 1252 331 1252 473 1279 c 1,11,-1
 707 1129 l 1,12,-1
 939 1279 l 1,13,14
 1075 1255 1075 1255 1160.5 1137 c 128,-1,15
 1246 1019 1246 1019 1246 850 c 2,16,-1
 1246 0 l 1,17,-1
 1066 0 l 1,18,-1
 1066 848 l 2,19,20
 1066 931 1066 931 1053.5 977.5 c 128,-1,21
 1041 1024 1041 1024 1015.5 1049.5 c 128,-1,22
 990 1075 990 1075 939 1100 c 1,23,-1
 707 952 l 1,24,-1
 485 1097 l 1,25,26
 476 1096 476 1096 463 1091.5 c 128,-1,27
 450 1087 450 1087 428 1070.5 c 128,-1,28
 406 1054 406 1054 388 1029 c 128,-1,29
 370 1004 370 1004 357 957 c 128,-1,30
 344 910 344 910 344 850 c 2,31,-1
 344 314 l 1,32,-1
 497 746 l 2,33,34
 514 794 514 794 569 835 c 128,-1,35
 624 876 624 876 704 876 c 0,36,37
 795 876 795 876 861 812 c 128,-1,38
 927 748 927 748 927 652 c 0,0,1
701 742 m 0,39,40
 665 742 665 742 638 716 c 128,-1,41
 611 690 611 690 611 652 c 0,42,43
 611 615 611 615 638.5 589 c 128,-1,44
 666 563 666 563 701 563 c 0,45,46
 739 563 739 563 765 589.5 c 128,-1,47
 791 616 791 616 791 652 c 0,48,49
 791 690 791 690 764.5 716 c 128,-1,50
 738 742 738 742 701 742 c 0,39,40
EndSplineSet
EndChar

StartChar: uni0E06
Encoding: 3590 3590 129
Width: 1576
VWidth: 2045
Flags: W
HStem: -11 177<450.566 603.793> 344 177<449.814 605.15> 607 133<272.063 424.124> 918 132<301.477 425.585> 1063 21G<492.918 561.443> 1234 20G<288.5 420.976 641.096 715 1218 1398>
VStem: 98 160<752.955 905.054> 258 178<179.741 330.476> 438 136<755.101 905.737> 758 180<783.696 1052.92> 1218 180<178 1254>
DStem2: 794 412 794 234 0.875517 -0.483187<86.0072 484.285>
LayerCount: 3
Fore
SplineSet
938 944 m 0xfee0
 938 678 796 679 794 412 c 1
 1218 178 l 1
 1218 1254 l 1
 1398 1254 l 1
 1398 0 l 1
 1218 0 l 1
 794 234 l 17
 786 120 689 -11 526 -11 c 0
 378 -11 258 106 258 255 c 0xfde0
 258 404 378 521 526 521 c 0
 561 521 592 516 620 505 c 1
 656 776 758 781 758 921 c 0
 758 1041 677 1101 630 1124 c 1
 528 1063 l 1
 421 1124 l 1
 362 1120 321 1091 300 1036 c 1
 326 1045 349 1050 366 1050 c 0
 438 1050 574 985 574 836 c 0
 574 697 466 607 348 607 c 0
 238 607 99 703 98 888 c 0
 98 1062 190 1244 387 1279 c 1
 528 1196 l 1
 677 1279 l 1
 753 1258 938 1174 938 944 c 0xfee0
526 344 m 0
 472 344 436 305 436 255 c 0
 436 207 474 166 526 166 c 0
 578 166 616 207 616 255 c 0
 616 305 580 344 526 344 c 0
348 918 m 0
 295 918 258 876 258 830 c 0xfee0
 258 779 302 740 348 740 c 0
 394 740 438 778 438 830 c 0
 438 877 400 918 348 918 c 0
EndSplineSet
Validated: 1
Layer: 2
SplineSet
938 944 m 0,0,1
 938 871 938 871 923.5 813.5 c 128,-1,2
 909 756 909 756 888 717 c 128,-1,3
 867 678 867 678 846 639 c 128,-1,4
 825 600 825 600 810 542.5 c 128,-1,5
 795 485 795 485 794 412 c 1,6,-1
 1218 178 l 1,7,-1
 1218 1254 l 1,8,-1
 1398 1254 l 1,9,-1
 1398 0 l 1,10,-1
 1218 0 l 1,11,-1
 794 234 l 1,12,13
 787 140 787 140 714 64.5 c 128,-1,14
 641 -11 641 -11 526 -11 c 0,15,16
 415 -11 415 -11 336.5 66.5 c 128,-1,17
 258 144 258 144 258 255 c 128,-1,18
 258 366 258 366 336.5 443.5 c 128,-1,19
 415 521 415 521 526 521 c 0,20,21
 579 521 579 521 620 505 c 1,22,23
 630 580 630 580 648 638 c 128,-1,24
 666 696 666 696 684.5 729.5 c 128,-1,25
 703 763 703 763 720 791.5 c 128,-1,26
 737 820 737 820 747.5 851.5 c 128,-1,27
 758 883 758 883 758 921 c 0,28,29
 758 963 758 963 745 999 c 128,-1,30
 732 1035 732 1035 711 1059.5 c 128,-1,31
 690 1084 690 1084 670.5 1099 c 128,-1,32
 651 1114 651 1114 630 1124 c 1,33,-1
 528 1063 l 1,34,-1
 421 1124 l 1,35,36
 331 1118 331 1118 300 1036 c 1,37,38
 340 1050 340 1050 366 1050 c 0,39,40
 395 1050 395 1050 429 1037 c 128,-1,41
 463 1024 463 1024 496.5 999.5 c 128,-1,42
 530 975 530 975 552 932 c 128,-1,43
 574 889 574 889 574 836 c 0,44,45
 574 735 574 735 507 671 c 128,-1,46
 440 607 440 607 348 607 c 128,-1,47
 256 607 256 607 177.5 683 c 128,-1,48
 99 759 99 759 98 888 c 0,49,50
 98 978 98 978 128 1058.5 c 128,-1,51
 158 1139 158 1139 225.5 1200.5 c 128,-1,52
 293 1262 293 1262 387 1279 c 1,53,-1
 528 1196 l 1,54,-1
 677 1279 l 1,55,56
 705 1271 705 1271 734 1258 c 128,-1,57
 763 1245 763 1245 801.5 1218 c 128,-1,58
 840 1191 840 1191 868.5 1155.5 c 128,-1,59
 897 1120 897 1120 917.5 1064.5 c 128,-1,60
 938 1009 938 1009 938 944 c 0,0,1
526 344 m 128,-1,62
 486 344 486 344 461 318.5 c 128,-1,63
 436 293 436 293 436 255 c 0,64,65
 436 218 436 218 462 192 c 128,-1,66
 488 166 488 166 526 166 c 128,-1,67
 564 166 564 166 590 192 c 128,-1,68
 616 218 616 218 616 255 c 0,69,70
 616 293 616 293 591 318.5 c 128,-1,61
 566 344 566 344 526 344 c 128,-1,62
348 918 m 0,71,72
 309 918 309 918 283.5 892 c 128,-1,73
 258 866 258 866 258 830 c 0,74,75
 258 793 258 793 285.5 766.5 c 128,-1,76
 313 740 313 740 348 740 c 0,77,78
 384 740 384 740 411 766 c 128,-1,79
 438 792 438 792 438 830 c 0,80,81
 438 866 438 866 412 892 c 128,-1,82
 386 918 386 918 348 918 c 0,71,72
EndSplineSet
EndChar

StartChar: uni0E07
Encoding: 3591 3591 130
Width: 1031
VWidth: 2045
Flags: W
HStem: 0 21G<644.755 845> 833 134<540.709 663.723> 1146 133<541.701 696.378>
VStem: 395 134<980.146 1133.51> 665 180<219 838> 709 136<979.042 1132.53>
DStem2: 196 681 87 571 0.711401 -0.702786<0 658.334>
LayerCount: 3
Fore
SplineSet
619 1279 m 0xf8
 742 1279 845 1180 845 1055 c 2
 845 0 l 1xf4
 665 0 l 1
 87 571 l 1
 196 681 l 1
 665 219 l 1
 665 838 l 1
 648 835 633 833 620 833 c 0
 491 833 395 937 395 1057 c 0
 395 1179 495 1279 619 1279 c 0xf8
620 1146 m 0
 567 1146 529 1105 529 1056 c 0
 529 1007 568 967 620 967 c 0
 671 967 709 1008 709 1056 c 0
 709 1104 672 1146 620 1146 c 0
EndSplineSet
Validated: 1
Layer: 2
SplineSet
619 1279 m 128,-1,1
 712 1279 712 1279 778.5 1213.5 c 128,-1,2
 845 1148 845 1148 845 1055 c 2,3,-1
 845 0 l 1,4,-1
 665 0 l 1,5,-1
 87 571 l 1,6,-1
 196 681 l 1,7,-1
 665 219 l 1,8,-1
 665 838 l 1,9,10
 637 833 637 833 620 833 c 0,11,12
 525 833 525 833 460 899.5 c 128,-1,13
 395 966 395 966 395 1057 c 0,14,15
 395 1149 395 1149 460.5 1214 c 128,-1,0
 526 1279 526 1279 619 1279 c 128,-1,1
620 1146 m 0,16,17
 581 1146 581 1146 555 1119.5 c 128,-1,18
 529 1093 529 1093 529 1056 c 128,-1,19
 529 1019 529 1019 555 993 c 128,-1,20
 581 967 581 967 620 967 c 0,21,22
 658 967 658 967 683.5 993 c 128,-1,23
 709 1019 709 1019 709 1056 c 128,-1,24
 709 1093 709 1093 683.5 1119.5 c 128,-1,25
 658 1146 658 1146 620 1146 c 0,16,17
EndSplineSet
EndChar

StartChar: uni0E08
Encoding: 3592 3592 131
Width: 1288
VWidth: 2045
Flags: W
HStem: 0 21G<753.876 948.226> 431 134<494.946 648.011> 744 133<494.016 647.021> 1101 178<444.183 766.263>
VStem: 112 180<789 945.918> 346 134<578.363 729.533> 920 180<640.118 945.144>
DStem2: 849 356 944 0 0.206744 0.978395<0 439.72>
LayerCount: 3
Fore
SplineSet
606 1101 m 0
 430 1101 292 963 292 789 c 1
 112 789 l 17
 112 1059 330 1279 606 1279 c 0
 882 1279 1100 1057 1100 789 c 0
 1100 757 1095 716 1086 672 c 2
 944 0 l 1
 758 0 l 1
 665 451 l 1
 636 438 605 431 572 431 c 0
 441 431 346 535 346 655 c 0
 346 784 452 877 570 877 c 0
 723 877 783 750 790 706 c 2
 849 356 l 1
 910 712 l 2
 917 753 920 779 920 791 c 0
 920 966 775 1101 606 1101 c 0
571 744 m 0
 524 744 480 706 480 654 c 0
 480 607 519 565 571 565 c 0
 622 565 660 606 660 654 c 0
 660 708 617 744 571 744 c 0
EndSplineSet
Validated: 1
Layer: 2
SplineSet
606 1101 m 0,0,1
 474 1101 474 1101 383 1010.5 c 128,-1,2
 292 920 292 920 292 789 c 1,3,-1
 112 789 l 1,4,5
 112 992 112 992 256 1135.5 c 128,-1,6
 400 1279 400 1279 606 1279 c 0,7,8
 741 1279 741 1279 855 1213 c 128,-1,9
 969 1147 969 1147 1034.5 1034 c 128,-1,10
 1100 921 1100 921 1100 789 c 0,11,12
 1100 740 1100 740 1086 672 c 2,13,-1
 944 0 l 1,14,-1
 758 0 l 1,15,-1
 665 451 l 1,16,17
 620 431 620 431 572 431 c 0,18,19
 475 431 475 431 410.5 497 c 128,-1,20
 346 563 346 563 346 655 c 0,21,22
 346 750 346 750 412.5 813.5 c 128,-1,23
 479 877 479 877 570 877 c 0,24,25
 624 877 624 877 667.5 857 c 128,-1,26
 711 837 711 837 735.5 807.5 c 128,-1,27
 760 778 760 778 773.5 752 c 128,-1,28
 787 726 787 726 790 706 c 2,29,-1
 849 356 l 1,30,-1
 910 712 l 2,31,32
 920 771 920 771 920 791 c 0,33,34
 920 921 920 921 827 1011 c 128,-1,35
 734 1101 734 1101 606 1101 c 0,0,1
571 744 m 128,-1,37
 535 744 535 744 507.5 718 c 128,-1,38
 480 692 480 692 480 654 c 0,39,40
 480 618 480 618 506.5 591.5 c 128,-1,41
 533 565 533 565 571 565 c 128,-1,42
 609 565 609 565 634.5 591 c 128,-1,43
 660 617 660 617 660 654 c 0,44,45
 660 693 660 693 633.5 718.5 c 128,-1,36
 607 744 607 744 571 744 c 128,-1,37
EndSplineSet
EndChar

StartChar: uni0E09
Encoding: 3593 3593 132
Width: 1466
VWidth: 2045
Flags: W
HStem: -11 134<1040.28 1195.18> 350 134<298.29 420.65> 662 133<297.558 451.23> 1101 178<495.385 842.299>
VStem: 149 136<498.838 647.821> 421 180<175 354> 465 136<496.223 647.409> 1028 180<417 911.997> 1208 135<135.162 287.067>
DStem2: 601 175 601 0 0.869993 0.493064<0 255.43>
LayerCount: 3
Fore
SplineSet
668 1101 m 0xfd
 461 1101 352 943 323 851 c 1
 152 904 l 17
 216 1099 404 1279 668 1279 c 0
 969 1279 1208 1037 1208 743 c 2
 1208 417 l 1xfd
 1255 399 1343 335 1343 213 c 0
 1343 87 1241 -11 1118 -11 c 0
 986 -11 913 87 898 169 c 1
 601 0 l 1xfa80
 421 0 l 1
 421 354 l 1xfc
 408 351 393 350 375 350 c 0
 194 350 149 484 149 573 c 0
 149 700 251 795 375 795 c 0
 505 795 601 692 601 572 c 2xfa
 601 175 l 1
 1028 417 l 1
 1028 743 l 2
 1028 937 873 1101 668 1101 c 0xfd
1118 302 m 0
 1072 302 1028 265 1028 212 c 0xf9
 1028 164 1067 123 1118 123 c 0
 1170 123 1208 165 1208 212 c 0xf880
 1208 263 1164 302 1118 302 c 0
375 662 m 0
 323 662 285 620 285 573 c 0
 285 520 330 484 375 484 c 0
 423 484 465 521 465 573 c 0xfa
 465 619 429 662 375 662 c 0
EndSplineSet
Validated: 1
Layer: 2
SplineSet
668 1101 m 0,0,1
 595 1101 595 1101 532 1075.5 c 128,-1,2
 469 1050 469 1050 428 1010 c 128,-1,3
 387 970 387 970 361 929.5 c 128,-1,4
 335 889 335 889 323 851 c 1,5,-1
 152 904 l 1,6,7
 204 1061 204 1061 342 1170 c 128,-1,8
 480 1279 480 1279 668 1279 c 0,9,10
 779 1279 779 1279 879 1236.5 c 128,-1,11
 979 1194 979 1194 1051 1122 c 128,-1,12
 1123 1050 1123 1050 1165.5 950.5 c 128,-1,13
 1208 851 1208 851 1208 743 c 2,14,-1
 1208 417 l 1,15,16
 1256 399 1256 399 1299.5 346.5 c 128,-1,17
 1343 294 1343 294 1343 213 c 0,18,19
 1343 119 1343 119 1277 54 c 128,-1,20
 1211 -11 1211 -11 1118 -11 c 0,21,22
 1027 -11 1027 -11 969 44 c 128,-1,23
 911 99 911 99 898 169 c 1,24,-1
 601 0 l 1,25,-1
 421 0 l 1,26,-1
 421 354 l 1,27,28
 404 350 404 350 375 350 c 0,29,30
 323 350 323 350 282 365 c 128,-1,31
 241 380 241 380 217 403 c 128,-1,32
 193 426 193 426 177 456.5 c 128,-1,33
 161 487 161 487 155 515.5 c 128,-1,34
 149 544 149 544 149 573 c 0,35,36
 149 667 149 667 215 731 c 128,-1,37
 281 795 281 795 375 795 c 0,38,39
 471 795 471 795 536 729 c 128,-1,40
 601 663 601 663 601 572 c 2,41,-1
 601 175 l 1,42,-1
 1028 417 l 1,43,-1
 1028 743 l 2,44,45
 1028 890 1028 890 924 995.5 c 128,-1,46
 820 1101 820 1101 668 1101 c 0,0,1
1118 302 m 0,47,48
 1082 302 1082 302 1055 276.5 c 128,-1,49
 1028 251 1028 251 1028 212 c 0,50,51
 1028 176 1028 176 1054 149.5 c 128,-1,52
 1080 123 1080 123 1118 123 c 128,-1,53
 1156 123 1156 123 1182 149.5 c 128,-1,54
 1208 176 1208 176 1208 212 c 0,55,56
 1208 249 1208 249 1180.5 275.5 c 128,-1,57
 1153 302 1153 302 1118 302 c 0,47,48
375 662 m 0,58,59
 337 662 337 662 311 635.5 c 128,-1,60
 285 609 285 609 285 573 c 0,61,62
 285 535 285 535 312.5 509.5 c 128,-1,63
 340 484 340 484 375 484 c 0,64,65
 412 484 412 484 438.5 509.5 c 128,-1,66
 465 535 465 535 465 573 c 0,67,68
 465 609 465 609 439.5 635.5 c 128,-1,69
 414 662 414 662 375 662 c 0,58,59
EndSplineSet
EndChar

StartChar: uni0E0A
Encoding: 3594 3594 133
Width: 1355
VWidth: 2045
Flags: W
HStem: 0 178<372 460 640 963> 699 133<226.635 380.294> 1101 178<439 552.983>
VStem: 79 134<846.509 993.922> 393 136<845.273 997.215> 460 180<178 638.667> 619 180<783.458 1036.77> 963 180<178 843.582> 1073 180<1171.92 1362>
LayerCount: 3
Fore
SplineSet
799 914 m 0xfa
 799 647 640 698 640 499 c 2
 640 178 l 1
 963 178 l 1
 963 804 l 2xf5
 963 826 948 840 917 846 c 1
 917 1024 l 1
 973 1071 1073 1185 1073 1362 c 1
 1253 1362 l 1xf080
 1253 1153 1171 1033 1091 942 c 1
 1126 901 1143 855 1143 804 c 2
 1143 0 l 1
 372 0 l 1
 372 178 l 1
 460 178 l 1
 460 499 l 2xf5
 460 772 619 732 619 906 c 0
 619 1033 528 1101 439 1101 c 1
 490 1054 529 998 529 921 c 0
 529 791 425 699 303 699 c 0
 207 699 79 759 79 949 c 0
 79 1096 222 1279 439 1279 c 0
 634 1279 799 1127 799 914 c 0xfa
304 1010 m 0
 258 1010 213 973 213 922 c 0
 213 874 252 832 304 832 c 0
 357 832 393 876 393 922 c 0xf8
 393 969 356 1010 304 1010 c 0
EndSplineSet
Validated: 1
Layer: 2
SplineSet
799 914 m 0,0,1
 799 840 799 840 782.5 788.5 c 128,-1,2
 766 737 766 737 743 708.5 c 128,-1,3
 720 680 720 680 696.5 655 c 128,-1,4
 673 630 673 630 656.5 591.5 c 128,-1,5
 640 553 640 553 640 499 c 2,6,-1
 640 178 l 1,7,-1
 963 178 l 1,8,-1
 963 804 l 2,9,10
 963 837 963 837 917 846 c 1,11,-1
 917 1024 l 1,12,13
 942 1045 942 1045 965.5 1073 c 128,-1,14
 989 1101 989 1101 1015 1143 c 128,-1,15
 1041 1185 1041 1185 1057 1242.5 c 128,-1,16
 1073 1300 1073 1300 1073 1362 c 1,17,-1
 1253 1362 l 1,18,19
 1253 1264 1253 1264 1227.5 1179.5 c 128,-1,20
 1202 1095 1202 1095 1170 1045.5 c 128,-1,21
 1138 996 1138 996 1091 942 c 1,22,23
 1143 881 1143 881 1143 804 c 2,24,-1
 1143 0 l 1,25,-1
 372 0 l 1,26,-1
 372 178 l 1,27,-1
 460 178 l 1,28,-1
 460 499 l 2,29,30
 460 575 460 575 476.5 628.5 c 128,-1,31
 493 682 493 682 516.5 711 c 128,-1,32
 540 740 540 740 563 765 c 128,-1,33
 586 790 586 790 602.5 824.5 c 128,-1,34
 619 859 619 859 619 906 c 0,35,36
 619 996 619 996 565 1048.5 c 128,-1,37
 511 1101 511 1101 439 1101 c 1,38,39
 529 1018 529 1018 529 921 c 0,40,41
 529 825 529 825 462.5 762 c 128,-1,42
 396 699 396 699 303 699 c 0,43,44
 264 699 264 699 227 712 c 128,-1,45
 190 725 190 725 155.5 752 c 128,-1,46
 121 779 121 779 100 830 c 128,-1,47
 79 881 79 881 79 949 c 0,48,49
 79 1024 79 1024 122.5 1099 c 128,-1,50
 166 1174 166 1174 251 1226.5 c 128,-1,51
 336 1279 336 1279 439 1279 c 0,52,53
 588 1279 588 1279 693.5 1175 c 128,-1,54
 799 1071 799 1071 799 914 c 0,0,1
304 1010 m 0,55,56
 268 1010 268 1010 240.5 984.5 c 128,-1,57
 213 959 213 959 213 922 c 128,-1,58
 213 885 213 885 239.5 858.5 c 128,-1,59
 266 832 266 832 304 832 c 128,-1,60
 342 832 342 832 367.5 859 c 128,-1,61
 393 886 393 886 393 922 c 128,-1,62
 393 958 393 958 367.5 984 c 128,-1,63
 342 1010 342 1010 304 1010 c 0,55,56
EndSplineSet
EndChar

StartChar: uni0E0B
Encoding: 3595 3595 134
Width: 1440
VWidth: 2045
Flags: W
HStem: 0 178<477 565 745 1068> 607 133<235.26 390.458> 918 132<266.961 391.036> 1063 21G<459.918 528.115> 1259 20G<265.5 387.217 607.337 689>
VStem: 71 152<753.173 901.846> 404 134<752.228 906.313> 565 180<178 614.193> 724 180<794.573 1055.97> 1068 180<178 845.713> 1178 180<1170.78 1362>
LayerCount: 3
Fore
SplineSet
314 918 m 0xfe
 255 918 223 871 223 830 c 0
 223 784 259 740 314 740 c 0
 370 740 404 785 404 830 c 0
 404 872 373 918 314 918 c 0xfe
1023 1024 m 1
 1105 1095 1178 1207 1178 1362 c 1
 1358 1362 l 1xfe20
 1358 1159 1275 1032 1196 942 c 1
 1231 901 1248 855 1248 804 c 2
 1248 0 l 1
 477 0 l 1
 477 178 l 1
 565 178 l 1
 565 465 l 2xff40
 565 716 724 781 724 921 c 0
 724 1041 643 1101 596 1124 c 1
 495 1063 l 1
 388 1124 l 1
 328 1120 287 1091 266 1036 c 1
 291 1045 315 1050 333 1050 c 0
 402 1050 538 985 538 836 c 0
 538 698 434 607 314 607 c 0
 192 607 72 704 71 888 c 1
 71 1099 178 1247 353 1279 c 1
 495 1196 l 1
 643 1279 l 1
 735 1255 904 1167 904 929 c 0xfe80
 904 691 745 641 745 467 c 2
 745 178 l 1
 1068 178 l 1
 1068 804 l 2xff40
 1068 826 1053 840 1023 846 c 1
 1023 1024 l 1
EndSplineSet
Validated: 1
Layer: 2
SplineSet
314 918 m 128,-1,1
 272 918 272 918 247.5 891 c 128,-1,2
 223 864 223 864 223 830 c 0,3,4
 223 794 223 794 248.5 767 c 128,-1,5
 274 740 274 740 314 740 c 128,-1,6
 354 740 354 740 379 767 c 128,-1,7
 404 794 404 794 404 830 c 0,8,9
 404 864 404 864 380 891 c 128,-1,0
 356 918 356 918 314 918 c 128,-1,1
1023 1024 m 1,10,11
 1178 1158 1178 1158 1178 1362 c 1,12,-1
 1358 1362 l 1,13,14
 1358 1224 1358 1224 1313.5 1124.5 c 128,-1,15
 1269 1025 1269 1025 1196 942 c 1,16,17
 1248 881 1248 881 1248 804 c 2,18,-1
 1248 0 l 1,19,-1
 477 0 l 1,20,-1
 477 178 l 1,21,-1
 565 178 l 1,22,-1
 565 465 l 2,23,24
 565 550 565 550 590 622 c 128,-1,25
 615 694 615 694 644.5 735 c 128,-1,26
 674 776 674 776 699 825.5 c 128,-1,27
 724 875 724 875 724 921 c 0,28,29
 724 963 724 963 711 999 c 128,-1,30
 698 1035 698 1035 677 1059.5 c 128,-1,31
 656 1084 656 1084 636.5 1099 c 128,-1,32
 617 1114 617 1114 596 1124 c 1,33,-1
 495 1063 l 1,34,-1
 388 1124 l 1,35,36
 297 1118 297 1118 266 1036 c 1,37,38
 305 1050 305 1050 333 1050 c 128,-1,39
 361 1050 361 1050 394.5 1037 c 128,-1,40
 428 1024 428 1024 461 999.5 c 128,-1,41
 494 975 494 975 516 932 c 128,-1,42
 538 889 538 889 538 836 c 0,43,44
 538 735 538 735 472.5 671 c 128,-1,45
 407 607 407 607 314 607 c 0,46,47
 216 607 216 607 144 682 c 128,-1,48
 72 757 72 757 71 888 c 0,49,50
 71 1046 71 1046 146.5 1150.5 c 128,-1,51
 222 1255 222 1255 353 1279 c 1,52,-1
 495 1196 l 1,53,-1
 643 1279 l 1,54,55
 684 1268 684 1268 724 1246.5 c 128,-1,56
 764 1225 764 1225 807 1185.5 c 128,-1,57
 850 1146 850 1146 877 1079.5 c 128,-1,58
 904 1013 904 1013 904 929 c 0,59,60
 904 863 904 863 887.5 807.5 c 128,-1,61
 871 752 871 752 848 713 c 128,-1,62
 825 674 825 674 801.5 637.5 c 128,-1,63
 778 601 778 601 761.5 558 c 128,-1,64
 745 515 745 515 745 467 c 2,65,-1
 745 178 l 1,66,-1
 1068 178 l 1,67,-1
 1068 804 l 2,68,69
 1068 837 1068 837 1023 846 c 1,70,-1
 1023 1024 l 1,10,11
EndSplineSet
EndChar

StartChar: uni0E0C
Encoding: 3596 3596 135
Width: 1924
VWidth: 2045
Flags: W
HStem: -11 134<383.335 536.409 918.585 1069.79> 302 133<417.046 538.326 917.476 994> 744 178<416 507> 1101 178<460.803 808.106> 1234 20G<1557 1737>
VStem: 236 180<430 744> 236 135<136.514 289.706> 551 136<136.145 287.122> 769 136<136.443 289.813> 994 180<435 913.651> 1557 180<177 1254>
DStem2: 1174 373 1217 172 0.890204 -0.455561<129.847 430.238>
LayerCount: 3
Fore
SplineSet
769 213 m 0xede0
 769 337 871 435 994 435 c 9
 994 744 l 2
 994 940 838 1101 635 1101 c 0
 447 1101 352 971 322 922 c 1
 507 922 l 1
 507 744 l 1
 416 744 l 1
 416 430 l 1xf5e0
 428 433 443 435 461 435 c 0
 585 435 687 337 687 213 c 0
 687 92 588 -11 461 -11 c 0
 335 -11 236 93 236 211 c 2xf3e0
 236 744 l 1
 95 744 l 1
 95 1036 333 1279 635 1279 c 0xf5e0
 933 1279 1174 1038 1174 744 c 2
 1174 373 l 1
 1557 177 l 1
 1557 1254 l 1
 1737 1254 l 1
 1737 0 l 1
 1557 0 l 1
 1217 172 l 1
 1200 80 1116 -11 994 -11 c 0
 866 -11 769 92 769 213 c 0xede0
994 302 m 0
 948 302 905 265 905 212 c 0
 905 158 950 123 994 123 c 0
 1045 123 1084 164 1084 212 c 0
 1084 265 1040 302 994 302 c 0
461 302 m 0
 410 302 371 260 371 212 c 0xe3e0
 371 164 410 123 461 123 c 0
 508 123 551 160 551 212 c 0
 551 264 507 302 461 302 c 0
EndSplineSet
Validated: 1
Layer: 2
SplineSet
769 213 m 0,0,1
 769 306 769 306 835 370.5 c 128,-1,2
 901 435 901 435 994 435 c 1,3,-1
 994 744 l 2,4,5
 994 892 994 892 890 996.5 c 128,-1,6
 786 1101 786 1101 635 1101 c 0,7,8
 582 1101 582 1101 533.5 1086.5 c 128,-1,9
 485 1072 485 1072 452.5 1052.5 c 128,-1,10
 420 1033 420 1033 391 1006 c 128,-1,11
 362 979 362 979 348 960 c 128,-1,12
 334 941 334 941 322 922 c 1,13,-1
 507 922 l 1,14,-1
 507 744 l 1,15,-1
 416 744 l 1,16,-1
 416 430 l 1,17,18
 436 435 436 435 461 435 c 0,19,20
 554 435 554 435 620.5 370.5 c 128,-1,21
 687 306 687 306 687 213 c 0,22,23
 687 121 687 121 621 55 c 128,-1,24
 555 -11 555 -11 461 -11 c 0,25,26
 368 -11 368 -11 302 55 c 128,-1,27
 236 121 236 121 236 211 c 2,28,-1
 236 744 l 1,29,-1
 95 744 l 1,30,31
 95 888 95 888 166.5 1011 c 128,-1,32
 238 1134 238 1134 362.5 1206.5 c 128,-1,33
 487 1279 487 1279 635 1279 c 0,34,35
 781 1279 781 1279 905.5 1207 c 128,-1,36
 1030 1135 1030 1135 1102 1012 c 128,-1,37
 1174 889 1174 889 1174 744 c 2,38,-1
 1174 373 l 1,39,-1
 1557 177 l 1,40,-1
 1557 1254 l 1,41,-1
 1737 1254 l 1,42,-1
 1737 0 l 1,43,-1
 1557 0 l 1,44,-1
 1217 172 l 1,45,46
 1203 98 1203 98 1142 43.5 c 128,-1,47
 1081 -11 1081 -11 994 -11 c 0,48,49
 899 -11 899 -11 834 55 c 128,-1,50
 769 121 769 121 769 213 c 0,0,1
994 302 m 128,-1,52
 958 302 958 302 931.5 276.5 c 128,-1,53
 905 251 905 251 905 212 c 128,-1,54
 905 173 905 173 932 148 c 128,-1,55
 959 123 959 123 994 123 c 0,56,57
 1032 123 1032 123 1058 149.5 c 128,-1,58
 1084 176 1084 176 1084 212 c 0,59,60
 1084 251 1084 251 1057 276.5 c 128,-1,51
 1030 302 1030 302 994 302 c 128,-1,52
461 302 m 0,61,62
 423 302 423 302 397 275.5 c 128,-1,63
 371 249 371 249 371 212 c 0,64,65
 371 176 371 176 397 149.5 c 128,-1,66
 423 123 423 123 461 123 c 0,67,68
 497 123 497 123 524 148.5 c 128,-1,69
 551 174 551 174 551 212 c 128,-1,70
 551 250 551 250 524 276 c 128,-1,71
 497 302 497 302 461 302 c 0,61,62
EndSplineSet
EndChar

StartChar: uni0E0D
Encoding: 3597 3597 136
Width: 1924
VWidth: 2045
Flags: W
HStem: -577 163<1311 1468.65> -207 134<1066.58 1221.48> -11 134<375.699 526.409> 0 178<1164 1547> 302 133<405.573 528.326> 744 178<405 497> 1101 178<450.812 797.913> 1234 20G<1547 1727>
VStem: 225 180<430 744> 225 136<135.713 289.706> 541 136<136.145 287.122> 921 133<-372.806 -221.616> 984 180<178 913.651> 1235 134<-371.394 -221.214> 1547 180<178 1254>
LayerCount: 3
Fore
SplineSet
625 1279 m 0xeea6
 922 1279 1164 1037 1164 744 c 2
 1164 178 l 1
 1547 178 l 1
 1547 1254 l 1
 1727 1254 l 1xddae
 1727 0 l 1
 984 0 l 25
 984 744 l 2
 984 940 828 1101 625 1101 c 0
 438 1101 340 969 314 922 c 1
 497 922 l 1
 497 744 l 1
 405 744 l 1
 405 430 l 1xdeae
 416 433 432 435 451 435 c 0
 575 435 677 337 677 213 c 0
 677 92 578 -11 451 -11 c 0
 324 -11 225 91 225 211 c 2xee66
 225 744 l 1
 85 744 l 1
 85 1036 323 1279 625 1279 c 0xeea6
1369 -282 m 0
 1369 -343 1347 -388 1311 -414 c 1
 1498 -414 1580 -275 1631 -154 c 1
 1774 -249 l 1
 1679 -451 1534 -577 1277 -577 c 0
 1036 -577 921 -443 921 -301 c 0xcc36
 921 -165 1018 -73 1145 -73 c 0
 1266 -73 1369 -172 1369 -282 c 0
1144 -207 m 0
 1092 -207 1054 -249 1054 -296 c 0
 1054 -343 1092 -385 1144 -385 c 0
 1194 -385 1235 -343 1235 -296 c 0
 1235 -245 1190 -207 1144 -207 c 0
451 302 m 0
 400 302 361 260 361 212 c 0
 361 164 400 123 451 123 c 0xec66
 498 123 541 160 541 212 c 0
 541 264 497 302 451 302 c 0
EndSplineSet
Validated: 1
Layer: 2
SplineSet
625 1279 m 0,0,1
 734 1279 734 1279 834 1236.5 c 128,-1,2
 934 1194 934 1194 1006 1122 c 128,-1,3
 1078 1050 1078 1050 1121 951 c 128,-1,4
 1164 852 1164 852 1164 744 c 2,5,-1
 1164 178 l 1,6,-1
 1547 178 l 1,7,-1
 1547 1254 l 1,8,-1
 1727 1254 l 1,9,-1
 1727 0 l 1,10,-1
 984 0 l 1,11,-1
 984 744 l 2,12,13
 984 892 984 892 880 996.5 c 128,-1,14
 776 1101 776 1101 625 1101 c 0,15,16
 560 1101 560 1101 502.5 1080.5 c 128,-1,17
 445 1060 445 1060 407.5 1028 c 128,-1,18
 370 996 370 996 348.5 970.5 c 128,-1,19
 327 945 327 945 314 922 c 1,20,-1
 497 922 l 1,21,-1
 497 744 l 1,22,-1
 405 744 l 1,23,-1
 405 430 l 1,24,25
 423 435 423 435 451 435 c 0,26,27
 544 435 544 435 610.5 370.5 c 128,-1,28
 677 306 677 306 677 213 c 0,29,30
 677 121 677 121 611 55 c 128,-1,31
 545 -11 545 -11 451 -11 c 128,-1,32
 357 -11 357 -11 291 54.5 c 128,-1,33
 225 120 225 120 225 211 c 2,34,-1
 225 744 l 1,35,-1
 85 744 l 1,36,37
 85 888 85 888 156.5 1011 c 128,-1,38
 228 1134 228 1134 352.5 1206.5 c 128,-1,39
 477 1279 477 1279 625 1279 c 0,0,1
1369 -282 m 0,40,41
 1369 -372 1369 -372 1311 -414 c 1,42,43
 1378 -414 1378 -414 1432 -391.5 c 128,-1,44
 1486 -369 1486 -369 1523.5 -328 c 128,-1,45
 1561 -287 1561 -287 1585 -247 c 128,-1,46
 1609 -207 1609 -207 1631 -154 c 1,47,-1
 1774 -249 l 1,48,49
 1699 -409 1699 -409 1580 -493 c 128,-1,50
 1461 -577 1461 -577 1277 -577 c 0,51,52
 1106 -577 1106 -577 1013.5 -496.5 c 128,-1,53
 921 -416 921 -416 921 -301 c 0,54,55
 921 -200 921 -200 985 -136.5 c 128,-1,56
 1049 -73 1049 -73 1145 -73 c 0,57,58
 1235 -73 1235 -73 1302 -136 c 128,-1,59
 1369 -199 1369 -199 1369 -282 c 0,40,41
1144 -207 m 0,60,61
 1106 -207 1106 -207 1080 -233.5 c 128,-1,62
 1054 -260 1054 -260 1054 -296 c 128,-1,63
 1054 -332 1054 -332 1080 -358.5 c 128,-1,64
 1106 -385 1106 -385 1144 -385 c 0,65,66
 1181 -385 1181 -385 1208 -358.5 c 128,-1,67
 1235 -332 1235 -332 1235 -296 c 0,68,69
 1235 -259 1235 -259 1207.5 -233 c 128,-1,70
 1180 -207 1180 -207 1144 -207 c 0,60,61
451 302 m 0,71,72
 413 302 413 302 387 275.5 c 128,-1,73
 361 249 361 249 361 212 c 0,74,75
 361 176 361 176 387 149.5 c 128,-1,76
 413 123 413 123 451 123 c 0,77,78
 487 123 487 123 514 148.5 c 128,-1,79
 541 174 541 174 541 212 c 128,-1,80
 541 250 541 250 514 276 c 128,-1,81
 487 302 487 302 451 302 c 0,71,72
EndSplineSet
Substitution2: "'ccmp' Pali-Sanskrit Descender Removal" uni0E0D.descless
Substitution2: "Thai Descender Removal Single Substitution" uni0E0D.descless
EndChar

StartChar: uni0E0E
Encoding: 3598 3598 137
Width: 1473
VWidth: 2045
Flags: W
HStem: -526 133<530.255 684.375> -214 133<530.932 684.856> -11 134<256.341 409.034> 302 133<254.875 377.206> 744 178<558 646> 1101 178<578.96 924.026>
VStem: 106 136<136.042 287.703> 382 136<-380.717 -228.357> 422 136<139.884 289.504> 1113 180<-260 909.216>
AnchorPoint: "BelowBase" 1104 -625 basechar 0
LayerCount: 3
Fore
SplineSet
753 1279 m 0xfec0
 1066 1279 1293 1023 1293 744 c 2
 1293 -302 l 1
 997 -595 l 1
 814 -414 l 1
 764 -464 718 -526 606 -526 c 0
 486 -526 382 -428 382 -304 c 0xff40
 382 -175 487 -81 608 -81 c 0
 712 -81 765 -146 814 -193 c 1
 920 -89 l 1
 1032 -198 l 1
 925 -304 l 1
 997 -375 l 1
 1113 -260 l 1
 1113 744 l 2
 1113 934 961 1101 754 1101 c 0
 603 1101 489 1014 442 922 c 1
 646 922 l 1
 646 744 l 1
 558 744 l 1
 558 213 l 2
 558 86 454 -11 332 -11 c 0
 205 -11 106 90 106 213 c 0
 106 340 209 435 332 435 c 0
 350 435 365 433 378 430 c 1
 378 744 l 1
 213 744 l 1
 213 1036 451 1279 753 1279 c 0xfec0
607 -214 m 0
 559 -214 518 -252 518 -304 c 0
 518 -355 559 -393 607 -393 c 0
 653 -393 698 -357 698 -304 c 0
 698 -251 653 -214 607 -214 c 0
332 302 m 0
 286 302 242 264 242 212 c 0
 242 158 288 123 332 123 c 0
 379 123 422 160 422 212 c 0xfec0
 422 264 378 302 332 302 c 0
EndSplineSet
Validated: 1
Layer: 2
SplineSet
753 1279 m 0,0,1
 867 1279 867 1279 969 1234.5 c 128,-1,2
 1071 1190 1071 1190 1141 1116.5 c 128,-1,3
 1211 1043 1211 1043 1252 945.5 c 128,-1,4
 1293 848 1293 848 1293 744 c 2,5,-1
 1293 -302 l 1,6,-1
 997 -595 l 1,7,-1
 814 -414 l 1,8,9
 810 -418 810 -418 793.5 -435.5 c 128,-1,10
 777 -453 777 -453 770 -459 c 128,-1,11
 763 -465 763 -465 747 -478.5 c 128,-1,12
 731 -492 731 -492 718.5 -498 c 128,-1,13
 706 -504 706 -504 688 -512 c 128,-1,14
 670 -520 670 -520 649.5 -523 c 128,-1,15
 629 -526 629 -526 606 -526 c 0,16,17
 515 -526 515 -526 448.5 -461 c 128,-1,18
 382 -396 382 -396 382 -304 c 0,19,20
 382 -209 382 -209 449 -145 c 128,-1,21
 516 -81 516 -81 608 -81 c 0,22,23
 630 -81 630 -81 649 -84 c 128,-1,24
 668 -87 668 -87 686 -95.5 c 128,-1,25
 704 -104 704 -104 716.5 -110 c 128,-1,26
 729 -116 729 -116 745.5 -130 c 128,-1,27
 762 -144 762 -144 769 -150 c 128,-1,28
 776 -156 776 -156 793 -172.5 c 128,-1,29
 810 -189 810 -189 814 -193 c 1,30,-1
 920 -89 l 1,31,-1
 1032 -198 l 1,32,-1
 925 -304 l 1,33,-1
 997 -375 l 1,34,-1
 1113 -260 l 1,35,-1
 1113 744 l 2,36,37
 1113 889 1113 889 1010 995 c 128,-1,38
 907 1101 907 1101 754 1101 c 0,39,40
 647 1101 647 1101 563.5 1049 c 128,-1,41
 480 997 480 997 442 922 c 1,42,-1
 646 922 l 1,43,-1
 646 744 l 1,44,-1
 558 744 l 1,45,-1
 558 213 l 2,46,47
 558 119 558 119 491.5 54 c 128,-1,48
 425 -11 425 -11 332 -11 c 0,49,50
 237 -11 237 -11 171.5 54.5 c 128,-1,51
 106 120 106 120 106 213 c 0,52,53
 106 307 106 307 172.5 371 c 128,-1,54
 239 435 239 435 332 435 c 0,55,56
 356 435 356 435 378 430 c 1,57,-1
 378 744 l 1,58,-1
 213 744 l 1,59,60
 213 888 213 888 284.5 1011 c 128,-1,61
 356 1134 356 1134 480.5 1206.5 c 128,-1,62
 605 1279 605 1279 753 1279 c 0,0,1
607 -214 m 0,63,64
 570 -214 570 -214 544 -240 c 128,-1,65
 518 -266 518 -266 518 -304 c 128,-1,66
 518 -342 518 -342 544 -367.5 c 128,-1,67
 570 -393 570 -393 607 -393 c 0,68,69
 643 -393 643 -393 670.5 -367.5 c 128,-1,70
 698 -342 698 -342 698 -304 c 128,-1,71
 698 -266 698 -266 670.5 -240 c 128,-1,72
 643 -214 643 -214 607 -214 c 0,63,64
332 302 m 128,-1,74
 296 302 296 302 269 276 c 128,-1,75
 242 250 242 250 242 212 c 0,76,77
 242 173 242 173 269.5 148 c 128,-1,78
 297 123 297 123 332 123 c 0,79,80
 368 123 368 123 395 148.5 c 128,-1,81
 422 174 422 174 422 212 c 128,-1,82
 422 250 422 250 395 276 c 128,-1,73
 368 302 368 302 332 302 c 128,-1,74
EndSplineSet
EndChar

StartChar: uni0E0F
Encoding: 3599 3599 138
Width: 1486
VWidth: 2045
Flags: W
HStem: -526 133<301.481 457.24> -214 133<301.765 456.659> -11 134<256.341 409.034> 302 133<254.875 377.206> 744 178<558 646> 1101 178<577.693 924.026>
VStem: 106 136<136.042 287.703> 155 134<-380.723 -226.132> 378 180<430 744> 422 136<139.884 289.504> 1113 180<-260 909.216>
AnchorPoint: "BelowBase" 1065 -625 basechar 0
LayerCount: 3
Fore
SplineSet
1113 744 m 2xfda0
 1113 934 961 1101 754 1101 c 0
 567 1101 478 980 442 922 c 9
 646 922 l 1
 646 744 l 1
 558 744 l 1xfda0
 558 213 l 2
 558 86 454 -11 332 -11 c 0
 205 -11 106 90 106 213 c 0xfe60
 106 340 209 435 332 435 c 0
 350 435 365 433 378 430 c 1
 378 744 l 1
 213 744 l 1
 213 1036 451 1279 753 1279 c 0
 1066 1279 1293 1023 1293 744 c 2
 1293 -302 l 1
 997 -595 l 1
 881 -480 l 1
 768 -595 l 1
 585 -414 l 1
 536 -465 494 -526 379 -526 c 0
 254 -526 155 -427 155 -304 c 0
 155 -178 256 -81 379 -81 c 0
 485 -81 535 -145 585 -193 c 1
 692 -88 l 1
 803 -199 l 1
 696 -305 l 1
 768 -375 l 1
 881 -260 l 1
 997 -375 l 1
 1113 -260 l 1
 1113 744 l 2xfda0
379 -214 m 0
 326 -214 289 -255 289 -304 c 0
 289 -352 327 -393 379 -393 c 0
 432 -393 469 -354 469 -304 c 0
 469 -250 428 -214 379 -214 c 0
332 302 m 0
 286 302 242 264 242 212 c 0
 242 158 288 123 332 123 c 0
 379 123 422 160 422 212 c 0xfe60
 422 264 378 302 332 302 c 0
EndSplineSet
Validated: 1
Layer: 2
SplineSet
1113 744 m 2,0,1
 1113 889 1113 889 1010 995 c 128,-1,2
 907 1101 907 1101 754 1101 c 0,3,4
 553 1101 553 1101 442 922 c 1,5,-1
 646 922 l 1,6,-1
 646 744 l 1,7,-1
 558 744 l 1,8,-1
 558 213 l 2,9,10
 558 119 558 119 491.5 54 c 128,-1,11
 425 -11 425 -11 332 -11 c 0,12,13
 237 -11 237 -11 171.5 54.5 c 128,-1,14
 106 120 106 120 106 213 c 0,15,16
 106 307 106 307 172.5 371 c 128,-1,17
 239 435 239 435 332 435 c 0,18,19
 356 435 356 435 378 430 c 1,20,-1
 378 744 l 1,21,-1
 213 744 l 1,22,23
 213 888 213 888 284.5 1011 c 128,-1,24
 356 1134 356 1134 480.5 1206.5 c 128,-1,25
 605 1279 605 1279 753 1279 c 0,26,27
 867 1279 867 1279 969 1234.5 c 128,-1,28
 1071 1190 1071 1190 1141 1116.5 c 128,-1,29
 1211 1043 1211 1043 1252 945.5 c 128,-1,30
 1293 848 1293 848 1293 744 c 2,31,-1
 1293 -302 l 1,32,-1
 997 -595 l 1,33,-1
 881 -480 l 1,34,-1
 768 -595 l 1,35,-1
 585 -414 l 1,36,37
 581 -418 581 -418 565 -435.5 c 128,-1,38
 549 -453 549 -453 542.5 -459 c 128,-1,39
 536 -465 536 -465 520.5 -479 c 128,-1,40
 505 -493 505 -493 492.5 -498.5 c 128,-1,41
 480 -504 480 -504 462 -512 c 128,-1,42
 444 -520 444 -520 423.5 -523 c 128,-1,43
 403 -526 403 -526 379 -526 c 0,44,45
 285 -526 285 -526 220 -461 c 128,-1,46
 155 -396 155 -396 155 -304 c 0,47,48
 155 -210 155 -210 220.5 -145.5 c 128,-1,49
 286 -81 286 -81 379 -81 c 0,50,51
 405 -81 405 -81 428.5 -87 c 128,-1,52
 452 -93 452 -93 467.5 -98.5 c 128,-1,53
 483 -104 483 -104 504 -120 c 128,-1,54
 525 -136 525 -136 532 -141.5 c 128,-1,55
 539 -147 539 -147 560.5 -169 c 128,-1,56
 582 -191 582 -191 585 -193 c 2,57,-1
 692 -88 l 1,58,-1
 803 -199 l 1,59,-1
 696 -305 l 1,60,-1
 768 -375 l 1,61,-1
 881 -260 l 1,62,-1
 997 -375 l 1,63,-1
 1113 -260 l 1,64,-1
 1113 744 l 2,0,1
379 -214 m 0,65,66
 340 -214 340 -214 314.5 -240.5 c 128,-1,67
 289 -267 289 -267 289 -304 c 128,-1,68
 289 -341 289 -341 315 -367 c 128,-1,69
 341 -393 341 -393 379 -393 c 0,70,71
 418 -393 418 -393 443.5 -367.5 c 128,-1,72
 469 -342 469 -342 469 -304 c 0,73,74
 469 -264 469 -264 443 -239 c 128,-1,75
 417 -214 417 -214 379 -214 c 0,65,66
332 302 m 128,-1,77
 296 302 296 302 269 276 c 128,-1,78
 242 250 242 250 242 212 c 0,79,80
 242 173 242 173 269.5 148 c 128,-1,81
 297 123 297 123 332 123 c 0,82,83
 368 123 368 123 395 148.5 c 128,-1,84
 422 174 422 174 422 212 c 128,-1,85
 422 250 422 250 395 276 c 128,-1,76
 368 302 368 302 332 302 c 128,-1,77
EndSplineSet
EndChar

StartChar: uni0E10
Encoding: 3600 3600 139
Width: 1245
VWidth: 2045
Flags: W
HStem: -807 134<51.0592 202.73> -521 133<715.818 838.433> -494 134<50.5561 203.051> -210 134<716.701 869.465> 0 21G<678.985 907.012> 244 134<456.953 612.939> 557 133<459.827 611.747> 744 178<363 847.513> 1101 178<502.326 846.672>
VStem: -98 134<-659.602 -506.925> 311 134<390.966 544.305> 569 134<-373.115 -222.999> 858 180<583.656 733.901> 883 136<-375.988 -223.591>
DStem2: 794 285 903 0 0.196694 0.980465<0 386.942>
LayerCount: 3
Fore
SplineSet
793 -76 m 0xdff4
 922 -76 1019 -179 1019 -299 c 2
 1019 -603 l 25
 744 -875 l 1
 628 -760 l 1
 515 -873 l 1
 332 -695 l 1
 286 -741 235 -807 127 -807 c 0
 -1 -807 -98 -704 -98 -583 c 0
 -98 -463 -3 -360 127 -360 c 0xbff4
 237 -360 286 -428 332 -474 c 1
 439 -369 l 1
 550 -477 l 1
 444 -583 l 1
 515 -654 l 1
 628 -541 l 1
 744 -656 l 1
 839 -562 l 1
 839 -518 l 1
 824 -520 808 -521 793 -521 c 0
 669 -521 569 -423 569 -299 c 0
 569 -180 663 -76 793 -76 c 0xdff4
794 -210 m 0
 742 -210 703 -251 703 -298 c 0
 703 -345 742 -388 794 -388 c 0xdff4
 848 -388 883 -342 883 -298 c 0
 883 -251 846 -210 794 -210 c 0
126 -494 m 0xbff0
 74 -494 36 -536 36 -583 c 0
 36 -634 80 -673 126 -673 c 0
 173 -673 216 -635 216 -583 c 0
 216 -535 177 -494 126 -494 c 0xbff0
762 922 m 2
 891 922 1038 819 1038 694 c 0
 1038 681 1037 667 1034 653 c 2
 903 0 l 1
 683 0 l 25
 630 264 l 1
 600 251 568 244 535 244 c 0
 409 244 311 344 311 468 c 0
 311 589 408 690 535 690 c 0
 685 690 747 565 755 519 c 2
 794 285 l 1
 857 655 l 2
 858 659 858 663 858 667 c 0x9ff8
 858 710 820 744 767 744 c 2
 136 744 l 1
 136 1043 380 1279 675 1279 c 0
 892 1279 1054 1162 1142 1013 c 1
 986 924 l 1
 960 969 862 1101 675 1101 c 0
 488 1101 391 968 363 922 c 1
 762 922 l 2
536 557 m 0
 484 557 445 516 445 467 c 0
 445 414 490 378 536 378 c 0
 584 378 625 416 625 467 c 0
 625 518 585 557 536 557 c 0
EndSplineSet
Validated: 1
Layer: 2
SplineSet
793 -76 m 0,0,1
 888 -76 888 -76 953.5 -142 c 128,-1,2
 1019 -208 1019 -208 1019 -299 c 2,3,-1
 1019 -603 l 1,4,-1
 744 -875 l 1,5,-1
 628 -760 l 1,6,-1
 515 -873 l 1,7,-1
 332 -695 l 1,8,9
 329 -698 329 -698 312.5 -715 c 128,-1,10
 296 -732 296 -732 289.5 -738 c 128,-1,11
 283 -744 283 -744 266.5 -758 c 128,-1,12
 250 -772 250 -772 238 -778 c 128,-1,13
 226 -784 226 -784 207.5 -792.5 c 128,-1,14
 189 -801 189 -801 169 -804 c 128,-1,15
 149 -807 149 -807 127 -807 c 0,16,17
 32 -807 32 -807 -33 -741 c 128,-1,18
 -98 -675 -98 -675 -98 -583 c 128,-1,19
 -98 -491 -98 -491 -33.5 -425.5 c 128,-1,20
 31 -360 31 -360 127 -360 c 0,21,22
 153 -360 153 -360 177.5 -366 c 128,-1,23
 202 -372 202 -372 218 -378.5 c 128,-1,24
 234 -385 234 -385 254 -400.5 c 128,-1,25
 274 -416 274 -416 282 -423.5 c 128,-1,26
 290 -431 290 -431 309 -450.5 c 128,-1,27
 328 -470 328 -470 332 -474 c 1,28,-1
 439 -369 l 1,29,-1
 550 -477 l 1,30,-1
 444 -583 l 1,31,-1
 515 -654 l 1,32,-1
 628 -541 l 1,33,-1
 744 -656 l 1,34,-1
 839 -562 l 1,35,-1
 839 -518 l 1,36,37
 817 -521 817 -521 793 -521 c 0,38,39
 700 -521 700 -521 634.5 -456.5 c 128,-1,40
 569 -392 569 -392 569 -299 c 0,41,42
 569 -208 569 -208 633 -142 c 128,-1,43
 697 -76 697 -76 793 -76 c 0,0,1
794 -210 m 128,-1,45
 756 -210 756 -210 729.5 -236 c 128,-1,46
 703 -262 703 -262 703 -298 c 128,-1,47
 703 -334 703 -334 729.5 -361 c 128,-1,48
 756 -388 756 -388 794 -388 c 0,49,50
 833 -388 833 -388 858 -360.5 c 128,-1,51
 883 -333 883 -333 883 -298 c 0,52,53
 883 -262 883 -262 857.5 -236 c 128,-1,44
 832 -210 832 -210 794 -210 c 128,-1,45
126 -494 m 128,-1,55
 88 -494 88 -494 62 -520.5 c 128,-1,56
 36 -547 36 -547 36 -583 c 0,57,58
 36 -620 36 -620 63.5 -646.5 c 128,-1,59
 91 -673 91 -673 126 -673 c 0,60,61
 162 -673 162 -673 189 -647 c 128,-1,62
 216 -621 216 -621 216 -583 c 0,63,64
 216 -547 216 -547 190 -520.5 c 128,-1,54
 164 -494 164 -494 126 -494 c 128,-1,55
762 922 m 2,65,66
 863 922 863 922 950.5 853.5 c 128,-1,67
 1038 785 1038 785 1038 694 c 0,68,69
 1038 672 1038 672 1034 653 c 2,70,-1
 903 0 l 1,71,-1
 683 0 l 1,72,-1
 630 264 l 1,73,74
 584 244 584 244 535 244 c 0,75,76
 441 244 441 244 376 309.5 c 128,-1,77
 311 375 311 375 311 468 c 0,78,79
 311 560 311 560 376 625 c 128,-1,80
 441 690 441 690 535 690 c 0,81,82
 588 690 588 690 631 670.5 c 128,-1,83
 674 651 674 651 699 621.5 c 128,-1,84
 724 592 724 592 737.5 565.5 c 128,-1,85
 751 539 751 539 755 519 c 2,86,-1
 794 285 l 1,87,-1
 857 655 l 2,88,89
 858 659 858 659 858 667 c 0,90,91
 858 700 858 700 832 722 c 128,-1,92
 806 744 806 744 767 744 c 2,93,-1
 136 744 l 1,94,95
 136 891 136 891 209 1014 c 128,-1,96
 282 1137 282 1137 405.5 1208 c 128,-1,97
 529 1279 529 1279 675 1279 c 0,98,99
 830 1279 830 1279 951 1205.5 c 128,-1,100
 1072 1132 1072 1132 1142 1013 c 1,101,-1
 986 924 l 1,102,103
 973 947 973 947 951.5 971.5 c 128,-1,104
 930 996 930 996 892.5 1028 c 128,-1,105
 855 1060 855 1060 797.5 1080.5 c 128,-1,106
 740 1101 740 1101 675 1101 c 128,-1,107
 610 1101 610 1101 553 1080.5 c 128,-1,108
 496 1060 496 1060 458 1027.5 c 128,-1,109
 420 995 420 995 399 970.5 c 128,-1,110
 378 946 378 946 363 922 c 1,111,-1
 762 922 l 2,65,66
536 557 m 0,112,113
 497 557 497 557 471 530.5 c 128,-1,114
 445 504 445 504 445 467 c 0,115,116
 445 429 445 429 472.5 403.5 c 128,-1,117
 500 378 500 378 536 378 c 0,118,119
 573 378 573 378 599 403.5 c 128,-1,120
 625 429 625 429 625 467 c 128,-1,121
 625 505 625 505 599 531 c 128,-1,122
 573 557 573 557 536 557 c 0,112,113
EndSplineSet
Substitution2: "'ccmp' Pali-Sanskrit Descender Removal" uni0E10.descless
Substitution2: "Thai Descender Removal Single Substitution" uni0E10.descless
EndChar

StartChar: uni0E11
Encoding: 3601 3601 140
Width: 1689
VWidth: 2045
Flags: W
HStem: 0 21G<566 843.393 1334 1514> 607 133<238.385 390.434> 918 132<268.148 391.494> 1063 21G<460.246 528.115> 1102 177<1177.85 1320.17>
VStem: 72 152<754.661 971.773> 404 134<752.343 906.29> 566 180<187 615.051> 724 180<794.284 1051.97> 1334 180<0 1088.03>
DStem2: 746 187 837 0 0.304486 0.952517<0 1020.26>
LayerCount: 3
Fore
SplineSet
1334 1010 m 2xff40
 1334 1059 1295 1102 1238 1102 c 0
 1216 1102 1188 1099 1180 1073 c 2
 837 0 l 1
 566 0 l 1
 566 465 l 2xff40
 566 719 724 778 724 921 c 0
 724 1041 639 1103 596 1124 c 1
 495 1063 l 1
 389 1124 l 1
 328 1120 287 1091 267 1036 c 1
 288 1044 310 1050 334 1050 c 0
 401 1050 538 987 538 836 c 0
 538 698 433 607 314 607 c 0
 191 607 72 708 72 892 c 0
 72 1103 179 1248 354 1279 c 1
 495 1196 l 1
 644 1279 l 1
 732 1255 904 1168 904 934 c 0xfec0
 904 683 746 649 746 465 c 2
 746 187 l 1
 1064 1155 l 2
 1073 1182 1129 1279 1271 1279 c 0
 1357 1279 1514 1212 1514 1011 c 2
 1514 0 l 1
 1334 0 l 1
 1334 1010 l 2xff40
314 918 m 0
 258 918 224 874 224 829 c 0
 224 783 261 740 314 740 c 0
 367 740 404 781 404 829 c 0
 404 879 368 918 314 918 c 0
EndSplineSet
Validated: 1
Layer: 2
SplineSet
1334 1010 m 2,0,1
 1334 1048 1334 1048 1307 1075 c 128,-1,2
 1280 1102 1280 1102 1238 1102 c 0,3,4
 1189 1102 1189 1102 1180 1073 c 2,5,-1
 837 0 l 1,6,-1
 566 0 l 1,7,-1
 566 465 l 2,8,9
 566 535 566 535 582.5 595 c 128,-1,10
 599 655 599 655 622 695 c 128,-1,11
 645 735 645 735 668 770.5 c 128,-1,12
 691 806 691 806 707.5 844 c 128,-1,13
 724 882 724 882 724 921 c 0,14,15
 724 1000 724 1000 683.5 1050.5 c 128,-1,16
 643 1101 643 1101 596 1124 c 1,17,-1
 495 1063 l 1,18,-1
 389 1124 l 1,19,20
 297 1118 297 1118 267 1036 c 1,21,22
 304 1050 304 1050 334 1050 c 0,23,24
 361 1050 361 1050 394.5 1037 c 128,-1,25
 428 1024 428 1024 461 1000 c 128,-1,26
 494 976 494 976 516 932.5 c 128,-1,27
 538 889 538 889 538 836 c 0,28,29
 538 735 538 735 472 671 c 128,-1,30
 406 607 406 607 314 607 c 0,31,32
 216 607 216 607 144 684 c 128,-1,33
 72 761 72 761 72 892 c 0,34,35
 72 1050 72 1050 147 1153 c 128,-1,36
 222 1256 222 1256 354 1279 c 1,37,-1
 495 1196 l 1,38,-1
 644 1279 l 1,39,40
 675 1271 675 1271 705.5 1257 c 128,-1,41
 736 1243 736 1243 773 1214.5 c 128,-1,42
 810 1186 810 1186 838 1150 c 128,-1,43
 866 1114 866 1114 885 1057.5 c 128,-1,44
 904 1001 904 1001 904 934 c 0,45,46
 904 865 904 865 887.5 808 c 128,-1,47
 871 751 871 751 848 712.5 c 128,-1,48
 825 674 825 674 802 638.5 c 128,-1,49
 779 603 779 603 762.5 559 c 128,-1,50
 746 515 746 515 746 465 c 2,51,-1
 746 187 l 1,52,-1
 1064 1155 l 2,53,54
 1069 1169 1069 1169 1081 1186.5 c 128,-1,55
 1093 1204 1093 1204 1116.5 1226.5 c 128,-1,56
 1140 1249 1140 1249 1181 1264 c 128,-1,57
 1222 1279 1222 1279 1271 1279 c 0,58,59
 1307 1279 1307 1279 1346 1264.5 c 128,-1,60
 1385 1250 1385 1250 1424 1221 c 128,-1,61
 1463 1192 1463 1192 1488.5 1137 c 128,-1,62
 1514 1082 1514 1082 1514 1011 c 2,63,-1
 1514 0 l 1,64,-1
 1334 0 l 1,65,-1
 1334 1010 l 2,0,1
314 918 m 128,-1,67
 274 918 274 918 249 891.5 c 128,-1,68
 224 865 224 865 224 829 c 128,-1,69
 224 793 224 793 249.5 766.5 c 128,-1,70
 275 740 275 740 314 740 c 128,-1,71
 353 740 353 740 378.5 766 c 128,-1,72
 404 792 404 792 404 829 c 0,73,74
 404 867 404 867 379 892.5 c 128,-1,66
 354 918 354 918 314 918 c 128,-1,67
EndSplineSet
EndChar

StartChar: uni0E12
Encoding: 3602 3602 141
Width: 1957
VWidth: 2045
Flags: W
HStem: -11 134<987.871 1142.89> 302 133<990.468 1066> 749 133<631.565 786.395> 1254 5G<379.5 504.2 908.067 1028.5 1587 1767>
VStem: 164 180<208 1025.75> 485 134<583.228 736.58> 799 137<583.472 734.334> 842 134<135.765 288.304> 1066 180<435 1035.42> 1587 180<180 1254>
DStem2: 344 208 349 0 0.718803 0.695213<0 361.246> 473 1279 485 1097 0.841879 -0.539666<77.8621 277.95> 707 1129 707 952 0.839764 0.542951<0 201.023> 1246 369 1287 163 0.874641 -0.484772<135.723 389.874>
LayerCount: 3
Fore
SplineSet
842 213 m 0xfdc0
 842 343 946 435 1066 435 c 1
 1066 848 l 2
 1066 1013 1035 1053 939 1100 c 1
 707 952 l 1
 485 1097 l 1
 467 1095 344 1063 344 850 c 2
 344 208 l 1
 598 465 l 1
 496 523 485 606 485 660 c 0
 485 784 585 882 709 882 c 0
 833 882 932 787 936 659 c 1xfec0
 936 598 913 546 867 501 c 2
 349 0 l 1
 164 0 l 1
 164 850 l 2
 164 1085 286 1243 473 1279 c 1
 707 1129 l 1
 939 1279 l 1
 1118 1247 1246 1078 1246 850 c 2
 1246 369 l 1
 1587 180 l 1
 1587 1254 l 1
 1767 1254 l 1
 1767 0 l 1
 1587 0 l 1
 1287 163 l 1
 1276 120 1219 -11 1066 -11 c 0
 939 -11 842 90 842 213 c 0xfdc0
1065 302 m 0
 1017 302 976 264 976 213 c 0xfdc0
 976 160 1017 123 1066 123 c 0
 1118 123 1156 165 1156 212 c 0
 1156 259 1117 302 1065 302 c 0
709 749 m 0
 656 749 619 705 619 659 c 0
 619 612 655 571 709 571 c 0
 763 571 799 612 799 659 c 0xfec0
 799 705 762 749 709 749 c 0
EndSplineSet
Validated: 1
Layer: 2
SplineSet
842 213 m 0,0,1
 842 309 842 309 908 372 c 128,-1,2
 974 435 974 435 1066 435 c 1,3,-1
 1066 848 l 2,4,5
 1066 931 1066 931 1053.5 977.5 c 128,-1,6
 1041 1024 1041 1024 1015.5 1049.5 c 128,-1,7
 990 1075 990 1075 939 1100 c 1,8,-1
 707 952 l 1,9,-1
 485 1097 l 1,10,11
 476 1096 476 1096 463 1091.5 c 128,-1,12
 450 1087 450 1087 428 1070.5 c 128,-1,13
 406 1054 406 1054 388 1029 c 128,-1,14
 370 1004 370 1004 357 957 c 128,-1,15
 344 910 344 910 344 850 c 2,16,-1
 344 208 l 1,17,-1
 598 465 l 1,18,19
 485 529 485 529 485 660 c 0,20,21
 485 753 485 753 550.5 817.5 c 128,-1,22
 616 882 616 882 709 882 c 128,-1,23
 802 882 802 882 867.5 818.5 c 128,-1,24
 933 755 933 755 936 659 c 0,25,26
 936 568 936 568 867 501 c 2,27,-1
 349 0 l 1,28,-1
 164 0 l 1,29,-1
 164 850 l 2,30,31
 164 1024 164 1024 247.5 1138 c 128,-1,32
 331 1252 331 1252 473 1279 c 1,33,-1
 707 1129 l 1,34,-1
 939 1279 l 1,35,36
 1075 1255 1075 1255 1160.5 1137 c 128,-1,37
 1246 1019 1246 1019 1246 850 c 2,38,-1
 1246 369 l 1,39,-1
 1587 180 l 1,40,-1
 1587 1254 l 1,41,-1
 1767 1254 l 1,42,-1
 1767 0 l 1,43,-1
 1587 0 l 1,44,-1
 1287 163 l 1,45,46
 1282 142 1282 142 1268.5 117 c 128,-1,47
 1255 92 1255 92 1230.5 61 c 128,-1,48
 1206 30 1206 30 1162.5 9.5 c 128,-1,49
 1119 -11 1119 -11 1066 -11 c 0,50,51
 971 -11 971 -11 906.5 54.5 c 128,-1,52
 842 120 842 120 842 213 c 0,0,1
1065 302 m 0,53,54
 1028 302 1028 302 1002 276.5 c 128,-1,55
 976 251 976 251 976 213 c 0,56,57
 976 174 976 174 1002.5 148.5 c 128,-1,58
 1029 123 1029 123 1066 123 c 0,59,60
 1104 123 1104 123 1130 149.5 c 128,-1,61
 1156 176 1156 176 1156 212 c 128,-1,62
 1156 248 1156 248 1129.5 275 c 128,-1,63
 1103 302 1103 302 1065 302 c 0,53,54
709 749 m 128,-1,65
 670 749 670 749 644.5 722 c 128,-1,66
 619 695 619 695 619 659 c 128,-1,67
 619 623 619 623 644.5 597 c 128,-1,68
 670 571 670 571 709 571 c 128,-1,69
 748 571 748 571 773.5 597 c 128,-1,70
 799 623 799 623 799 659 c 128,-1,71
 799 695 799 695 773.5 722 c 128,-1,64
 748 749 748 749 709 749 c 128,-1,65
EndSplineSet
EndChar

